<?xml version="1.0" standalone="no"?>
<!DOCTYPE svg PUBLIC "-//W3C//DTD SVG 1.1//EN" "http://www.w3.org/Graphics/SVG/1.1/DTD/svg11.dtd" >
<svg xmlns="http://www.w3.org/2000/svg" xmlns:xlink="http://www.w3.org/1999/xlink" version="1.1">
<metadata></metadata>
<defs>
<font id="krungsri_condensedmedium" horiz-adv-x="0" >
<font-face units-per-em="2048" ascent="1638" descent="-410" />
<missing-glyph horiz-adv-x="545" />
<glyph unicode="&#xe2f;&#xe2f;" horiz-adv-x="1407" d="M88 1137v170h209v-166q0 -98 32.5 -138t86.5 -40q28 0 65.5 11t70.5 38t56 73t23 117v119l229 -55v-1266h-229v940h-4q-15 -33 -39.5 -62t-57.5 -51t-74.5 -34.5t-90.5 -12.5q-59 0 -109.5 19t-87.5 62t-58.5 110.5t-21.5 165.5zM1034 0v1321l228 -55v-1266h-228z" />
<glyph unicode="&#xe4f;&#x22;" horiz-adv-x="1118" d="M123 438q0 91 34.5 170.5t93.5 138.5t138.5 93t169.5 34t169.5 -34t138.5 -93t93.5 -138.5t34.5 -170.5q0 -90 -34.5 -170t-93.5 -139.5t-138.5 -94t-169.5 -34.5t-169.5 34.5t-138.5 94t-93.5 139.5t-34.5 170zM190 438q0 -77 29 -144.5t79 -117.5t117 -79t144 -29 t144 29t117 79t79 117.5t29 144.5q0 76 -29 143t-79 117.5t-117 79.5t-144 29t-144 -29t-117 -79.5t-79 -117.5t-29 -143zM311 1450h189l-35 -471h-119zM328 436q0 48 18 90.5t49.5 74t73 49.5t88.5 18q48 0 90.5 -18.5t73.5 -50t49 -73t18 -88.5q0 -48 -18 -90.5 t-49.5 -73.5t-73 -49t-88.5 -18q-48 0 -90.5 18t-73.5 49.5t-49 73t-18 88.5zM618 1450h187l-35 -471h-119z" />
<glyph unicode="&#xe24;&#xe32;" horiz-adv-x="2066" d="M41 944v12q23 70 73.5 137t123.5 119.5t166.5 84.5t201.5 32q128 0 226.5 -39.5t164.5 -113.5q78 66 180.5 109.5t227.5 43.5q123 0 219.5 -35t162.5 -102t101 -164.5t35 -222.5v-1321l-221 -92h-6v1411q0 161 -74 244t-223 83q-50 0 -95 -9.5t-83.5 -26.5t-70 -39.5 t-54.5 -48.5q14 -45 21 -96t7 -105v-1321l-227 -92v1411q0 161 -73.5 244t-223.5 83q-61 0 -114 -14.5t-96.5 -38t-75.5 -54t-50 -62.5v-7q15 -14 34 -35t37 -45t33.5 -49t24.5 -47v-588h228l-60 -190h-395v762q-9 26 -23.5 52t-31.5 50t-35 44.5t-35 35.5z" />
<glyph unicode="&#xe26;&#xe32;" horiz-adv-x="2073" d="M53 184h187v561q-9 26 -28.5 55t-42.5 56t-47 50t-42 38v14q22 70 72.5 137t124 119.5t167 84.5t201.5 32q124 0 219.5 -36t161.5 -105q74 60 171.5 99.5t213.5 39.5q122 0 218.5 -35t163.5 -102t102.5 -164.5t35.5 -222.5v-1321l-221 -92h-6v1411q0 161 -74.5 244 t-224.5 83q-87 0 -157 -28.5t-118 -71.5q19 -49 29 -104.5t10 -120.5v-1321l-227 -92v1413q0 159 -77 243.5t-226 84.5q-61 0 -114.5 -14.5t-97 -38.5t-75 -54.5t-49.5 -62.5v-7q16 -14 40 -38t48.5 -51t45.5 -55t30 -50v-762h-365z" />
<glyph unicode="fi" horiz-adv-x="1231" d="M68 895v182h135v105q0 79 16.5 144t54.5 111t99 71.5t151 25.5q62 0 105.5 -5t72.5 -13v-173q-27 4 -56 6.5t-60 2.5q-51 0 -83 -13t-50 -37.5t-24.5 -59t-6.5 -77.5v-88h246v-182h-246v-1333h-6l-213 73v1260h-135zM860 1239v236h242v-236h-242zM868 0v1077h224v-1077 h-224z" />
<glyph unicode="fl" horiz-adv-x="1229" d="M68 895v182h135v105q0 79 16.5 144t54.5 111t99 71.5t151 25.5q62 0 105.5 -5t72.5 -13v-173q-27 4 -56 6.5t-60 2.5q-51 0 -83 -13t-50 -37.5t-24.5 -59t-6.5 -77.5v-88h246v-182h-246v-1333h-6l-213 73v1260h-135zM868 0v1563l224 -74v-1489h-224z" />
<glyph />
<glyph />
<glyph unicode=" "  horiz-adv-x="545" />
<glyph unicode="&#x09;" horiz-adv-x="545" />
<glyph unicode="&#xa0;" horiz-adv-x="545" />
<glyph unicode="!" horiz-adv-x="580" d="M166 0v274h250v-274h-250zM168 1108v340h246v-340l-56 -662h-135z" />
<glyph unicode="&#x22;" horiz-adv-x="737" d="M96 1518h209l-39 -539h-131zM432 1518h209l-39 -539h-131z" />
<glyph unicode="#" horiz-adv-x="1192" d="M53 356v179h203l55 393h-188v176h215l51 344h176l-49 -344h275l51 344h178l-51 -344h170v-176h-195l-57 -393h184v-179h-217l-51 -356h-176l51 356h-277l-53 -356h-178l55 356h-172zM432 535h277l57 393h-277z" />
<glyph unicode="$" horiz-adv-x="1202" d="M111 156l118 159q66 -57 152.5 -94t177.5 -43v438q-78 22 -150.5 50.5t-128.5 73.5t-90 110.5t-34 161.5q0 93 32 162.5t86.5 117t128 73.5t156.5 32v205h125v-207q100 -11 190 -50t177 -104l-119 -160q-63 50 -123 75t-125 36v-383q68 -21 138 -52.5t126.5 -80.5 t92.5 -120.5t36 -172.5q0 -96 -31.5 -168t-85.5 -122t-125.5 -78t-150.5 -35v-209h-125v204q-61 5 -122 18.5t-118.5 36t-110.5 54t-97 72.5zM389 1028q0 -38 12.5 -65t35.5 -48t55 -36.5t71 -30.5v350q-83 -6 -128.5 -49.5t-45.5 -120.5zM684 182q69 14 111.5 62t42.5 127 q0 42 -12.5 74.5t-33.5 57t-49 43t-59 32.5v-396z" />
<glyph unicode="%" horiz-adv-x="1542" d="M94 1090q0 79 17.5 148t54.5 120t94 80.5t135 29.5t134 -29.5t93 -80.5t54.5 -120t17.5 -148t-17.5 -148t-54.5 -120.5t-93 -81t-134 -29.5t-135 29.5t-94 81t-54.5 120.5t-17.5 148zM250 0l860 1448h182l-860 -1448h-182zM287 1090q0 -50 7 -91.5t20.5 -71.5t33.5 -46.5 t47 -16.5q26 0 46 16.5t33.5 46.5t20.5 71.5t7 91.5q0 51 -7 92.5t-20.5 71t-33.5 45.5t-46 16q-27 0 -47 -16t-33.5 -45.5t-20.5 -71t-7 -92.5zM848 365q0 79 17.5 147.5t54.5 119.5t94 80t135 29t134.5 -29t93 -80t54 -119.5t17.5 -147.5t-17.5 -148t-54 -120.5t-93 -81 t-134.5 -29.5t-135 29.5t-94 81t-54.5 120.5t-17.5 148zM1040 365q0 -102 27.5 -164t81.5 -62q26 0 46 16t33.5 46t20 71.5t6.5 92.5q0 50 -6.5 91t-20 70.5t-33.5 45.5t-46 16q-27 0 -47.5 -16t-34 -45.5t-20.5 -70.5t-7 -91z" />
<glyph unicode="&#x26;" horiz-adv-x="1327" d="M104 385q0 77 20.5 140.5t58 115.5t90 93t116.5 73q-25 31 -47.5 66.5t-40 74.5t-27.5 81t-10 87q0 79 26.5 145t74.5 113.5t114.5 74t147.5 26.5q76 0 140 -25t110.5 -70.5t73 -109t26.5 -140.5q0 -69 -21 -127.5t-58.5 -107t-89 -86t-112.5 -64.5l250 -303 q40 62 72 136t49 155l178 -80q-32 -105 -76.5 -197t-101.5 -163l158 -193l-146 -129l-143 172q-72 -80 -174 -123t-223 -43q-94 0 -173.5 27t-137.5 79.5t-91 128t-33 173.5zM346 391q0 -108 58 -166.5t155 -58.5q74 0 138 27.5t114 87.5l-309 376q-83 -35 -119.5 -106 t-36.5 -160zM475 1106q0 -38 8.5 -69t23 -58.5t34.5 -53.5t43 -53q42 14 77 37t60.5 54.5t40 70.5t14.5 84q0 42 -10.5 75.5t-30 57t-46.5 36.5t-60 13q-37 0 -66 -14t-48.5 -39.5t-29.5 -61.5t-10 -79z" />
<glyph unicode="'" horiz-adv-x="397" d="M94 1518h209l-39 -539h-131z" />
<glyph unicode="(" horiz-adv-x="739" d="M125 586q0 160 32 307.5t92.5 278t147 242t195.5 198.5l94 -123q-90 -81 -155.5 -181.5t-108.5 -216t-63.5 -243t-20.5 -262.5t20.5 -263t63.5 -243.5t108.5 -215.5t155.5 -181l-94 -123q-109 87 -195.5 198.5t-147 242.5t-92.5 278.5t-32 306.5z" />
<glyph unicode=")" horiz-adv-x="739" d="M55 -317q89 81 154.5 181t108 215.5t63 243.5t20.5 263t-20.5 262.5t-63 243t-108 216t-154.5 181.5l92 123q109 -87 196 -198.5t147.5 -242t93 -278t32.5 -307.5q0 -159 -32.5 -306.5t-93 -278.5t-147.5 -242.5t-196 -198.5z" />
<glyph unicode="*" horiz-adv-x="864" d="M41 1260l104 145l217 -154l-28 262h198l-28 -262l215 154l104 -145l-245 -111l243 -111l-102 -149l-215 151l28 -256h-198l28 256l-217 -151l-98 149l242 111z" />
<glyph unicode="+" horiz-adv-x="1010" d="M49 535v176h361v381h192v-381h359v-176h-359v-379h-192v379h-361z" />
<glyph unicode="," horiz-adv-x="455" d="M61 -217q76 18 111 75.5t35 141.5h-105v274h250v-206q0 -62 -13 -121t-43 -108t-79.5 -84.5t-122.5 -49.5z" />
<glyph unicode="-" horiz-adv-x="600" d="M55 590v170h492v-170h-492z" />
<glyph unicode="." horiz-adv-x="455" d="M102 0v274h250v-274h-250z" />
<glyph unicode="/" horiz-adv-x="1065" d="M41 -264l788 1911h195l-788 -1911h-195z" />
<glyph unicode="0" horiz-adv-x="1202" d="M80 727q0 151 31 287t95 238.5t162 162.5t232 60t232 -60t162 -162.5t95 -238.5t31 -287q0 -152 -31 -288t-95 -239t-162 -163t-232 -60t-232 60t-162 163t-95 239t-31 288zM317 727q0 -113 16 -213t50 -174.5t88 -118t129 -43.5q76 0 130 43.5t88 118t49.5 174.5 t15.5 213q0 112 -15.5 211.5t-49.5 174t-88 118t-130 43.5q-75 0 -129 -43.5t-88 -118t-50 -174t-16 -211.5z" />
<glyph unicode="1" horiz-adv-x="1202" d="M281 1339l317 125h172v-1464h-227v1233l-209 -47z" />
<glyph unicode="2" horiz-adv-x="1202" d="M133 1231q88 115 199.5 179.5t259.5 64.5q103 0 184 -32.5t137.5 -90t86.5 -135.5t30 -168q0 -83 -18.5 -152t-54.5 -133.5t-89.5 -129.5t-124.5 -138l-276 -289h592v-207h-916v174l447 461q54 57 92.5 105.5t63 96t36 97t11.5 108.5q0 51 -13.5 93t-39.5 72t-65.5 46.5 t-90.5 16.5q-94 0 -169 -48t-136 -126z" />
<glyph unicode="3" horiz-adv-x="1202" d="M98 199l146 137q62 -74 137.5 -115t177.5 -41q60 0 108 17t81 48.5t51 77t18 103.5q0 122 -63.5 175.5t-194.5 53.5h-123v181h125q119 0 170 53.5t51 165.5q0 54 -16.5 94.5t-46 67.5t-69.5 40t-87 13q-90 0 -166.5 -40t-138.5 -114l-145 135q83 109 199.5 166.5 t265.5 57.5q87 0 166 -25t139 -76t95.5 -127.5t35.5 -179.5q0 -55 -14.5 -103.5t-39 -88t-56.5 -69t-66 -46.5l-2 -2h1l1 -2q43 -14 82 -41.5t69 -68t48 -95t18 -121.5q0 -113 -39.5 -198t-106 -141.5t-155 -85t-185.5 -28.5q-148 0 -267.5 56.5t-203.5 165.5z" />
<glyph unicode="4" horiz-adv-x="1202" d="M59 479l699 977h192v-938h185v-190h-185v-328h-229v328h-608zM328 522h395v576z" />
<glyph unicode="5" horiz-adv-x="1202" d="M115 213l147 137q25 -37 56 -68t68.5 -53.5t83 -35.5t101.5 -13q58 0 106 20t83 56.5t54.5 88.5t19.5 116q0 59 -16 108t-46.5 84.5t-74 55.5t-97.5 20q-80 0 -140 -25.5t-108 -62.5l-147 88l45 719h743v-205h-551l-24 -383l2 -2q46 26 105.5 41.5t140.5 15.5 q79 0 152 -28.5t129.5 -85t90 -141.5t33.5 -199q0 -112 -37.5 -201.5t-103 -152.5t-153.5 -96.5t-189 -33.5q-164 0 -281 63.5t-192 172.5z" />
<glyph unicode="6" horiz-adv-x="1202" d="M121 686q0 169 32.5 313t100 249.5t170 165t242.5 59.5q58 0 110.5 -11t98.5 -30t86 -44.5t73 -54.5l-114 -157q-48 43 -108 67.5t-132 24.5q-89 0 -149.5 -42t-98 -112t-54 -160.5t-18.5 -187.5q24 37 56.5 68.5t74 54.5t91 36t106.5 13q84 0 157.5 -33t129 -93 t87.5 -144.5t32 -188.5q0 -117 -35 -210t-96.5 -158t-145 -99.5t-180.5 -34.5q-117 0 -212 45.5t-162.5 134.5t-104.5 222t-37 307zM381 463q0 -61 17.5 -113.5t49 -91.5t76.5 -61.5t101 -22.5q57 0 101 20.5t75 59t47 92.5t16 121t-17 119t-48 88t-74 55t-94 19 q-55 0 -101 -21.5t-79 -59.5t-51.5 -90.5t-18.5 -113.5z" />
<glyph unicode="7" horiz-adv-x="1202" d="M168 1243v205h866v-174l-542 -1274h-256l530 1243h-598z" />
<glyph unicode="8" horiz-adv-x="1202" d="M106 391q0 65 18.5 120.5t50 101.5t73.5 81.5t90 61.5q-37 23 -71 53t-60 69.5t-41.5 90t-15.5 114.5q0 87 33 159t93 124t143 80.5t183 28.5q84 0 165 -22.5t144 -70t101.5 -121.5t38.5 -178q0 -58 -18 -107t-46.5 -89.5t-63 -72t-67.5 -54.5q45 -20 88 -51t76.5 -73.5 t53.5 -97.5t20 -122q0 -121 -43.5 -204.5t-113.5 -135.5t-158 -75.5t-177 -23.5q-91 0 -179.5 21.5t-159 70.5t-114 128t-43.5 194zM346 406q0 -59 20 -103t54.5 -72.5t82 -42.5t101.5 -14q52 0 98 14t80 43.5t54 74t20 106.5q0 64 -28 111t-72.5 78.5t-99.5 48t-109 20.5 q-66 -23 -105.5 -55t-61 -68t-28 -72.5t-6.5 -68.5zM391 1067q0 -66 29 -108.5t71 -69t88 -39.5t80 -19q42 22 71.5 46.5t48 53t26.5 62t8 74.5q0 51 -15.5 91t-43.5 67.5t-66.5 42t-83.5 14.5q-99 0 -156 -56t-57 -159z" />
<glyph unicode="9" horiz-adv-x="1202" d="M109 969q0 117 35 209.5t96.5 157.5t144.5 99.5t180 34.5q117 0 212 -45t162.5 -134.5t104.5 -222t37 -306.5q0 -169 -32.5 -313t-100 -249.5t-170 -165t-241.5 -59.5q-59 0 -111.5 11t-98.5 30t-86 44.5t-73 54.5l115 157q48 -43 107.5 -67.5t131.5 -24.5q89 0 149.5 42 t98 112t54 160.5t18.5 187.5q-24 -37 -56.5 -68.5t-73.5 -54.5t-90.5 -36t-107.5 -13q-84 0 -157.5 33t-128.5 93t-87 144.5t-32 188.5zM338 981q0 -67 17 -119t48 -88t74 -55t94 -19q55 0 101 21.5t79 59.5t51.5 90t18.5 114q0 61 -17.5 113.5t-49 91.5t-76.5 61.5 t-100 22.5q-57 0 -101.5 -21t-75.5 -59t-47 -92t-16 -121z" />
<glyph unicode=":" horiz-adv-x="473" d="M111 0v274h249v-274h-249zM111 795v274h249v-274h-249z" />
<glyph unicode=";" horiz-adv-x="473" d="M70 -217q75 18 110 75.5t35 141.5h-104v274h249v-206q0 -62 -12.5 -121t-42.5 -108t-79 -84.5t-122 -49.5zM111 795v274h249v-274h-249z" />
<glyph unicode="&#x3c;" horiz-adv-x="1010" d="M49 645v141l854 510v-225l-608 -352v-6l608 -351v-225z" />
<glyph unicode="=" horiz-adv-x="1010" d="M82 365v165h846v-165h-846zM82 715v166h846v-166h-846z" />
<glyph unicode="&#x3e;" horiz-adv-x="1010" d="M106 137v225l609 351v6l-609 352v225l855 -510v-141z" />
<glyph unicode="?" horiz-adv-x="1055" d="M55 1241q88 116 203 175t266 59q86 0 163 -26t135 -77t92 -127t34 -176q0 -89 -29.5 -160.5t-78 -124.5t-111 -89t-127.5 -54l-18 -195h-170l-25 328q67 4 126.5 22t103 52.5t69 86t25.5 120.5q0 53 -16 92.5t-44 66t-66 39.5t-81 13q-97 0 -172 -40t-137 -118zM375 0 v274h250v-274h-250z" />
<glyph unicode="@" horiz-adv-x="1917" d="M152 489q0 142 32 265t90.5 225t140 182t180.5 135t212 84t235 29q171 0 305 -52.5t227 -144t142 -216.5t49 -269q0 -79 -14 -157t-41.5 -149t-68 -132.5t-93.5 -106.5t-117.5 -70.5t-140.5 -25.5q-35 0 -68 10t-60 31t-46.5 53t-28.5 76q-23 -39 -53 -70t-63 -53 t-68 -33.5t-67 -11.5q-65 0 -117.5 24.5t-90.5 70t-58.5 111.5t-20.5 150q0 120 31 220t84 172.5t124 112.5t152 40q75 0 132.5 -37t88.5 -108l25 108h186l-106 -567q-3 -15 -4.5 -31.5t-1.5 -31.5q0 -22 4 -41.5t14.5 -34.5t28.5 -24t45 -9q58 0 109.5 42.5t90.5 113 t61.5 161.5t22.5 189q0 137 -43 244t-121.5 180.5t-189.5 112t-246 38.5q-113 0 -212.5 -28t-183.5 -79.5t-150 -124.5t-112 -162.5t-70.5 -194t-24.5 -218.5q0 -161 48 -290t137 -220.5t216 -140.5t285 -49q70 0 142.5 14t142.5 39.5t134.5 62t118.5 81.5l52 -93 q-62 -51 -132.5 -92t-145 -69.5t-152 -44t-154.5 -15.5q-191 0 -343 58.5t-259 165.5t-164 258t-57 337zM745 451q0 -97 39.5 -150t102.5 -53q37 0 67 17.5t53 47.5t40.5 70.5t30 87t20 96t12.5 97.5q-6 81 -42.5 125.5t-98.5 44.5q-48 0 -89 -30t-71 -81.5t-47 -121.5 t-17 -150z" />
<glyph unicode="A" horiz-adv-x="1409" d="M66 0l532 1456h213l532 -1456h-243l-115 336h-561l-113 -336h-245zM500 535h409l-202 626h-5z" />
<glyph unicode="B" horiz-adv-x="1286" d="M150 0v1448h552q88 0 165 -23t133.5 -69t89 -115.5t32.5 -163.5q0 -58 -16 -109.5t-42 -93t-59.5 -71.5t-68.5 -45q61 -20 108 -50t79.5 -72t49.5 -97t17 -125q0 -86 -25.5 -161.5t-83 -131.5t-149.5 -88.5t-225 -32.5h-557zM375 205h319q133 0 200 51.5t67 167.5 q0 115 -67.5 168t-186.5 53h-332v-440zM375 848h303q43 0 82 12t68.5 38t47 66.5t17.5 96.5q0 94 -50.5 139t-144.5 45h-323v-397z" />
<glyph unicode="C" horiz-adv-x="1321" d="M100 727q0 163 44.5 300.5t128.5 237t204 155t271 55.5q83 0 153 -15t129.5 -42.5t108.5 -66.5t90 -87l-135 -152q-38 41 -76 70.5t-79 48.5t-86 28t-97 9q-102 0 -180 -39t-131 -110t-80 -171t-27 -221q0 -122 28 -222t82 -171t133 -110.5t181 -39.5q107 0 189 37 t157 119l135 -150q-41 -49 -91.5 -88.5t-111 -67t-131.5 -42.5t-155 -15q-151 0 -272 55.5t-206 155t-130.5 237.5t-45.5 302z" />
<glyph unicode="D" horiz-adv-x="1366" d="M150 0v1448h434q123 0 221 -28t173.5 -77.5t129.5 -117.5t88.5 -148t51 -168.5t16.5 -179.5q0 -164 -46.5 -298.5t-135 -230t-216 -148t-288.5 -52.5h-428zM379 207h199q126 0 211 44.5t136.5 117.5t74 167t22.5 193q0 111 -25.5 204.5t-79 162t-136.5 107t-197 38.5 h-205v-1034z" />
<glyph unicode="E" horiz-adv-x="1186" d="M150 0v1448h909v-205h-682v-395h627v-205h-627v-438h700v-205h-927z" />
<glyph unicode="F" horiz-adv-x="1153" d="M145 0v1448h908v-207h-680v-440h641v-207h-641v-594h-228z" />
<glyph unicode="G" horiz-adv-x="1401" d="M100 727q0 163 46 300.5t131 237t206 155t271 55.5q84 0 157 -14.5t134.5 -41.5t111.5 -65t88 -84l-137 -150q-35 38 -73 66t-80 46t-90 27t-103 9q-101 0 -180 -39t-133 -110t-82.5 -171t-28.5 -221q0 -122 27.5 -222t82 -171t135 -110.5t185.5 -39.5q88 0 154 21 t125 67v338h-324v207h549v-641q-41 -42 -94.5 -78.5t-118.5 -63.5t-142 -42t-165 -15q-151 0 -271.5 55.5t-205 155t-130 237.5t-45.5 302z" />
<glyph unicode="H" horiz-adv-x="1335" d="M150 0v1448h229v-598h577v598h230v-1448h-230v643h-577v-643h-229z" />
<glyph unicode="I" horiz-adv-x="553" d="M162 0v1448h229v-1448h-229z" />
<glyph unicode="J" horiz-adv-x="1014" d="M43 213l145 139q21 -36 47 -67t56.5 -53.5t65.5 -35t75 -12.5q47 0 85 14.5t65 48t42 87.5t15 133v981h231v-979q0 -116 -29 -207.5t-83.5 -154.5t-133.5 -96.5t-178 -33.5q-73 0 -134.5 18t-112 50t-89.5 75t-67 93z" />
<glyph unicode="K" horiz-adv-x="1296" d="M150 0v1448h229v-725l575 725h267l-508 -635l536 -813h-280l-410 629l-180 -226v-403h-229z" />
<glyph unicode="L" horiz-adv-x="1069" d="M150 0v1448h229v-1241h635v-207h-864z" />
<glyph unicode="M" horiz-adv-x="1524" d="M150 0v1448h227l385 -729l387 729h225v-1448h-223v1055l-375 -705h-26l-377 705v-1055h-223z" />
<glyph unicode="N" horiz-adv-x="1384" d="M150 0v1448h208l652 -1067v1067h225v-1448h-207l-651 1065v-1065h-227z" />
<glyph unicode="O" horiz-adv-x="1487" d="M100 727q0 163 46.5 300.5t131.5 237t203 155t262 55.5t262 -55.5t203 -155t131.5 -237t46.5 -300.5q0 -164 -46.5 -302t-131.5 -237.5t-203 -155t-262 -55.5t-262 55.5t-203 155t-131.5 237.5t-46.5 302zM338 727q0 -122 28.5 -223t81.5 -174t127.5 -113.5t167.5 -40.5 t168 40.5t128 113.5t81.5 174t28.5 223q0 121 -28.5 222t-81.5 173t-128 112t-168 40t-167.5 -40t-127.5 -112t-81.5 -173t-28.5 -222z" />
<glyph unicode="P" horiz-adv-x="1206" d="M150 0v1448h481q117 0 207 -35.5t151 -99.5t92 -151.5t31 -190.5q0 -111 -33.5 -202t-96.5 -156t-154 -100.5t-207 -35.5h-242v-477h-229zM379 684h246q58 0 105 20.5t80 57t51 88.5t18 115q0 71 -18 123t-51.5 86t-81 50.5t-107.5 16.5h-242v-557z" />
<glyph unicode="Q" horiz-adv-x="1638" d="M100 727q0 163 46.5 300.5t131.5 237t203 155t262 55.5t262 -55.5t203 -155t131.5 -237t46.5 -300.5q0 -174 -53.5 -317t-150.5 -242q34 -25 65 -25q28 0 53 13.5t47.5 37t42 55t37.5 68.5l138 -116q-23 -53 -55 -97.5t-70 -76.5t-82 -50t-92 -18q-62 0 -118.5 27 t-107.5 67q-66 -37 -140.5 -56.5t-156.5 -19.5q-144 0 -262 55.5t-203 155t-131.5 237.5t-46.5 302zM338 727q0 -99 16.5 -176t57.5 -143q31 41 68 66.5t75 40t75 19.5t68 5q62 0 114 -13.5t96.5 -36t82 -52.5t70.5 -62q18 35 34 70.5t28 77t19 91t7 113.5q0 121 -28.5 222 t-81.5 173t-128 112t-168 40t-167.5 -40t-127.5 -112t-81.5 -173t-28.5 -222zM492 276q52 -52 117 -76t134 -24q17 0 43.5 4t55 12t56.5 21.5t48 32.5q-26 33 -60 56.5t-70 38t-69.5 21.5t-58.5 7q-51 0 -103.5 -19.5t-92.5 -73.5z" />
<glyph unicode="R" horiz-adv-x="1307" d="M150 0v1448h485q110 0 208 -22t171.5 -74t116.5 -136.5t43 -209.5q0 -168 -79.5 -279t-232.5 -162l348 -565h-258l-313 530h-262v-530h-227zM377 733h270q64 0 118 13.5t92 45t59.5 81.5t21.5 124q0 72 -21.5 119t-59 75.5t-89 40t-111.5 11.5h-280v-510z" />
<glyph unicode="S" horiz-adv-x="1208" d="M100 174l123 170q85 -77 182.5 -117.5t202.5 -40.5q41 0 82 10t74 31.5t53.5 56.5t20.5 85q0 73 -30 121.5t-78.5 82.5t-111 58.5t-127 49t-127 54t-111 74t-78.5 108.5t-30 158q0 100 35 175t97 125t146.5 75t184.5 25q144 0 261 -45.5t202 -120.5l-119 -164 q-38 29 -75.5 52t-78.5 38.5t-87 24t-99 8.5q-58 0 -100 -12.5t-69.5 -35t-40.5 -54.5t-13 -72q0 -57 30 -95t79.5 -66t113 -50.5t129 -48t129 -58.5t113 -82.5t79.5 -120t30 -170.5q0 -107 -38 -187t-103 -133t-153 -79.5t-188 -26.5q-75 0 -147.5 14t-138.5 40t-123 62 t-101 81z" />
<glyph unicode="T" horiz-adv-x="1124" d="M57 1241v207h1010v-207h-389v-1241h-229v1241h-392z" />
<glyph unicode="U" horiz-adv-x="1348" d="M141 559v889h230v-870q0 -93 16.5 -166t52.5 -124t93.5 -77.5t140.5 -26.5t140.5 26.5t93.5 77.5t52.5 124t16.5 166v870h229v-889q0 -133 -33 -240.5t-99 -183.5t-166 -117t-234 -41q-135 0 -235 41t-166 117t-99 183.5t-33 240.5z" />
<glyph unicode="V" horiz-adv-x="1325" d="M74 1448h243l342 -1114h7l342 1114h245l-483 -1448h-215z" />
<glyph unicode="W" horiz-adv-x="1823" d="M90 1448h238l198 -1120h6l365 811h29l364 -811h6l197 1120h240l-287 -1452h-215l-320 737l-321 -737h-213z" />
<glyph unicode="X" horiz-adv-x="1323" d="M70 0l450 735l-432 713h268l306 -530l301 530h270l-430 -713l450 -735h-270l-324 559l-319 -559h-270z" />
<glyph unicode="Y" horiz-adv-x="1303" d="M55 1448h248l346 -674h4l346 674h248l-481 -887v-561h-229v561z" />
<glyph unicode="Z" horiz-adv-x="1300" d="M76 115l780 1130h-700v203h983v-178l-713 -1041q25 13 60.5 21t80.5 8q48 0 87 -10.5t75.5 -23.5t73.5 -23.5t82 -10.5q51 0 99 32t83 97l150 -120q-19 -50 -46 -91t-66 -70t-91 -45t-121 -16q-67 0 -119.5 13t-99 28t-90.5 28t-92 13q-88 0 -151 -23.5t-108 -68.5z" />
<glyph unicode="[" horiz-adv-x="739" d="M190 -332v1831h463v-160h-262v-1511h262v-160h-463z" />
<glyph unicode="\" horiz-adv-x="1065" d="M41 1647h195l788 -1911h-195z" />
<glyph unicode="]" horiz-adv-x="739" d="M86 -172h262v1511h-262v160h463v-1831h-463v160z" />
<glyph unicode="^" horiz-adv-x="856" d="M53 899l289 580h174l287 -580h-201l-174 373l-174 -373h-201z" />
<glyph unicode="_" horiz-adv-x="907" d="M0 -131h907v-133h-907v133z" />
<glyph unicode="`" horiz-adv-x="498" d="M70 1501h239l119 -303h-123z" />
<glyph unicode="a" horiz-adv-x="1055" d="M84 336q0 90 28 155t76 107.5t113 63t139 20.5q47 0 88.5 -8t76 -21t61 -29t43.5 -32h4v102q0 107 -49.5 164t-151.5 57q-88 0 -156.5 -29.5t-117.5 -72.5l-107 139q82 73 182.5 111.5t212.5 38.5q95 0 170.5 -25.5t128 -76t80 -126t27.5 -174.5v-700h-209l-8 121h-4 q-20 -30 -47 -56.5t-61 -46t-74 -30.5t-87 -11q-74 0 -139.5 23t-114 68t-76.5 112t-28 156zM301 340q0 -50 15 -86t42 -59t63.5 -34t78.5 -11q43 0 80.5 14.5t65.5 41t44.5 64t16.5 82.5q0 34 -16 65.5t-44 55t-65 37.5t-80 14q-91 0 -146 -46.5t-55 -137.5z" />
<glyph unicode="b" horiz-adv-x="1196" d="M133 0v1563l223 -74v-584h4q19 39 52 75t75 63t92.5 43t104.5 16q97 0 175.5 -41t134 -115.5t86 -179t30.5 -231.5q0 -125 -31.5 -228t-88 -176.5t-134.5 -113.5t-170 -40q-60 0 -111 15t-92.5 40.5t-73 59t-51.5 70.5h-10v-162h-215zM358 537q0 -85 20 -154t56 -117.5 t86 -75t111 -26.5q60 0 106.5 27t78.5 76t48.5 117t16.5 151q0 81 -16 150.5t-47.5 120.5t-78.5 80t-108 29t-111 -29t-86 -80t-56 -120t-20 -149z" />
<glyph unicode="c" horiz-adv-x="1012" d="M84 539q0 117 32 219.5t93.5 179t152.5 120.5t209 44q126 0 218.5 -47.5t154.5 -122.5l-125 -135q-46 52 -100.5 81t-134.5 29q-66 0 -117 -27.5t-85.5 -76t-52.5 -116t-18 -148.5t18.5 -148t54 -116t87 -76t117.5 -27q81 0 137 28.5t102 84.5l125 -135 q-31 -38 -69.5 -69.5t-86 -54.5t-102.5 -36t-119 -13q-119 0 -210.5 44t-154 120.5t-94.5 179t-32 218.5z" />
<glyph unicode="d" horiz-adv-x="1196" d="M84 535q0 127 30.5 231.5t86.5 179t135 115.5t176 41q54 0 104.5 -16t92.5 -43t74 -63t51 -75h4v658l223 -74v-1489h-219v162h-4q-20 -37 -51.5 -70.5t-73.5 -59t-93.5 -40.5t-111.5 -15q-92 0 -170 40t-134.5 113.5t-88 176.5t-31.5 228zM313 535q0 -83 17 -151t49 -117 t78.5 -76t105.5 -27q61 0 112 26.5t87 75t56 117.5t20 154q0 80 -20 149t-56 120t-86 80t-111 29t-108 -29t-79 -80t-48.5 -120.5t-16.5 -150.5z" />
<glyph unicode="e" horiz-adv-x="1067" d="M84 539q0 117 30.5 219.5t90 179t147 120.5t201.5 44q109 0 191 -41t137 -119.5t82.5 -193t27.5 -261.5h-684q0 -44 17 -100t52 -106t88.5 -84.5t125.5 -34.5t129.5 32.5t103.5 88.5l121 -133q-31 -38 -69 -69.5t-84 -54.5t-100 -36t-116 -13q-114 0 -204.5 44 t-154.5 120.5t-98 179t-34 218.5zM317 633h453q0 78 -16 133.5t-44.5 91t-66.5 52t-82 16.5q-55 0 -100 -24t-77 -64.5t-49.5 -93.5t-17.5 -111z" />
<glyph unicode="f" horiz-adv-x="729" d="M68 895v182h135v105q0 79 16.5 144t54.5 111t99 71.5t151 25.5q62 0 105.5 -5t72.5 -13v-173q-27 4 -56 6.5t-60 2.5q-51 0 -83 -13t-50 -37.5t-24.5 -59t-6.5 -77.5v-88h246v-182h-246v-1333h-6l-213 73v1260h-135z" />
<glyph unicode="g" horiz-adv-x="1169" d="M84 551q0 57 9.5 120t30.5 123.5t53 115t76.5 96t102.5 66t131 24.5q48 0 95 -12t89.5 -36t79 -59.5t62.5 -83.5h8v172h219v-985q0 -118 -34.5 -209t-97 -152.5t-150.5 -93.5t-195 -32q-68 0 -130 12t-115.5 32t-97.5 47.5t-75 59.5l105 146q59 -53 134 -81t171 -28 q57 0 105.5 17t83.5 54t55 95.5t20 142.5v93h-4q-20 -38 -51 -72t-71.5 -59.5t-89.5 -40.5t-105 -15q-89 0 -164.5 39t-131 110t-87 171.5t-31.5 222.5zM313 551q0 -78 16 -143.5t46.5 -113t75 -73.5t102.5 -26q59 0 108 25.5t83.5 72.5t53.5 112.5t19 145.5q0 77 -19 143.5 t-53.5 115.5t-83.5 77t-108 28t-103.5 -28t-75 -77t-46 -115.5t-15.5 -143.5z" />
<glyph unicode="h" horiz-adv-x="1118" d="M133 0v1563l223 -74v-576h4q21 41 51.5 75.5t70 60t88 39.5t104.5 14q78 0 138 -30t100.5 -86.5t61.5 -137t21 -180.5v-668h-223v637q0 131 -38.5 195.5t-129.5 64.5q-52 0 -97.5 -20.5t-79 -59t-52.5 -94.5t-19 -127v-596h-223z" />
<glyph unicode="i" horiz-adv-x="504" d="M131 1239v236h242v-236h-242zM139 0v1077h223v-1077h-223z" />
<glyph unicode="j" horiz-adv-x="535" d="M-23 -193q31 -6 76 -6q28 0 50 7.5t37.5 25.5t23.5 48t8 75v1120h223v-1124q0 -94 -19 -159.5t-55.5 -106.5t-91 -59.5t-125.5 -18.5q-35 0 -68 3t-59 9v186zM162 1239v236h244v-236h-244z" />
<glyph unicode="k" horiz-adv-x="1065" d="M133 0v1563l223 -74v-891l375 479h258l-356 -450l385 -627h-256l-279 459l-127 -160v-299h-223z" />
<glyph unicode="l" horiz-adv-x="502" d="M139 0v1563l223 -74v-1489h-223z" />
<glyph unicode="m" horiz-adv-x="1655" d="M127 0v1077h223v-164h4q21 41 50 75.5t66 60t80.5 39.5t94.5 14q106 0 168.5 -55.5t87.5 -149.5h4q21 44 54 81.5t74.5 65t90 43t101.5 15.5q75 0 132.5 -27t97 -78.5t59.5 -126t20 -168.5v-702h-223v676q0 51 -7.5 92.5t-25 70.5t-45 44.5t-66.5 15.5q-45 0 -86 -18.5 t-71.5 -53.5t-49 -86.5t-18.5 -117.5v-623h-223v662q0 122 -34 182.5t-120 60.5q-48 0 -88 -21.5t-68 -61.5t-43.5 -95.5t-15.5 -122.5v-604h-223z" />
<glyph unicode="n" horiz-adv-x="1110" d="M127 0v1077h223v-164h4q21 41 51.5 75.5t70 60t88 39.5t104.5 14q78 0 138 -30t100 -86.5t60.5 -137t20.5 -180.5v-668h-223v637q0 136 -38 202t-132 66q-53 0 -97.5 -22t-77 -62t-51 -97.5t-18.5 -127.5v-596h-223z" />
<glyph unicode="o" horiz-adv-x="1139" d="M84 539q0 117 32.5 219.5t95 179t152.5 120.5t205 44t205.5 -44t153 -120.5t95 -179t32.5 -219.5q0 -116 -32.5 -218.5t-95 -179t-153 -120.5t-205.5 -44t-205 44t-152.5 120.5t-95 179t-32.5 218.5zM311 539q0 -81 17.5 -149.5t51 -118.5t81.5 -78.5t108 -28.5 q61 0 109 28.5t81 78.5t50.5 118.5t17.5 149.5t-17.5 149.5t-50.5 119t-81 79t-109 28.5q-60 0 -108 -28.5t-81.5 -79t-51 -119t-17.5 -149.5z" />
<glyph unicode="p" horiz-adv-x="1190" d="M127 -365v1442h223v-172h4q19 39 52 75t75.5 63t92.5 43t104 16q97 0 176.5 -41t135 -115.5t86 -179t30.5 -231.5q0 -125 -32 -228t-89 -176.5t-135 -113.5t-170 -40q-59 0 -110 15t-93 40.5t-73.5 59t-51.5 70.5h-4v-600h-6zM352 537q0 -85 20 -154t56 -117.5t86.5 -75 t112.5 -26.5q59 0 105 27t77.5 76t48 117t16.5 151q0 81 -16 150.5t-47 120.5t-77.5 80t-106.5 29q-62 0 -112.5 -29t-86.5 -80t-56 -120t-20 -149z" />
<glyph unicode="q" horiz-adv-x="1194" d="M84 535q0 127 30.5 231.5t86 179t134.5 115.5t177 41q54 0 104 -16t92 -43t74.5 -63t51.5 -75h10v172h217v-1466l-154 -49l-65 22v578h-4q-20 -37 -51.5 -70.5t-73.5 -59t-93.5 -40.5t-111.5 -15q-92 0 -170 40t-134.5 113.5t-88 176.5t-31.5 228zM313 535q0 -83 17 -151 t49 -117t78.5 -76t105.5 -27q61 0 112 26.5t87 75t56 117.5t20 154q0 80 -20 149t-56.5 120t-87 80t-111.5 29t-107.5 -29t-78 -80t-48 -120.5t-16.5 -150.5z" />
<glyph unicode="r" horiz-adv-x="745" d="M133 0v1069h223v-244h4q16 51 43.5 100t67 87.5t91.5 62t118 23.5h18v-221q-90 0 -155 -30t-106.5 -85.5t-61 -135t-19.5 -177.5v-449h-223z" />
<glyph unicode="s" horiz-adv-x="920" d="M63 133l105 141q52 -53 121.5 -88.5t156.5 -35.5q75 0 120.5 35.5t45.5 113.5q0 45 -22 74t-58 49.5t-81.5 36t-93.5 32.5t-93.5 39.5t-81.5 58t-58 86.5t-22 126q0 71 25 127t71.5 94.5t112.5 59t148 20.5q105 0 198 -31.5t170 -93.5l-100 -141q-54 46 -119 70t-131 24 q-83 0 -119 -32.5t-36 -92.5q0 -40 22 -66t57.5 -45t81.5 -34t93.5 -33t93.5 -41.5t81.5 -60t57.5 -89t22 -127.5q0 -83 -31 -145t-83.5 -103.5t-122.5 -62.5t-148 -21q-121 0 -217.5 42.5t-165.5 113.5z" />
<glyph unicode="t" horiz-adv-x="752" d="M63 895v182h140l45 326h170v-326h256v-182h-256v-567q0 -45 7.5 -76t24.5 -50t43 -27.5t64 -8.5q32 0 65.5 3t65.5 11v-170q-43 -17 -91.5 -23.5t-100.5 -6.5q-81 0 -138 21.5t-92 66t-51 112.5t-16 160v555h-136z" />
<glyph unicode="u" horiz-adv-x="1098" d="M115 393v684h221v-665q0 -115 34 -174.5t117 -59.5q50 0 96.5 20t82.5 59.5t57.5 97.5t21.5 134v588h224v-1077h-224v166h-4q-21 -41 -51.5 -75.5t-69.5 -60t-85 -39.5t-97 -14q-81 0 -141.5 28.5t-101 82t-60.5 130.5t-20 175z" />
<glyph unicode="v" horiz-adv-x="1079" d="M61 1077h234l242 -794h4l243 794h234l-371 -1077h-215z" />
<glyph unicode="w" horiz-adv-x="1556" d="M70 1077h229l166 -768h4l219 768h180l217 -768h7l165 768h228l-287 -1081h-201l-217 766h-4l-217 -766h-201z" />
<glyph unicode="x" horiz-adv-x="1071" d="M66 0l342 545l-328 524h248l209 -360l211 360h241l-327 -522l342 -547h-244l-228 385l-229 -385h-237z" />
<glyph unicode="y" horiz-adv-x="1118" d="M121 426v651h223v-559q0 -76 3 -133t17 -95.5t44 -57.5t84 -19q51 0 96.5 19.5t80 58.5t54.5 96.5t20 132.5v557h224v-985q0 -114 -30.5 -204.5t-88.5 -153.5t-141.5 -96t-188.5 -33q-63 0 -120.5 10t-107.5 27.5t-91 41.5t-72 52l98 147q60 -43 126.5 -66.5t150.5 -23.5 q117 0 180 77t63 232v95h-4q-21 -41 -51 -75.5t-68.5 -60t-84 -39.5t-97.5 -14q-81 0 -140.5 28.5t-99.5 82.5t-59.5 131.5t-19.5 175.5z" />
<glyph unicode="z" horiz-adv-x="1067" d="M74 86l571 811h-510v180h768v-157l-506 -723q13 5 33.5 8.5t46.5 3.5q31 0 57.5 -7.5t52 -16t52.5 -16t61 -7.5q51 0 84 30.5t56 86.5l147 -97q-22 -48 -48 -86t-58 -64.5t-71 -40.5t-87 -14q-54 0 -97 10.5t-83 22.5t-78.5 22.5t-83.5 10.5q-53 0 -92.5 -16.5 t-79.5 -57.5z" />
<glyph unicode="{" horiz-adv-x="739" d="M59 512v145q69 0 113 22t69.5 64t35.5 102t10 136v160q0 100 17.5 182.5t59 142t110 92.5t171.5 33h31v-145q-59 0 -96 -18t-57 -55.5t-27 -95t-7 -136.5v-154q0 -71 -6 -134.5t-25 -115t-55 -90.5t-96 -61v-4q60 -23 96 -61.5t55 -90.5t25 -115t6 -135v-153 q0 -78 7 -136t27 -95.5t57 -56t96 -18.5v-145h-31q-103 0 -171.5 33t-110 92.5t-59 142.5t-17.5 183v159q0 76 -10 136.5t-35.5 102.5t-69.5 64.5t-113 22.5z" />
<glyph unicode="|" horiz-adv-x="446" d="M141 -332v1831h164v-1831h-164z" />
<glyph unicode="}" horiz-adv-x="739" d="M63 -279q59 0 96 18.5t57.5 56t28 95.5t7.5 136v188q0 67 7.5 125t28 105t55.5 82t89 55q-54 23 -89 58.5t-55.5 82t-28 104t-7.5 125.5v189q0 79 -7.5 136.5t-28 95t-57.5 55.5t-96 18v145h31q97 0 165.5 -30.5t111.5 -85.5t62.5 -131t19.5 -166v-197q0 -76 10 -136 t35.5 -102t69.5 -64t112 -22v-145q-68 0 -112 -22.5t-69.5 -64.5t-35.5 -102.5t-10 -136.5v-194q0 -92 -20 -168.5t-63.5 -131.5t-112.5 -85.5t-167 -30.5h-27v145z" />
<glyph unicode="~" horiz-adv-x="770" d="M59 674q14 57 32 101.5t42 75.5t56 47.5t73 16.5q34 0 68 -13t65 -29t57 -29t46 -13t34 7.5t24 21t18 33t16 43.5l119 -33q-13 -58 -30 -103.5t-41 -76.5t-55 -47.5t-73 -16.5q-32 0 -65.5 13t-65 28t-59 28t-46.5 13q-40 0 -59 -27t-35 -75z" />
<glyph unicode="&#xa1;" horiz-adv-x="580" d="M166 803v274h250v-274h-250zM168 -29l55 660h135l56 -660v-342h-246v342z" />
<glyph unicode="&#xa2;" horiz-adv-x="1202" d="M174 539q0 109 30 206.5t87 172.5t140 122.5t190 57.5v200h118v-202q106 -11 189 -56t137 -110l-125 -135q-38 45 -88.5 71.5t-112.5 34.5v-727q63 8 116 35.5t93 77.5l123 -135q-54 -67 -138.5 -113t-193.5 -57v-211h-118v211q-106 10 -189 57.5t-140.5 122t-87.5 171.5 t-30 206zM401 539q0 -69 15 -129t43.5 -106.5t69.5 -78.5t92 -45v717q-52 -13 -92.5 -44.5t-69 -78t-43.5 -106t-15 -129.5z" />
<glyph unicode="&#xa3;" horiz-adv-x="1202" d="M164 668v172h178l45 276q13 82 41 148t73 112.5t108.5 71.5t148.5 25q68 0 125.5 -10.5t111.5 -28.5l-39 -193q-37 14 -75.5 20.5t-89.5 6.5q-45 0 -76 -14t-51 -39t-31.5 -60.5t-18.5 -77.5l-39 -237h316v-172h-344l-76 -465h565v-203h-829l108 668h-151z" />
<glyph unicode="&#xa4;" horiz-adv-x="1098" />
<glyph unicode="&#xa5;" horiz-adv-x="1202" d="M31 1448h248l319 -725h4l322 725h247l-370 -760h211v-141h-281l-16 -35v-88h297v-143h-297v-281h-230v281h-297v143h297v88l-16 35h-281v141h211z" />
<glyph unicode="&#xa6;" horiz-adv-x="446" d="M141 -332v766h164v-766h-164zM141 733v766h164v-766h-164z" />
<glyph unicode="&#xa7;" horiz-adv-x="1202" d="M209 27l113 143q61 -60 132 -90.5t156 -30.5q29 0 54.5 8.5t44.5 25.5t30 42.5t11 60.5q0 42 -21.5 70t-57.5 48.5t-81.5 36.5t-92.5 33.5t-92.5 40.5t-81.5 57t-57.5 82.5t-21.5 117.5q0 41 11.5 80t31.5 72t45.5 59t54.5 41q-24 15 -49.5 36.5t-46.5 51t-34 67 t-13 82.5q0 82 28 141.5t76 97.5t112 56.5t136 18.5q105 0 197 -31t168 -94l-99 -133q-59 40 -123.5 61.5t-138.5 21.5q-72 0 -104.5 -30.5t-32.5 -79.5q0 -44 22 -74.5t57.5 -53.5t81 -41.5t93.5 -38t93.5 -44t81 -59t57.5 -82.5t22 -115q0 -37 -10.5 -73t-29.5 -68.5 t-46 -60t-60 -46.5q28 -15 55 -37t47.5 -51t33 -64.5t12.5 -78.5q0 -86 -29.5 -148.5t-79.5 -104t-115 -61.5t-137 -20q-60 0 -119 11t-112 31t-97 49.5t-75 66.5zM446 680q0 -32 13 -59t35 -47.5t51.5 -32t62.5 -11.5q34 0 63.5 11t51.5 31t34.5 47.5t12.5 60.5 q0 31 -13 58.5t-35 47.5t-51.5 31.5t-62.5 11.5q-34 0 -63.5 -11t-51.5 -31t-34.5 -47.5t-12.5 -59.5z" />
<glyph unicode="&#xa8;" horiz-adv-x="610" d="M33 1210v193h198v-193h-198zM381 1210v193h197v-193h-197z" />
<glyph unicode="&#xa9;" horiz-adv-x="1497" d="M104 725q0 156 49.5 291.5t136.5 236t204.5 158t253.5 57.5q91 0 174 -26t155 -74t130 -115.5t99.5 -150t64 -178t22.5 -199.5t-22.5 -199.5t-64 -178t-99.5 -150t-130 -115.5t-155 -74t-174 -26q-136 0 -253.5 57.5t-204.5 158t-136.5 236t-49.5 291.5zM199 725 q0 -137 42 -256.5t115.5 -208t174 -139.5t217.5 -51t217.5 51t174 139.5t115 208t41.5 256.5t-41.5 256.5t-115 208t-174 139.5t-217.5 51t-217.5 -51t-174 -139.5t-115.5 -208t-42 -256.5zM416 727q0 90 25 167t71.5 133t112.5 88t147 32q94 0 164 -37t117 -96l-90 -99 q-39 50 -80.5 71.5t-100.5 21.5q-48 0 -85.5 -21t-63.5 -58t-39.5 -89t-13.5 -113q0 -62 13.5 -114t39.5 -89.5t63.5 -58.5t85.5 -21q59 0 100.5 21.5t80.5 71.5l90 -99q-47 -59 -117 -96t-166 -37q-81 0 -146.5 32t-111.5 88.5t-71 133.5t-25 168z" />
<glyph unicode="&#xaa;" horiz-adv-x="616" d="M55 1223q0 51 16 90.5t43.5 66.5t64.5 40.5t79 13.5q90 0 141 -56v33q0 56 -24.5 84.5t-77.5 28.5q-45 0 -83 -18.5t-67 -43.5l-69 90q48 44 106 67t121 23q109 0 170.5 -58t61.5 -171v-389h-134q0 14 -1 29.5t-1 29.5q-24 -29 -62 -50t-83 -21q-43 0 -80 14.5t-64 41.5 t-42 66t-15 89zM76 887v65h461v-65h-461zM193 1227q0 -51 27 -78t71 -27q45 0 74.5 29t29.5 76q0 22 -8 41t-21.5 33t-32.5 22t-40 8q-47 0 -73.5 -27.5t-26.5 -76.5z" />
<glyph unicode="&#xab;" horiz-adv-x="995" d="M43 532l262 414h213l-256 -414l256 -413h-213zM436 532l264 414h213l-256 -414l256 -413h-213z" />
<glyph unicode="&#xac;" horiz-adv-x="995" d="M47 549v186h860v-590h-219v404h-641z" />
<glyph unicode="&#xad;" horiz-adv-x="600" d="M55 590v170h492v-170h-492z" />
<glyph unicode="&#xae;" horiz-adv-x="971" d="M68 1032q0 104 32.5 193t89 154t132.5 102t163 37q88 0 164.5 -37t133.5 -102t89.5 -154t32.5 -193t-32.5 -192.5t-89.5 -153.5t-133.5 -102t-164.5 -37q-87 0 -163 37t-132.5 102t-89 153.5t-32.5 192.5zM156 1032q0 -90 24.5 -165t68.5 -129t104.5 -84.5t131.5 -30.5 q72 0 133 30.5t104.5 84.5t68 129t24.5 165t-24.5 165.5t-68 129.5t-104.5 84.5t-133 30.5q-71 0 -131.5 -30.5t-104.5 -84.5t-68.5 -129.5t-24.5 -165.5zM311 768v551h197q39 0 72 -11.5t57 -33t37.5 -53.5t13.5 -72q0 -33 -9.5 -60.5t-25 -48.5t-36.5 -35.5t-44 -21.5 l132 -215h-105l-115 199h-77v-199h-97zM408 1053h94q40 0 65 23t25 71q0 45 -22 64.5t-64 19.5h-98v-178z" />
<glyph unicode="&#xaf;" horiz-adv-x="608" d="M33 1210v136h542v-136h-542z" />
<glyph unicode="&#xb0;" horiz-adv-x="623" d="M66 1253q0 58 18 107t50.5 84.5t77.5 55.5t99 20t99 -20t78 -55.5t51 -84.5t18 -107q0 -57 -18 -106t-51 -84.5t-78 -55.5t-99 -20t-99 20t-77.5 55.5t-50.5 84.5t-18 106zM199 1253q0 -29 8 -54.5t22.5 -44t35 -29.5t46.5 -11q27 0 48 11t35.5 29.5t22 44t7.5 54.5 t-7.5 54.5t-22 44.5t-35.5 30t-48 11q-26 0 -46.5 -11t-35 -30t-22.5 -44.5t-8 -54.5z" />
<glyph unicode="&#xb1;" horiz-adv-x="1010" d="M49 0v129h912v-129h-912zM49 588v174h361v350h192v-350h359v-174h-359v-348h-192v348h-361z" />
<glyph unicode="&#xb2;" horiz-adv-x="647" d="M61 1505q45 73 109.5 110.5t144.5 37.5q59 0 105.5 -16t78 -46t48 -72t16.5 -94q0 -38 -12 -74.5t-33.5 -71.5t-52 -69.5t-66.5 -68.5l-108 -105h282v-137h-507v111l233 229q48 46 74 89t26 85q0 47 -21 73.5t-65 26.5q-45 0 -81 -20.5t-68 -71.5z" />
<glyph unicode="&#xb3;" horiz-adv-x="655" d="M47 1026l103 90q37 -48 76.5 -69t84.5 -21t71 26t26 74q0 53 -25.5 73t-75.5 20h-65v124h65q20 0 36 3.5t27 12.5t17 25.5t6 42.5q0 48 -23 69.5t-63 21.5t-77.5 -19.5t-71.5 -64.5l-101 90q47 68 113.5 98.5t144.5 30.5q48 0 91.5 -14t76.5 -41t52.5 -67t19.5 -93 q0 -56 -25 -93t-59 -57q45 -18 73.5 -60.5t28.5 -107.5q0 -54 -19.5 -97t-54.5 -73t-83 -45.5t-105 -15.5q-86 0 -152.5 34t-111.5 103z" />
<glyph unicode="&#xb4;" horiz-adv-x="498" d="M70 1198l118 303h240l-235 -303h-123z" />
<glyph unicode="&#xb5;" horiz-adv-x="1096" d="M125 -356v1433h223v-588q0 -75 21 -132.5t56 -97t80.5 -59.5t94.5 -20q85 0 121.5 57t36.5 175v665h223v-684q0 -98 -20.5 -175t-61.5 -130.5t-102 -82t-142 -28.5q-51 0 -97 14t-85 39.5t-69.5 60t-51.5 75.5h-4v-522h-223z" />
<glyph unicode="&#xb6;" horiz-adv-x="1120" d="M90 961q0 100 29.5 189t84.5 155t134 104.5t178 38.5h438v-1579h-145v1454h-143v-1454h-156v602q-90 3 -167 37.5t-133 97.5t-88 152.5t-32 202.5z" />
<glyph unicode="&#xb7;" horiz-adv-x="487" d="M119 535v276h250v-276h-250z" />
<glyph unicode="&#xb8;" horiz-adv-x="354" d="M41 -80q19 3 36 3.5t34 0.5q99 0 150.5 -44.5t51.5 -125.5q0 -49 -19 -88t-54 -66.5t-85.5 -42t-113.5 -14.5v95q54 5 90.5 33t36.5 77q0 45 -29 63.5t-80 18.5h-18v90z" />
<glyph unicode="&#xb9;" horiz-adv-x="457" d="M23 1571l188 74h123v-746h-160v586l-117 -25z" />
<glyph unicode="&#xba;" horiz-adv-x="672" d="M61 1327q0 65 18.5 122.5t53.5 100t86.5 67.5t116.5 25q64 0 114.5 -25t86 -67.5t54.5 -100t19 -122.5t-19 -122.5t-54.5 -100.5t-86 -67.5t-114.5 -24.5q-65 0 -116.5 24.5t-86.5 67.5t-53.5 100.5t-18.5 122.5zM102 887v65h467v-65h-467zM203 1327q0 -41 9 -77 t26.5 -62.5t42 -42t55.5 -15.5t55 15.5t41 42t26 62.5t9 77q0 42 -9 77.5t-26 61.5t-41 41t-55 15t-55.5 -15t-42 -41t-26.5 -61.5t-9 -77.5z" />
<glyph unicode="&#xbb;" horiz-adv-x="995" d="M82 119l256 413l-256 414h213l264 -414l-264 -413h-213zM475 119l256 413l-256 414h215l262 -414l-262 -413h-215z" />
<glyph unicode="&#xbc;" horiz-adv-x="1542" d="M111 1372l188 76h121v-746h-158v586l-119 -26zM248 0l860 1448h170l-860 -1448h-170zM834 254l374 491h129v-458h90v-131h-90v-156h-155v156h-316zM1012 289h170v229z" />
<glyph unicode="&#xbd;" horiz-adv-x="1542" d="M111 1372l188 76h121v-746h-158v586l-119 -26zM207 0l860 1448h170l-860 -1448h-170zM901 606q43 72 107.5 110t144.5 38q59 0 105.5 -16t78 -46t48 -72t16.5 -94q0 -75 -45 -145t-117 -139l-111 -105h285v-137h-510v111l234 229q48 46 75 89t27 85q0 46 -22.5 73 t-65.5 27t-80.5 -20.5t-69.5 -71.5z" />
<glyph unicode="&#xbe;" horiz-adv-x="1542" d="M84 842l102 90q38 -48 77.5 -70t84.5 -22q44 0 70 27t26 75q0 51 -25 71.5t-75 20.5h-65v123h65q38 0 62 17t24 69q0 47 -23 67.5t-65 20.5q-38 0 -76.5 -18.5t-72.5 -63.5l-99 90q47 66 113.5 97.5t144.5 31.5q48 0 91.5 -13.5t76 -40.5t51.5 -67.5t19 -93.5 q0 -55 -24.5 -92t-59.5 -57q46 -19 74 -62t28 -106q0 -56 -19.5 -99t-54.5 -72t-83 -44.5t-105 -15.5q-85 0 -151 34t-111 103zM297 0l860 1448h170l-858 -1448h-172zM834 254l374 491h129v-458h90v-131h-90v-156h-155v156h-316zM1012 289h170v229z" />
<glyph unicode="&#xbf;" horiz-adv-x="1016" d="M96 8q0 89 30 160.5t79 124.5t111.5 89t127.5 54l19 195h170l24 -326q-68 -4 -126.5 -22.5t-102.5 -53t-69 -85.5t-25 -121q0 -53 16 -92.5t44 -65.5t66 -38.5t81 -12.5q96 0 170.5 38.5t136.5 116.5l141 -133q-87 -114 -202 -172.5t-265 -58.5q-86 0 -163 25.5 t-135.5 76t-93 126t-34.5 175.5zM420 803v274h250v-274h-250z" />
<glyph unicode="&#xc0;" horiz-adv-x="1409" d="M66 0l532 1456h213l532 -1456h-243l-115 336h-561l-113 -336h-245zM435 1851h239l119 -303h-123zM500 535h409l-202 626h-5z" />
<glyph unicode="&#xc1;" horiz-adv-x="1409" d="M66 0l532 1456h213l532 -1456h-243l-115 336h-561l-113 -336h-245zM500 535h409l-202 626h-5zM616 1548l119 303h240l-236 -303h-123z" />
<glyph unicode="&#xc2;" horiz-adv-x="1409" d="M66 0l532 1456h213l532 -1456h-243l-115 336h-561l-113 -336h-245zM406 1548l225 287h148l225 -287h-123l-176 133l-176 -133h-123zM500 535h409l-202 626h-5z" />
<glyph unicode="&#xc3;" horiz-adv-x="1409" d="M66 0l532 1456h213l532 -1456h-243l-115 336h-561l-113 -336h-245zM391 1573q25 109 66.5 158t115.5 49q34 0 68.5 -12.5t67 -27.5t60 -27.5t48.5 -12.5q35 0 53 21.5t33 64.5l115 -35q-25 -107 -66.5 -157t-113.5 -50q-35 0 -69.5 13t-67 28t-60.5 28t-49 13 q-34 0 -52.5 -22.5t-33.5 -65.5zM500 535h409l-202 626h-5z" />
<glyph unicode="&#xc4;" horiz-adv-x="1409" d="M66 0l532 1456h213l532 -1456h-243l-115 336h-561l-113 -336h-245zM432 1560v193h198v-193h-198zM500 535h409l-202 626h-5zM780 1560v193h197v-193h-197z" />
<glyph unicode="&#xc5;" horiz-adv-x="1409" d="M66 0l532 1456h213l532 -1456h-243l-115 336h-561l-113 -336h-245zM500 535h409l-202 626h-5zM504 1573q0 46 14.5 85t40.5 67t63.5 43.5t82.5 15.5q46 0 83 -15.5t63.5 -43.5t41 -67t14.5 -85t-14.5 -84.5t-41 -66t-63.5 -43t-83 -15.5q-45 0 -82.5 15.5t-63.5 43 t-40.5 66t-14.5 84.5zM612 1573q0 -56 26 -85.5t67 -29.5q42 0 67 29.5t25 85.5t-25 85.5t-67 29.5q-41 0 -67 -29.5t-26 -85.5z" />
<glyph unicode="&#xc6;" horiz-adv-x="1874" d="M18 0l785 1448h946v-205h-608v-395h551v-205h-551v-438h624v-205h-852v336h-479l-174 -336h-242zM543 535h370v708h-8z" />
<glyph unicode="&#xc7;" horiz-adv-x="1321" d="M100 727q0 163 44.5 300.5t128.5 237t204 155t271 55.5q83 0 153 -15t129.5 -42.5t108.5 -66.5t90 -87l-135 -152q-38 41 -76 70.5t-79 48.5t-86 28t-97 9q-102 0 -180 -39t-131 -110t-80 -171t-27 -221q0 -122 28 -222t82 -171t133 -110.5t181 -39.5q107 0 189 37 t157 119l135 -150q-41 -49 -91.5 -88.5t-111 -67t-131.5 -42.5t-155 -15q-151 0 -272 55.5t-206 155t-130.5 237.5t-45.5 302zM614 -80q19 3 36 3.5t34 0.5q99 0 150.5 -44.5t51.5 -125.5q0 -49 -19 -88t-54 -66.5t-85.5 -42t-113.5 -14.5v95q54 5 90.5 33t36.5 77 q0 45 -29 63.5t-80 18.5h-18v90z" />
<glyph unicode="&#xc8;" horiz-adv-x="1186" d="M150 0v1448h909v-205h-682v-395h627v-205h-627v-438h700v-205h-927zM394 1851h239l119 -303h-123z" />
<glyph unicode="&#xc9;" horiz-adv-x="1186" d="M150 0v1448h909v-205h-682v-395h627v-205h-627v-438h700v-205h-927zM518 1548l119 303h240l-236 -303h-123z" />
<glyph unicode="&#xca;" horiz-adv-x="1186" d="M150 0v1448h909v-205h-682v-395h627v-205h-627v-438h700v-205h-927zM314 1548l225 287h148l225 -287h-123l-176 133l-176 -133h-123z" />
<glyph unicode="&#xcb;" horiz-adv-x="1186" d="M150 0v1448h909v-205h-682v-395h627v-205h-627v-438h700v-205h-927zM340 1561v192h199v-192h-199zM688 1561v192h197v-192h-197z" />
<glyph unicode="&#xcc;" horiz-adv-x="553" d="M16 1851h239l119 -303h-123zM162 0v1448h229v-1448h-229z" />
<glyph unicode="&#xcd;" horiz-adv-x="553" d="M162 0v1448h229v-1448h-229zM178 1548l119 303h240l-236 -303h-123z" />
<glyph unicode="&#xce;" horiz-adv-x="553" d="M-21 1548l225 287h148l225 -287h-123l-176 133l-176 -133h-123zM162 0v1448h229v-1448h-229z" />
<glyph unicode="&#xcf;" horiz-adv-x="553" d="M4 1561v192h158l41 -192h-199zM162 0v1448h229v-1448h-229zM352 1561v192h197v-192h-197z" />
<glyph unicode="&#xd0;" horiz-adv-x="1366" d="M29 666v153h121v629h434q123 0 221 -28t173.5 -77.5t129.5 -117.5t88.5 -148t51 -168.5t16.5 -179.5q0 -164 -46.5 -298.5t-135 -230t-216 -148t-288.5 -52.5h-428v666h-121zM379 207h199q126 0 211 44.5t136.5 117.5t74 167t22.5 193q0 111 -25.5 204.5t-79 162 t-136.5 107t-197 38.5h-205v-422h258v-153h-258v-459z" />
<glyph unicode="&#xd1;" horiz-adv-x="1384" d="M150 0v1448h208l652 -1067v1067h225v-1448h-207l-651 1065v-1065h-227zM379 1573q25 109 66.5 158t115.5 49q34 0 68.5 -12.5t66.5 -27.5t60 -27.5t49 -12.5q35 0 52.5 21t33.5 65l114 -35q-24 -108 -66 -157.5t-114 -49.5q-35 0 -69.5 13t-66.5 28t-60 28t-50 13 q-34 0 -52 -22.5t-34 -65.5z" />
<glyph unicode="&#xd2;" horiz-adv-x="1487" d="M100 727q0 163 46.5 300.5t131.5 237t203 155t262 55.5t262 -55.5t203 -155t131.5 -237t46.5 -300.5q0 -164 -46.5 -302t-131.5 -237.5t-203 -155t-262 -55.5t-262 55.5t-203 155t-131.5 237.5t-46.5 302zM338 727q0 -122 28.5 -223t81.5 -174t127.5 -113.5t167.5 -40.5 t168 40.5t128 113.5t81.5 174t28.5 223q0 121 -28.5 222t-81.5 173t-128 112t-168 40t-167.5 -40t-127.5 -112t-81.5 -173t-28.5 -222zM500 1861h239l119 -303h-123z" />
<glyph unicode="&#xd3;" horiz-adv-x="1487" d="M100 727q0 163 46.5 300.5t131.5 237t203 155t262 55.5t262 -55.5t203 -155t131.5 -237t46.5 -300.5q0 -164 -46.5 -302t-131.5 -237.5t-203 -155t-262 -55.5t-262 55.5t-203 155t-131.5 237.5t-46.5 302zM338 727q0 -122 28.5 -223t81.5 -174t127.5 -113.5t167.5 -40.5 t168 40.5t128 113.5t81.5 174t28.5 223q0 121 -28.5 222t-81.5 173t-128 112t-168 40t-167.5 -40t-127.5 -112t-81.5 -173t-28.5 -222zM629 1559l119 303h239l-235 -303h-123z" />
<glyph unicode="&#xd4;" horiz-adv-x="1487" d="M100 727q0 163 46.5 300.5t131.5 237t203 155t262 55.5t262 -55.5t203 -155t131.5 -237t46.5 -300.5q0 -164 -46.5 -302t-131.5 -237.5t-203 -155t-262 -55.5t-262 55.5t-203 155t-131.5 237.5t-46.5 302zM338 727q0 -122 28.5 -223t81.5 -174t127.5 -113.5t167.5 -40.5 t168 40.5t128 113.5t81.5 174t28.5 223q0 121 -28.5 222t-81.5 173t-128 112t-168 40t-167.5 -40t-127.5 -112t-81.5 -173t-28.5 -222zM445 1548l225 287h148l225 -287h-123l-176 133l-176 -133h-123z" />
<glyph unicode="&#xd5;" horiz-adv-x="1487" d="M100 727q0 163 46.5 300.5t131.5 237t203 155t262 55.5t262 -55.5t203 -155t131.5 -237t46.5 -300.5q0 -164 -46.5 -302t-131.5 -237.5t-203 -155t-262 -55.5t-262 55.5t-203 155t-131.5 237.5t-46.5 302zM338 727q0 -122 28.5 -223t81.5 -174t127.5 -113.5t167.5 -40.5 t168 40.5t128 113.5t81.5 174t28.5 223q0 121 -28.5 222t-81.5 173t-128 112t-168 40t-167.5 -40t-127.5 -112t-81.5 -173t-28.5 -222zM430 1573q25 109 66.5 158t115.5 49q34 0 68.5 -12.5t66.5 -27.5t60 -27.5t49 -12.5q35 0 53 21.5t33 64.5l115 -35q-25 -107 -66.5 -157 t-113.5 -50q-35 0 -69.5 13t-67 28t-60.5 28t-49 13q-34 0 -52.5 -22.5t-33.5 -65.5z" />
<glyph unicode="&#xd6;" horiz-adv-x="1487" d="M100 727q0 163 46.5 300.5t131.5 237t203 155t262 55.5t262 -55.5t203 -155t131.5 -237t46.5 -300.5q0 -164 -46.5 -302t-131.5 -237.5t-203 -155t-262 -55.5t-262 55.5t-203 155t-131.5 237.5t-46.5 302zM338 727q0 -122 28.5 -223t81.5 -174t127.5 -113.5t167.5 -40.5 t168 40.5t128 113.5t81.5 174t28.5 223q0 121 -28.5 222t-81.5 173t-128 112t-168 40t-167.5 -40t-127.5 -112t-81.5 -173t-28.5 -222zM471 1560v193h198v-193h-198zM819 1560v193h197v-193h-197z" />
<glyph unicode="&#xd7;" horiz-adv-x="1010" d="M74 918l137 137l295 -295l295 295l135 -137l-295 -295l295 -293l-137 -137l-293 292l-295 -292l-135 137l293 293z" />
<glyph unicode="&#xd8;" horiz-adv-x="1487" d="M100 727q0 163 46.5 300.5t131.5 237t203 155t262 55.5q73 0 137.5 -15t123.5 -43l73 162h131l-100 -221q65 -48 116.5 -114t87.5 -146t55 -173.5t19 -197.5q0 -164 -46.5 -302t-131.5 -237.5t-203 -155t-262 -55.5q-61 0 -118.5 11.5t-110.5 29.5l-68 -149h-131l93 205 q-72 47 -129 113.5t-96.5 150t-61 181.5t-21.5 208zM338 727q0 -147 41 -263.5t117 -189.5l426 955q-41 23 -84.5 34t-94.5 11q-93 0 -167.5 -40t-127.5 -112t-81.5 -173t-28.5 -222zM596 205q69 -29 147 -29q93 0 168 40.5t128 113.5t81.5 174t28.5 223q0 133 -34 241.5 t-99 180.5z" />
<glyph unicode="&#xd9;" horiz-adv-x="1348" d="M141 559v889h230v-870q0 -93 16.5 -166t52.5 -124t93.5 -77.5t140.5 -26.5t140.5 26.5t93.5 77.5t52.5 124t16.5 166v870h229v-889q0 -133 -33 -240.5t-99 -183.5t-166 -117t-234 -41q-135 0 -235 41t-166 117t-99 183.5t-33 240.5zM422 1851h239l119 -303h-123z" />
<glyph unicode="&#xda;" horiz-adv-x="1348" d="M141 559v889h230v-870q0 -93 16.5 -166t52.5 -124t93.5 -77.5t140.5 -26.5t140.5 26.5t93.5 77.5t52.5 124t16.5 166v870h229v-889q0 -133 -33 -240.5t-99 -183.5t-166 -117t-234 -41q-135 0 -235 41t-166 117t-99 183.5t-33 240.5zM567 1548l119 303h240l-236 -303h-123 z" />
<glyph unicode="&#xdb;" horiz-adv-x="1348" d="M141 559v889h230v-870q0 -93 16.5 -166t52.5 -124t93.5 -77.5t140.5 -26.5t140.5 26.5t93.5 77.5t52.5 124t16.5 166v870h229v-889q0 -133 -33 -240.5t-99 -183.5t-166 -117t-234 -41q-135 0 -235 41t-166 117t-99 183.5t-33 240.5zM375 1548l225 287h148l225 -287h-123 l-176 133l-176 -133h-123z" />
<glyph unicode="&#xdc;" horiz-adv-x="1348" d="M141 559v889h230v-870q0 -93 16.5 -166t52.5 -124t93.5 -77.5t140.5 -26.5t140.5 26.5t93.5 77.5t52.5 124t16.5 166v870h229v-889q0 -133 -33 -240.5t-99 -183.5t-166 -117t-234 -41q-135 0 -235 41t-166 117t-99 183.5t-33 240.5zM401 1561v192h199v-192h-199z M750 1561v192h196v-192h-196z" />
<glyph unicode="&#xdd;" horiz-adv-x="1303" d="M55 1448h248l346 -674h4l346 674h248l-481 -887v-561h-229v561zM566 1548l118 303h240l-235 -303h-123z" />
<glyph unicode="&#xde;" horiz-adv-x="1198" d="M150 0v1448h229v-217h242q118 0 208 -31t150.5 -87.5t91.5 -135.5t31 -176q0 -102 -33.5 -184t-96.5 -139.5t-154.5 -88.5t-207.5 -31h-231v-358h-229zM379 563h235q119 0 186.5 61t67.5 173q0 64 -17.5 107.5t-50.5 70t-81 38t-109 11.5h-231v-461z" />
<glyph unicode="&#xdf;" horiz-adv-x="1149" d="M125 0v1057q0 110 29.5 198t85 150t134.5 95.5t177 33.5q84 0 156.5 -26.5t126.5 -76.5t85 -121.5t31 -162.5q0 -51 -13 -97t-35.5 -84t-54 -68t-67.5 -50q57 -19 108.5 -53.5t90 -85.5t61.5 -118t23 -151q0 -108 -26.5 -194t-76.5 -146.5t-124 -92.5t-168 -32 q-47 0 -104.5 7.5t-114.5 31.5l40 168q31 -12 65.5 -18t68.5 -6q42 0 81 15.5t68.5 49t47.5 85.5t18 126q0 156 -88 235t-252 81v161q64 3 107.5 21.5t70.5 49.5t39 75t12 98q0 44 -12.5 80t-36 61.5t-57 39.5t-74.5 14q-110 0 -157.5 -68t-47.5 -209v-1073h-217z" />
<glyph unicode="&#xe0;" horiz-adv-x="1055" d="M84 336q0 90 28 155t76 107.5t113 63t139 20.5q47 0 88.5 -8t76 -21t61 -29t43.5 -32h4v102q0 107 -49.5 164t-151.5 57q-88 0 -156.5 -29.5t-117.5 -72.5l-107 139q82 73 182.5 111.5t212.5 38.5q95 0 170.5 -25.5t128 -76t80 -126t27.5 -174.5v-700h-209l-8 121h-4 q-20 -30 -47 -56.5t-61 -46t-74 -30.5t-87 -11q-74 0 -139.5 23t-114 68t-76.5 112t-28 156zM301 340q0 -50 15 -86t42 -59t63.5 -34t78.5 -11q43 0 80.5 14.5t65.5 41t44.5 64t16.5 82.5q0 34 -16 65.5t-44 55t-65 37.5t-80 14q-91 0 -146 -46.5t-55 -137.5zM324 1501h239 l119 -303h-123z" />
<glyph unicode="&#xe1;" horiz-adv-x="1055" d="M84 348q0 90 28 159.5t76 117t113 72t139 24.5q94 0 160.5 -35t108.5 -94h4v102q0 107 -49.5 164t-151.5 57q-88 0 -156.5 -29.5t-117.5 -72.5l-107 139q82 73 182.5 111.5t212.5 38.5q95 0 170.5 -25.5t128 -76t80 -126t27.5 -174.5v-700h-209l-8 121h-4 q-20 -30 -47 -56.5t-61 -46t-74 -30.5t-87 -11q-74 0 -139.5 25t-114 72.5t-76.5 116.5t-28 157zM301 352q0 -50 15 -87.5t42 -63t63.5 -38.5t78.5 -13q43 0 80.5 14.5t65.5 41t44.5 64t16.5 82.5q0 47 -16 86t-44 66.5t-65 43t-80 15.5q-91 0 -146 -55.5t-55 -155.5z M371 1198l118 303h240l-235 -303h-123z" />
<glyph unicode="&#xe2;" horiz-adv-x="1055" d="M84 336q0 90 28 155t76 107.5t113 63t139 20.5q47 0 88.5 -8t76 -21t61 -29t43.5 -32h4v102q0 107 -49.5 164t-151.5 57q-88 0 -156.5 -29.5t-117.5 -72.5l-107 139q82 73 182.5 111.5t212.5 38.5q95 0 170.5 -25.5t128 -76t80 -126t27.5 -174.5v-700h-209l-8 121h-4 q-20 -30 -47 -56.5t-61 -46t-74 -30.5t-87 -11q-74 0 -139.5 23t-114 68t-76.5 112t-28 156zM228 1198l225 287h148l225 -287h-123l-176 133l-176 -133h-123zM301 340q0 -50 15 -86t42 -59t63.5 -34t78.5 -11q43 0 80.5 14.5t65.5 41t44.5 64t16.5 82.5q0 34 -16 65.5 t-44 55t-65 37.5t-80 14q-91 0 -146 -46.5t-55 -137.5z" />
<glyph unicode="&#xe3;" horiz-adv-x="1055" d="M84 348q0 90 28 159.5t76 117t113 72t139 24.5q94 0 160.5 -35t108.5 -94h4v102q0 107 -49.5 164t-151.5 57q-88 0 -156.5 -29.5t-117.5 -72.5l-107 139q82 73 182.5 111.5t212.5 38.5q95 0 170.5 -25.5t128 -76t80 -126t27.5 -174.5v-700h-209l-8 121h-4 q-20 -30 -47 -56.5t-61 -46t-74 -30.5t-87 -11q-74 0 -139.5 25t-114 72.5t-76.5 116.5t-28 157zM213 1223q25 109 66.5 158t115.5 49q34 0 68.5 -12.5t66.5 -27.5t60 -27.5t49 -12.5q35 0 53 21t33 65l115 -35q-25 -108 -66.5 -157.5t-114.5 -49.5q-35 0 -69.5 13t-66.5 28 t-60 28t-49 13q-34 0 -52.5 -22.5t-33.5 -65.5zM301 352q0 -50 15 -87.5t42 -63t63.5 -38.5t78.5 -13q43 0 80.5 14.5t65.5 41t44.5 64t16.5 82.5q0 47 -16 86t-44 66.5t-65 43t-80 15.5q-91 0 -146 -55.5t-55 -155.5z" />
<glyph unicode="&#xe4;" horiz-adv-x="1055" d="M84 336q0 90 28 155t76 107.5t113 63t139 20.5q47 0 88.5 -8t76 -21t61 -29t43.5 -32h4v102q0 107 -49.5 164t-151.5 57q-88 0 -156.5 -29.5t-117.5 -72.5l-107 139q82 73 182.5 111.5t212.5 38.5q95 0 170.5 -25.5t128 -76t80 -126t27.5 -174.5v-700h-209l-8 121h-4 q-20 -30 -47 -56.5t-61 -46t-74 -30.5t-87 -11q-74 0 -139.5 23t-114 68t-76.5 112t-28 156zM254 1210v193h198v-193h-198zM301 340q0 -50 15 -86t42 -59t63.5 -34t78.5 -11q43 0 80.5 14.5t65.5 41t44.5 64t16.5 82.5q0 34 -16 65.5t-44 55t-65 37.5t-80 14 q-91 0 -146 -46.5t-55 -137.5zM602 1210v193h197v-193h-197z" />
<glyph unicode="&#xe5;" horiz-adv-x="1055" d="M84 348q0 90 28 159.5t76 117t113 72t139 24.5q94 0 160.5 -35t108.5 -94h4v102q0 107 -49.5 164t-151.5 57q-88 0 -156.5 -29.5t-117.5 -72.5l-107 139q82 73 182.5 111.5t212.5 38.5q95 0 170.5 -25.5t128 -76t80 -126t27.5 -174.5v-700h-209l-8 121h-4 q-20 -30 -47 -56.5t-61 -46t-74 -30.5t-87 -11q-74 0 -139.5 25t-114 72.5t-76.5 116.5t-28 157zM301 352q0 -50 15 -87.5t42 -63t63.5 -38.5t78.5 -13q43 0 80.5 14.5t65.5 41t44.5 64t16.5 82.5q0 47 -16 86t-44 66.5t-65 43t-80 15.5q-91 0 -146 -55.5t-55 -155.5z M326 1393q0 46 14.5 85t40.5 67t63 43.5t82 15.5q46 0 83.5 -15.5t64 -43.5t41 -67t14.5 -85t-14.5 -84.5t-41 -66t-64 -43t-83.5 -15.5q-45 0 -82 15.5t-63 43t-40.5 66t-14.5 84.5zM434 1393q0 -56 26 -85.5t66 -29.5q42 0 67 29.5t25 85.5q0 55 -25 84.5t-67 29.5 q-40 0 -66 -29.5t-26 -84.5z" />
<glyph unicode="&#xe6;" horiz-adv-x="1671" d="M84 348q0 90 28 159.5t76 117t113 72t139 24.5q94 0 160.5 -35t108.5 -94h4v102q0 107 -49.5 164t-151.5 57q-88 0 -156.5 -29.5t-117.5 -72.5l-107 139q82 73 182.5 111.5t212.5 38.5q118 0 198 -47t118 -133q23 40 57.5 73t77.5 57t93 37t104 13q110 0 188.5 -42.5 t128.5 -115.5t73.5 -171.5t24.5 -209.5h-669q0 -86 18 -159.5t53 -127t87 -84t120 -30.5q72 0 127.5 32.5t101.5 88.5l121 -133q-31 -38 -68 -69.5t-82 -54.5t-98 -36t-116 -13q-131 0 -225.5 56.5t-147.5 156.5q-28 -58 -67.5 -98.5t-87 -66t-102 -37t-112.5 -11.5 q-74 0 -139.5 25t-114 72.5t-76.5 116.5t-28 157zM301 352q0 -50 15 -87.5t42 -63t63.5 -38.5t78.5 -13q43 0 80.5 14.5t65.5 41t44.5 64t16.5 82.5q0 47 -16 86t-44 66.5t-65 43t-80 15.5q-91 0 -146 -55.5t-55 -155.5zM938 709h426q-6 102 -58 159.5t-132 57.5 q-90 0 -150 -57.5t-86 -159.5z" />
<glyph unicode="&#xe7;" horiz-adv-x="1012" d="M84 539q0 117 32 219.5t93.5 179t152.5 120.5t209 44q126 0 218.5 -47.5t154.5 -122.5l-125 -135q-46 52 -100.5 81t-134.5 29q-66 0 -117 -27.5t-85.5 -76t-52.5 -116t-18 -148.5t18.5 -148t54 -116t87 -76t117.5 -27q81 0 137 28.5t102 84.5l125 -135 q-31 -38 -69.5 -69.5t-86 -54.5t-102.5 -36t-119 -13q-119 0 -210.5 44t-154 120.5t-94.5 179t-32 218.5zM420 -80q19 3 36 3.5t34 0.5q99 0 150.5 -44.5t51.5 -125.5q0 -49 -19 -88t-54 -66.5t-85.5 -42t-113.5 -14.5v95q54 5 90.5 33t36.5 77q0 45 -29 63.5t-80 18.5h-18 v90z" />
<glyph unicode="&#xe8;" horiz-adv-x="1081" d="M84 539q0 117 30.5 219.5t90 179t147 120.5t201.5 44q111 0 192.5 -42.5t134.5 -115.5t78.5 -171.5t26.5 -209.5h-678q-2 -6 -2 -13v-15q0 -81 21 -149.5t58.5 -118t90 -77.5t115.5 -28q72 0 129.5 32.5t103.5 88.5l121 -133q-31 -38 -69 -69.5t-84 -54.5t-100 -36 t-116 -13q-114 0 -204.5 44t-154.5 120.5t-98 179t-34 218.5zM326 709h434q-3 51 -19.5 91t-43 68t-61.5 43t-75 15q-90 0 -149.5 -57.5t-85.5 -159.5zM338 1501h240l118 -303h-123z" />
<glyph unicode="&#xe9;" horiz-adv-x="1081" d="M84 539q0 117 30.5 219.5t90 179t147 120.5t201.5 44q111 0 192.5 -42.5t134.5 -115.5t78.5 -171.5t26.5 -209.5h-678q-2 -6 -2 -13v-15q0 -81 21 -149.5t58.5 -118t90 -77.5t115.5 -28q72 0 129.5 32.5t103.5 88.5l121 -133q-31 -38 -69 -69.5t-84 -54.5t-100 -36 t-116 -13q-114 0 -204.5 44t-154.5 120.5t-98 179t-34 218.5zM326 709h434q-3 51 -19.5 91t-43 68t-61.5 43t-75 15q-90 0 -149.5 -57.5t-85.5 -159.5zM385 1198l119 303h239l-235 -303h-123z" />
<glyph unicode="&#xea;" horiz-adv-x="1081" d="M84 539q0 117 30.5 219.5t90 179t147 120.5t201.5 44q111 0 192.5 -42.5t134.5 -115.5t78.5 -171.5t26.5 -209.5h-678q-2 -6 -2 -13v-15q0 -81 21 -149.5t58.5 -118t90 -77.5t115.5 -28q72 0 129.5 32.5t103.5 88.5l121 -133q-31 -38 -69 -69.5t-84 -54.5t-100 -36 t-116 -13q-114 0 -204.5 44t-154.5 120.5t-98 179t-34 218.5zM242 1198l225 287h147l226 -287h-123l-176 133l-176 -133h-123zM326 709h434q-3 51 -19.5 91t-43 68t-61.5 43t-75 15q-90 0 -149.5 -57.5t-85.5 -159.5z" />
<glyph unicode="&#xeb;" horiz-adv-x="1081" d="M84 539q0 117 30.5 219.5t90 179t147 120.5t201.5 44q111 0 192.5 -42.5t134.5 -115.5t78.5 -171.5t26.5 -209.5h-678q-2 -6 -2 -13v-15q0 -81 21 -149.5t58.5 -118t90 -77.5t115.5 -28q72 0 129.5 32.5t103.5 88.5l121 -133q-31 -38 -69 -69.5t-84 -54.5t-100 -36 t-116 -13q-114 0 -204.5 44t-154.5 120.5t-98 179t-34 218.5zM268 1210v193h199v-193h-199zM326 709h434q-3 51 -19.5 91t-43 68t-61.5 43t-75 15q-90 0 -149.5 -57.5t-85.5 -159.5zM616 1210v193h197v-193h-197z" />
<glyph unicode="&#xec;" horiz-adv-x="504" d="M37 1501h239l119 -303h-123zM139 0v1077h223v-1077h-223z" />
<glyph unicode="&#xed;" horiz-adv-x="504" d="M106 1198l119 303h240l-236 -303h-123zM139 0v1077h223v-1077h-223z" />
<glyph unicode="&#xee;" horiz-adv-x="504" d="M-47 1198l225 287h148l225 -287h-123l-176 133l-176 -133h-123zM139 0v1077h223v-1077h-223z" />
<glyph unicode="&#xef;" horiz-adv-x="504" d="M-20 1210v193h198v-193h-198zM139 0v1077h223v-1077h-223zM328 1210v193h196v-193h-196z" />
<glyph unicode="&#xf0;" horiz-adv-x="1096" d="M86 541q0 132 34.5 234.5t94.5 172t141 106t174 36.5q70 0 130.5 -29t97.5 -76q2 0 2 1t2 1q-19 65 -53.5 128.5t-79.5 123.5l-168 -78l-45 107l133 61q-31 34 -66.5 62.5t-70.5 54.5l88 121q60 -37 110 -79t92 -87l179 84l47 -109l-148 -69q56 -78 99 -164t71.5 -173.5 t43 -175t14.5 -169.5q0 -138 -28.5 -256.5t-85.5 -205.5t-143.5 -136.5t-203.5 -49.5q-99 0 -183.5 40t-146 113.5t-96.5 178t-35 232.5zM315 543q0 -76 15 -144t44 -119t72.5 -80.5t100.5 -29.5q53 0 95.5 27.5t72 77t45.5 118t16 150.5q0 76 -15.5 140.5t-45 111.5 t-72 73.5t-96.5 26.5q-55 0 -98 -25t-73 -70.5t-45.5 -110.5t-15.5 -146z" />
<glyph unicode="&#xf1;" horiz-adv-x="1110" d="M127 0v1077h223v-164h4q21 41 51.5 75.5t70 60t88 39.5t104.5 14q78 0 138 -30t100 -86.5t60.5 -137t20.5 -180.5v-668h-223v637q0 136 -38 202t-132 66q-53 0 -97.5 -22t-77 -62t-51 -97.5t-18.5 -127.5v-596h-223zM242 1223q25 109 66.5 158t115.5 49q34 0 68.5 -12.5 t66.5 -27.5t60 -27.5t49 -12.5q35 0 52.5 21t33.5 65l114 -35q-24 -108 -66 -157.5t-114 -49.5q-35 0 -69.5 13t-66.5 28t-60 28t-50 13q-34 0 -52 -22.5t-34 -65.5z" />
<glyph unicode="&#xf2;" horiz-adv-x="1139" d="M84 539q0 117 32.5 219.5t95 179t152.5 120.5t205 44t205.5 -44t153 -120.5t95 -179t32.5 -219.5q0 -116 -32.5 -218.5t-95 -179t-153 -120.5t-205.5 -44t-205 44t-152.5 120.5t-95 179t-32.5 218.5zM311 539q0 -81 17.5 -149.5t51 -118.5t81.5 -78.5t108 -28.5 q61 0 109 28.5t81 78.5t50.5 118.5t17.5 149.5t-17.5 149.5t-50.5 119t-81 79t-109 28.5q-60 0 -108 -28.5t-81.5 -79t-51 -119t-17.5 -149.5zM357 1501h239l119 -303h-123z" />
<glyph unicode="&#xf3;" horiz-adv-x="1139" d="M84 539q0 117 32.5 219.5t95 179t152.5 120.5t205 44t205.5 -44t153 -120.5t95 -179t32.5 -219.5q0 -116 -32.5 -218.5t-95 -179t-153 -120.5t-205.5 -44t-205 44t-152.5 120.5t-95 179t-32.5 218.5zM311 539q0 -81 17.5 -149.5t51 -118.5t81.5 -78.5t108 -28.5 q61 0 109 28.5t81 78.5t50.5 118.5t17.5 149.5t-17.5 149.5t-50.5 119t-81 79t-109 28.5q-60 0 -108 -28.5t-81.5 -79t-51 -119t-17.5 -149.5zM424 1198l119 303h239l-235 -303h-123z" />
<glyph unicode="&#xf4;" horiz-adv-x="1139" d="M84 539q0 117 32.5 219.5t95 179t152.5 120.5t205 44t205.5 -44t153 -120.5t95 -179t32.5 -219.5q0 -116 -32.5 -218.5t-95 -179t-153 -120.5t-205.5 -44t-205 44t-152.5 120.5t-95 179t-32.5 218.5zM271 1198l225 287h148l225 -287h-123l-176 133l-176 -133h-123z M311 539q0 -81 17.5 -149.5t51 -118.5t81.5 -78.5t108 -28.5q61 0 109 28.5t81 78.5t50.5 118.5t17.5 149.5t-17.5 149.5t-50.5 119t-81 79t-109 28.5q-60 0 -108 -28.5t-81.5 -79t-51 -119t-17.5 -149.5z" />
<glyph unicode="&#xf5;" horiz-adv-x="1139" d="M84 539q0 117 32.5 219.5t95 179t152.5 120.5t205 44t205.5 -44t153 -120.5t95 -179t32.5 -219.5q0 -116 -32.5 -218.5t-95 -179t-153 -120.5t-205.5 -44t-205 44t-152.5 120.5t-95 179t-32.5 218.5zM256 1223q25 109 66.5 158t115.5 49q34 0 68.5 -12.5t66.5 -27.5 t60 -27.5t49 -12.5q35 0 53 21t33 65l115 -35q-25 -108 -66.5 -157.5t-114.5 -49.5q-35 0 -69.5 13t-66.5 28t-60 28t-49 13q-34 0 -52.5 -22.5t-33.5 -65.5zM311 539q0 -81 17.5 -149.5t51 -118.5t81.5 -78.5t108 -28.5q61 0 109 28.5t81 78.5t50.5 118.5t17.5 149.5 t-17.5 149.5t-50.5 119t-81 79t-109 28.5q-60 0 -108 -28.5t-81.5 -79t-51 -119t-17.5 -149.5z" />
<glyph unicode="&#xf6;" horiz-adv-x="1139" d="M84 539q0 117 32.5 219.5t95 179t152.5 120.5t205 44t205.5 -44t153 -120.5t95 -179t32.5 -219.5q0 -116 -32.5 -218.5t-95 -179t-153 -120.5t-205.5 -44t-205 44t-152.5 120.5t-95 179t-32.5 218.5zM297 1210v193h198v-193h-198zM311 539q0 -81 17.5 -149.5t51 -118.5 t81.5 -78.5t108 -28.5q61 0 109 28.5t81 78.5t50.5 118.5t17.5 149.5t-17.5 149.5t-50.5 119t-81 79t-109 28.5q-60 0 -108 -28.5t-81.5 -79t-51 -119t-17.5 -149.5zM645 1210v193h197v-193h-197z" />
<glyph unicode="&#xf7;" horiz-adv-x="1008" d="M80 535v176h850v-176h-850zM377 129v252h250v-252h-250zM377 850v252h250v-252h-250z" />
<glyph unicode="&#xf8;" horiz-adv-x="1139" d="M84 539q0 117 32.5 219.5t95 179t152.5 120.5t205 44q48 0 91 -8.5t81 -24.5l64 143h127l-90 -196q51 -38 91 -89t67 -112.5t41 -131t14 -144.5q0 -116 -32.5 -218.5t-95 -179t-153 -120.5t-205.5 -44q-49 0 -92.5 8t-83.5 23l-61 -139h-125l86 192q-51 38 -90 89 t-65.5 112.5t-40 131.5t-13.5 145zM311 539q0 -84 18.5 -153.5t55.5 -119.5l279 627q-22 11 -45.5 16.5t-49.5 5.5q-60 0 -108 -28.5t-81.5 -79t-51 -119t-17.5 -149.5zM473 184q22 -11 46 -15.5t50 -4.5q61 0 109 28.5t81 78.5t50.5 118.5t17.5 149.5q0 83 -19.5 153 t-53.5 121z" />
<glyph unicode="&#xf9;" horiz-adv-x="1098" d="M115 393v684h221v-665q0 -115 34 -174.5t117 -59.5q50 0 96.5 20t82.5 59.5t57.5 97.5t21.5 134v588h224v-1077h-224v166h-4q-21 -41 -51.5 -75.5t-69.5 -60t-85 -39.5t-97 -14q-81 0 -141.5 28.5t-101 82t-60.5 130.5t-20 175zM336 1501h239l119 -303h-123z" />
<glyph unicode="&#xfa;" horiz-adv-x="1098" d="M115 393v684h221v-665q0 -115 34 -174.5t117 -59.5q50 0 96.5 20t82.5 59.5t57.5 97.5t21.5 134v588h224v-1077h-224v166h-4q-21 -41 -51.5 -75.5t-69.5 -60t-85 -39.5t-97 -14q-81 0 -141.5 28.5t-101 82t-60.5 130.5t-20 175zM403 1198l119 303h223l-219 -303h-123z " />
<glyph unicode="&#xfb;" horiz-adv-x="1098" d="M115 393v684h221v-665q0 -115 34 -174.5t117 -59.5q50 0 96.5 20t82.5 59.5t57.5 97.5t21.5 134v588h224v-1077h-224v166h-4q-21 -41 -51.5 -75.5t-69.5 -60t-85 -39.5t-97 -14q-81 0 -141.5 28.5t-101 82t-60.5 130.5t-20 175zM250 1198l225 287h148l225 -287h-123 l-176 133l-176 -133h-123z" />
<glyph unicode="&#xfc;" horiz-adv-x="1098" d="M115 393v684h221v-665q0 -115 34 -174.5t117 -59.5q50 0 96.5 20t82.5 59.5t57.5 97.5t21.5 134v588h224v-1077h-224v166h-4q-21 -41 -51.5 -75.5t-69.5 -60t-85 -39.5t-97 -14q-81 0 -141.5 28.5t-101 82t-60.5 130.5t-20 175zM276 1210v193h199v-193h-199zM625 1210 v193h196v-193h-196z" />
<glyph unicode="&#xfd;" horiz-adv-x="1118" d="M121 426v651h223v-559q0 -76 3 -133t17 -95.5t44 -57.5t84 -19q51 0 96.5 19.5t80 58.5t54.5 96.5t20 132.5v557h224v-985q0 -114 -30.5 -204.5t-88.5 -153.5t-141.5 -96t-188.5 -33q-63 0 -120.5 10t-107.5 27.5t-91 41.5t-72 52l98 147q60 -43 126.5 -66.5t150.5 -23.5 q117 0 180 77t63 232v95h-4q-21 -41 -51 -75.5t-68.5 -60t-84 -39.5t-97.5 -14q-81 0 -140.5 28.5t-99.5 82.5t-59.5 131.5t-19.5 175.5zM461 1198l118 303h240l-235 -303h-123z" />
<glyph unicode="&#xfe;" horiz-adv-x="1192" d="M133 -365v1928l223 -74v-584h4q19 39 52 75t75 63t92.5 43t104.5 16q97 0 175.5 -41t134 -115.5t86 -179t30.5 -231.5q0 -125 -31.5 -228t-88 -176.5t-134.5 -113.5t-170 -40q-60 0 -111 15t-92.5 40.5t-73 59t-51.5 70.5h-4v-600h-6zM358 537q0 -85 20 -154t56 -117.5 t86 -75t111 -26.5q60 0 106.5 27t78.5 76t48.5 117t16.5 151q0 81 -16 150.5t-47.5 120.5t-78.5 80t-108 29t-111 -29t-86 -80t-56 -120t-20 -149z" />
<glyph unicode="&#xff;" horiz-adv-x="1118" d="M121 426v651h223v-559q0 -76 3 -133t17 -95.5t44 -57.5t84 -19q51 0 96.5 19.5t80 58.5t54.5 96.5t20 132.5v557h224v-985q0 -114 -30.5 -204.5t-88.5 -153.5t-141.5 -96t-188.5 -33q-63 0 -120.5 10t-107.5 27.5t-91 41.5t-72 52l98 147q60 -43 126.5 -66.5t150.5 -23.5 q117 0 180 77t63 232v95h-4q-21 -41 -51 -75.5t-68.5 -60t-84 -39.5t-97.5 -14q-81 0 -140.5 28.5t-99.5 82.5t-59.5 131.5t-19.5 175.5zM287 1210v193h198v-193h-198zM635 1210v193h196v-193h-196z" />
<glyph unicode="&#x131;" horiz-adv-x="504" d="M139 0v1077h223v-1077h-223z" />
<glyph unicode="&#x141;" horiz-adv-x="1069" d="M29 590v170l121 65v623h229v-498l315 170v-170l-315 -172v-571h635v-207h-864v655z" />
<glyph unicode="&#x142;" horiz-adv-x="502" d="M10 631v172l129 69v691l223 -74v-496l130 70v-172l-130 -68v-823h-223v700z" />
<glyph unicode="&#x152;" horiz-adv-x="2085" d="M100 727q0 163 44 300.5t123.5 237t191 155t246.5 55.5q120 0 215 -49t163 -136v158h875v-205h-647v-395h592v-205h-592v-438h663v-205h-891v162q-68 -87 -163 -136t-215 -49q-135 0 -246.5 55.5t-191 155t-123.5 237.5t-44 302zM338 727q0 -122 25.5 -222.5t73 -173.5 t115.5 -113t153 -40t153 40t115 113t72.5 173.5t25.5 222.5q0 121 -25.5 222t-72.5 173t-115 112t-153 40t-153 -40t-115.5 -112t-73 -173t-25.5 -222z" />
<glyph unicode="&#x153;" horiz-adv-x="1790" d="M84 539q0 117 32.5 219.5t94 179t150 120.5t200.5 44q129 0 216.5 -61t137.5 -164q48 103 140 164t229 61q113 0 193 -42.5t131 -115.5t75 -171.5t25 -209.5h-684q-2 -6 -2 -13v-15q0 -81 20 -149.5t57.5 -118t90.5 -77.5t119 -28q80 0 135.5 32.5t101.5 88.5l121 -133 q-31 -38 -68.5 -69.5t-83 -54.5t-100.5 -36t-121 -13q-140 0 -233.5 62t-142.5 166q-26 -52 -60.5 -94t-78.5 -72t-98.5 -46t-119.5 -16q-112 0 -200.5 44t-150 120.5t-94 179t-32.5 218.5zM311 539q0 -81 17.5 -149.5t50 -118.5t79 -78.5t103.5 -28.5t103 28.5t78 78.5 t49.5 118.5t17.5 149.5t-17.5 149.5t-49.5 119t-78 79t-103 28.5t-103.5 -28.5t-79 -79t-50 -119t-17.5 -149.5zM1042 709h441q-6 102 -59 159.5t-138 57.5q-97 0 -157.5 -57.5t-86.5 -159.5z" />
<glyph unicode="&#x160;" horiz-adv-x="1208" d="M100 174l123 170q85 -77 182.5 -117.5t202.5 -40.5q41 0 82 10t74 31.5t53.5 56.5t20.5 85q0 73 -30 121.5t-78.5 82.5t-111 58.5t-127 49t-127 54t-111 74t-78.5 108.5t-30 158q0 100 35 175t97 125t146.5 75t184.5 25q144 0 261 -45.5t202 -120.5l-119 -164 q-38 29 -75.5 52t-78.5 38.5t-87 24t-99 8.5q-58 0 -100 -12.5t-69.5 -35t-40.5 -54.5t-13 -72q0 -57 30 -95t79.5 -66t113 -50.5t129 -48t129 -58.5t113 -82.5t79.5 -120t30 -170.5q0 -107 -38 -187t-103 -133t-153 -79.5t-188 -26.5q-75 0 -147.5 14t-138.5 40t-123 62 t-101 81zM305 1841h123l176 -133l176 133h123l-225 -287h-148z" />
<glyph unicode="&#x161;" horiz-adv-x="920" d="M63 133l105 141q52 -53 121.5 -88.5t156.5 -35.5q75 0 120.5 35.5t45.5 113.5q0 45 -22 74t-58 49.5t-81.5 36t-93.5 32.5t-93.5 39.5t-81.5 58t-58 86.5t-22 126q0 71 25 127t71.5 94.5t112.5 59t148 20.5q105 0 198 -31.5t170 -93.5l-100 -141q-54 46 -119 70t-131 24 q-83 0 -119 -32.5t-36 -92.5q0 -40 22 -66t57.5 -45t81.5 -34t93.5 -33t93.5 -41.5t81.5 -60t57.5 -89t22 -127.5q0 -83 -31 -145t-83.5 -103.5t-122.5 -62.5t-148 -21q-121 0 -217.5 42.5t-165.5 113.5zM160 1483h123l176 -133l176 133h123l-225 -287h-148z" />
<glyph unicode="&#x178;" horiz-adv-x="1303" d="M55 1448h248l346 -674h4l346 674h248l-481 -887v-561h-229v561zM379 1570v193h198v-193h-198zM727 1570v193h197v-193h-197z" />
<glyph unicode="&#x17d;" horiz-adv-x="1300" d="M76 115l780 1130h-700v203h983v-178l-713 -1041q25 13 60.5 21t80.5 8q48 0 87 -10.5t75.5 -23.5t73.5 -23.5t82 -10.5q51 0 99 32t83 97l150 -120q-19 -50 -46 -91t-66 -70t-91 -45t-121 -16q-67 0 -119.5 13t-99 28t-90.5 28t-92 13q-88 0 -151 -23.5t-108 -68.5z M352 1833h123l176 -133l176 133h123l-225 -287h-147z" />
<glyph unicode="&#x17e;" horiz-adv-x="1067" d="M74 86l571 811h-510v180h768v-157l-506 -723q13 5 33.5 8.5t46.5 3.5q31 0 57.5 -7.5t52 -16t52.5 -16t61 -7.5q51 0 84 30.5t56 86.5l147 -97q-22 -48 -48 -86t-58 -64.5t-71 -40.5t-87 -14q-54 0 -97 10.5t-83 22.5t-78.5 22.5t-83.5 10.5q-53 0 -92.5 -16.5 t-79.5 -57.5zM236 1483h122l177 -133l176 133h123l-226 -287h-147z" />
<glyph unicode="&#x192;" horiz-adv-x="1202" d="M117 -379l24 186q28 -6 76 -6q28 0 51 7.5t41 25.5t30.5 48t18.5 75l95 725h-174v182h198l37 295q11 84 39.5 153t76.5 118.5t116.5 76.5t158.5 27q59 0 108 -5t77 -13l-23 -173q-28 4 -61 6.5t-64 2.5q-52 0 -89 -15t-61.5 -42.5t-38.5 -66.5t-20 -87l-37 -277h285v-182 h-309l-92 -725q-12 -94 -40 -160t-70.5 -108t-99 -61t-126.5 -19q-35 0 -68 3t-59 9z" />
<glyph unicode="&#x2c6;" horiz-adv-x="664" d="M33 1198l225 287h148l225 -287h-123l-176 133l-176 -133h-123z" />
<glyph unicode="&#x2c7;" horiz-adv-x="664" d="M33 1483h123l176 -133l176 133h123l-225 -287h-148z" />
<glyph unicode="&#x2d8;" horiz-adv-x="606" d="M33 1456h133q2 -53 34 -87t103 -34q70 0 103 34t36 87h133q-4 -59 -26 -106t-58 -80t-84.5 -50.5t-103.5 -17.5t-102.5 17.5t-83.5 50.5t-58 80t-26 106z" />
<glyph unicode="&#x2d9;" horiz-adv-x="338" d="M63 1202v205h203v-205h-203z" />
<glyph unicode="&#x2da;" horiz-adv-x="469" d="M33 1393q0 46 14.5 85t40.5 67t63 43.5t82 15.5q46 0 83.5 -15.5t64 -43.5t41 -67t14.5 -85t-14.5 -84.5t-41 -66t-64 -43t-83.5 -15.5q-45 0 -82 15.5t-63 43t-40.5 66t-14.5 84.5zM141 1393q0 -56 26 -85.5t66 -29.5q42 0 67.5 29.5t25.5 85.5q0 55 -25.5 84.5 t-67.5 29.5q-40 0 -66 -29.5t-26 -84.5z" />
<glyph unicode="&#x2db;" horiz-adv-x="354" d="M41 -246q0 81 52 125.5t151 44.5q17 0 34 -0.5t35 -3.5v-90h-18q-53 0 -81 -18.5t-28 -63.5q0 -24 10 -43.5t27 -33.5t40 -22.5t50 -10.5v-95q-128 0 -200 56t-72 155z" />
<glyph unicode="&#x2dc;" horiz-adv-x="690" d="M33 1223q25 109 66.5 158t115.5 49q34 0 68.5 -12.5t66.5 -27.5t60 -27.5t49 -12.5q35 0 52.5 21t33.5 65l114 -35q-24 -108 -66 -157.5t-114 -49.5q-35 0 -69.5 13t-66.5 28t-60 28t-50 13q-34 0 -52 -22.5t-34 -65.5z" />
<glyph unicode="&#x2dd;" horiz-adv-x="666" d="M33 1198l104 266h195l-193 -266h-106zM336 1198l102 266h195l-193 -266h-104z" />
<glyph unicode="&#xe01;" horiz-adv-x="1260" d="M41 944v12q23 70 73 137t122 119.5t165 84.5t201 32q122 0 218 -35t162 -102t101 -164.5t35 -222.5v-805h-227v803q0 161 -73 244t-222 83q-61 0 -113.5 -14.5t-95 -38t-74 -54t-49.5 -62.5v-7q15 -14 34 -35t37 -45t33.5 -49t24.5 -47v-778h-227v762q-9 26 -23.5 52 t-31.5 50t-35 44.5t-35 35.5z" />
<glyph unicode="&#xe02;" horiz-adv-x="1155" d="M102 1118v8l56 181h168q103 0 163 -55t60 -158q0 -46 -13.5 -86.5t-34 -78.5t-44.5 -74t-44.5 -72t-34 -73t-13.5 -77v-187q0 -77 16 -129t44.5 -83.5t69 -45.5t89.5 -14q48 0 85.5 14.5t64 47t40.5 85.5t14 130v856h226v-871q0 -125 -36 -212.5t-96 -142.5t-138 -79.5 t-162 -24.5q-86 0 -166.5 24.5t-142.5 78.5t-99 140.5t-37 211.5v193q0 43 14.5 83.5t35.5 78.5t46.5 73.5t46.5 69t35.5 65t14.5 60.5q0 32 -15.5 47.5t-50.5 15.5h-162z" />
<glyph unicode="&#xe03;" horiz-adv-x="1165" d="M61 1190v82l152 47h12v-80q0 -45 17.5 -66.5t46.5 -21.5q35 0 57.5 25.5t22.5 74.5v56h202v-236q0 -46 -14.5 -87t-36.5 -79t-47 -74.5t-47 -73.5t-36.5 -76t-14.5 -81v-154q0 -77 16 -129t44.5 -83.5t69 -45.5t89.5 -14q47 0 84.5 14.5t64 47t40.5 85.5t14 130v856h227 v-871q0 -125 -36 -212.5t-96 -142.5t-138.5 -79.5t-163.5 -24.5q-86 0 -166 24.5t-141.5 78.5t-98.5 140.5t-37 211.5v178q0 48 16.5 91t41 82t53.5 74.5t53.5 67.5t41 61.5t16.5 57.5v21q-23 -26 -59.5 -39.5t-80.5 -13.5q-36 0 -67 11.5t-53.5 34t-35 56t-12.5 76.5z" />
<glyph unicode="&#xe04;" horiz-adv-x="1305" d="M141 0v803q0 133 37 231.5t104.5 164t162 98t208.5 32.5t208 -32.5t161 -98t104 -164t37 -231.5v-803h-227v797q0 171 -71 252t-212 81q-140 0 -212 -81t-72 -252v-260h4q29 92 95 142t157 50h112v-207h-106q-107 0 -166.5 -59t-73.5 -184l-33 -279h-217z" />
<glyph unicode="&#xe05;" horiz-adv-x="1317" d="M141 0v860q0 206 81.5 319.5t248.5 145.5q43 -51 93 -100t95 -78q44 29 93.5 78t93.5 100q167 -32 248.5 -145.5t81.5 -319.5v-860h-228v854q0 59 -5.5 100.5t-17.5 71t-30.5 48.5t-44.5 34q-43 -38 -93 -75.5t-98 -63.5q-49 26 -98.5 63.5t-91.5 75.5q-26 -15 -45 -34 t-31 -48.5t-18 -71t-6 -100.5v-317h4q15 46 39.5 81.5t57.5 60t72.5 37.5t84.5 13h118v-207h-110q-105 0 -168 -59t-76 -184l-33 -279h-217z" />
<glyph unicode="&#xe06;" horiz-adv-x="1286" d="M57 1190v82l152 47h10v-80q0 -45 17.5 -66.5t48.5 -21.5q35 0 57.5 25.5t22.5 74.5v56h200v-236q0 -46 -14 -87t-34.5 -79t-44.5 -74.5t-44.5 -73.5t-34.5 -76t-14 -81v-90q0 -62 21.5 -121.5t61 -107t94 -76.5t120.5 -29q64 0 110 19t75.5 59.5t43 103t13.5 150.5v799 h227v-824q0 -127 -27.5 -222t-78 -158t-121 -94.5t-156.5 -31.5q-75 0 -136 20t-108.5 52t-82 73.5t-56.5 84.5l-10 -2v-205h-217v610q0 48 16 91t39.5 82t51 74.5t51 67.5t39.5 61.5t16 57.5v21q-23 -26 -59.5 -39.5t-80.5 -13.5q-37 0 -67.5 11.5t-53 34t-35 56 t-12.5 76.5z" />
<glyph unicode="&#xe07;" horiz-adv-x="1120" d="M20 848h238l270 -660q62 12 111.5 55t83.5 111t52 156.5t18 191.5q0 209 -71 312.5t-208 103.5h-113l52 191h94q114 0 203 -45t150 -124.5t92.5 -188.5t31.5 -238q0 -141 -33 -264.5t-94.5 -219.5t-150.5 -158t-201 -79h-154z" />
<glyph unicode="&#xe08;" horiz-adv-x="1192" d="M39 1112q93 103 223 160t283 57q131 0 233.5 -45t173 -125.5t107.5 -192.5t37 -245q0 -134 -38 -253t-103.5 -214t-151.5 -161t-182 -93h-154l-188 539h-132l50 184h237l172 -516q121 63 189.5 194t68.5 320q0 95 -22 171t-63.5 129t-102.5 81t-139 28q-122 0 -213 -45 t-160 -120z" />
<glyph unicode="&#xe09;" horiz-adv-x="1253" d="M49 1108q94 103 227 162t289 59q138 0 241 -40.5t171 -114t101.5 -177t33.5 -229.5v-768h-221q-1 8 -1.5 26t-1 41t-1 47.5t-1.5 44.5t-2.5 33t-2.5 13q-24 -48 -55.5 -89.5t-74.5 -72t-99 -48.5t-128 -18q-81 0 -146 26t-110.5 75.5t-70.5 120t-25 159.5v179h-113v10 q11 45 23 88t24 88h293v-342q0 -59 14 -99t39.5 -64.5t62 -35t81.5 -10.5q70 0 124 34.5t90 90.5t54.5 126.5t18.5 143.5v193q0 90 -22.5 159t-64.5 116t-102.5 71t-136.5 24q-123 0 -218.5 -47t-164.5 -122z" />
<glyph unicode="&#xe0a;" horiz-adv-x="1163" d="M102 1118v8l56 181h168q103 0 163 -55t60 -158q0 -46 -13.5 -86.5t-34 -78.5t-44.5 -74t-44.5 -72t-34 -73t-13.5 -77v-187q0 -77 16.5 -129t46 -83.5t70.5 -45.5t90 -14q48 0 86.5 14.5t65.5 47t42 85.5t15 130v284q0 111 -42 163t-108 52h-20v156h26q39 0 73.5 15 t62 48t48 85t31.5 126l215 -67q-11 -68 -37 -118t-60 -84.5t-73.5 -54.5t-78.5 -26v-4q41 -11 75.5 -34.5t59.5 -59.5t39 -84t14 -109v-303q0 -125 -36.5 -212.5t-97 -142.5t-139.5 -79.5t-163 -24.5q-86 0 -167 24.5t-143.5 78.5t-100.5 140.5t-38 211.5v193 q0 43 14.5 83.5t35.5 78.5t46.5 73.5t46.5 69t35.5 65t14.5 60.5q0 32 -15.5 47.5t-50.5 15.5h-162z" />
<glyph unicode="&#xe0b;" horiz-adv-x="1174" d="M61 1190v82l152 47h12v-80q0 -45 17.5 -66.5t46.5 -21.5q35 0 57.5 25.5t22.5 74.5v56h202v-236q0 -46 -14.5 -87t-36.5 -79t-47 -74.5t-47 -73.5t-36.5 -76t-14.5 -81v-154q0 -77 16.5 -129t46 -83.5t70.5 -45.5t90 -14q47 0 85 14.5t65 47t42 85.5t15 130v284 q0 111 -41 163t-107 52h-20v156h27q39 0 73 15t62 48t48 85t32 126l215 -67q-12 -68 -37.5 -118t-60 -84.5t-74 -54.5t-78.5 -26v-4q41 -11 75.5 -34.5t59.5 -59.5t39 -84t14 -109v-303q0 -125 -36.5 -212.5t-97.5 -142.5t-140 -79.5t-164 -24.5q-86 0 -166.5 24.5 t-143 78.5t-100 140.5t-37.5 211.5v178q0 48 16.5 91t41 82t53.5 74.5t53.5 67.5t41 61.5t16.5 57.5v21q-23 -26 -59.5 -39.5t-80.5 -13.5q-36 0 -67 11.5t-53.5 34t-35 56t-12.5 76.5z" />
<glyph unicode="&#xe0c;" horiz-adv-x="1909" d="M35 944v12q23 70 71.5 137t118.5 119.5t158.5 84.5t191.5 32q117 0 209.5 -35t156.5 -102t98 -164.5t34 -222.5v-260q0 -76 20 -143t56 -117.5t85 -79.5t107 -29q52 0 89 15.5t61 49.5t35.5 87.5t11.5 128.5v850h227v-873q0 -122 -26 -208.5t-72 -142t-109.5 -81 t-138.5 -25.5q-71 0 -126 20t-97.5 52t-72.5 72.5t-50 81.5l-10 -2v-201h-217v803q0 161 -68.5 244t-208.5 83q-54 0 -102.5 -14.5t-89 -38t-71 -54t-48.5 -62.5v-7q15 -14 33.5 -35t36.5 -45t34 -49t25 -47v-588h215l-59 -190h-383v762q-9 26 -23.5 52t-31.5 50t-35 44.5 t-35 35.5z" />
<glyph unicode="&#xe0d;" horiz-adv-x="1909" d="M35 944v12q23 70 71.5 137t118.5 119.5t158.5 84.5t191.5 32q117 0 209.5 -35t156.5 -102t98 -164.5t34 -222.5v-330q0 -73 16.5 -125t46.5 -85.5t73.5 -49.5t97.5 -16t97 16t73 49.5t46.5 85.5t16.5 125v832h227v-854q0 -119 -38.5 -205t-102 -141t-146.5 -81t-173 -26 q-91 0 -174.5 26t-147 81t-101.5 141t-38 205v350q0 161 -68.5 244t-208.5 83q-54 0 -102.5 -14.5t-89 -38t-71 -54t-48.5 -62.5v-7q15 -14 33.5 -35t36.5 -45t34 -49t25 -47v-588h215l-59 -190h-383v762q-9 26 -23.5 52t-31.5 50t-35 44.5t-35 35.5zM854 -242 q63 69 133 107.5t154 38.5q46 0 90 -14t85.5 -31t80 -31t73.5 -14q53 0 98 27t77 87l129 -90q-47 -96 -117 -148t-176 -52q-49 0 -93 13.5t-85.5 30t-80.5 30.5t-79 14q-53 0 -97.5 -24t-84.5 -69z" />
<glyph unicode="&#xe0e;" horiz-adv-x="1311" d="M53 184h187v559q-9 26 -28.5 55t-42.5 56.5t-47 51t-42 38.5v12q22 70 72.5 137t124 119.5t167 84.5t201.5 32q122 0 219.5 -35t165 -102t103.5 -164.5t36 -222.5v-957q0 -121 -27 -207.5t-73.5 -141.5t-107.5 -81t-130 -26h-53l-250 198v-190l-190 -82v485h178l275 -211 q76 0 113.5 64.5t37.5 212.5v934q0 161 -77 244t-226 83q-61 0 -114.5 -14.5t-97 -38t-75 -54t-49.5 -62.5v-7q16 -15 40 -38.5t48.5 -51t45.5 -55t30 -49.5v-760h-365z" />
<glyph unicode="&#xe0f;" horiz-adv-x="1311" d="M53 184h187v559q-9 26 -28.5 55t-42.5 56.5t-47 51t-42 38.5v12q22 70 72.5 137t124 119.5t167 84.5t201.5 32q122 0 219.5 -35t165 -102t103.5 -164.5t36 -222.5v-1002q0 -112 -28.5 -190.5t-77 -127.5t-112 -71t-132.5 -22h-63l-189 217q-12 -118 -84 -175t-194 -57 h-103v168h88q72 0 112 40.5t40 125.5v101h188l199 -228q28 2 52 12.5t41 34.5t26.5 63.5t9.5 100.5v1008q0 161 -77 244t-226 83q-61 0 -114.5 -14.5t-97 -38t-75 -54t-49.5 -62.5v-7q16 -15 40 -38.5t48.5 -51t45.5 -55t30 -49.5v-760h-365z" />
<glyph unicode="&#xe10;" horiz-adv-x="1196" d="M39 1112q93 103 223 160t283 57q43 0 82.5 -5.5t77.5 -16.5q48 2 92 10t85 23.5t80.5 40.5t79.5 61l129 -170q-21 -15 -52.5 -29.5t-68 -25.5t-75 -19t-74.5 -10v-4q48 -38 84 -88.5t61 -110t37.5 -126.5t12.5 -138q0 -134 -38 -253t-103.5 -214t-151.5 -161t-182 -93 h-154l-188 539h-132l50 184h237l172 -516q121 63 189.5 194t68.5 320q0 95 -22 171t-63.5 129t-102.5 81t-139 28q-122 0 -213 -45t-160 -120zM109 -414h108q44 0 81 9t64 32t42 62.5t16 101.5h188q1 -61 11.5 -102.5t27 -67t39 -36.5t49.5 -11q61 0 85 44.5t24 119.5v65 h192v-73q0 -87 -20 -149t-56 -101t-85 -57.5t-107 -18.5q-47 0 -88 11.5t-74 35t-56.5 60.5t-35.5 88q-10 -49 -34.5 -85.5t-58 -61t-75 -36.5t-86.5 -12h-151v182z" />
<glyph unicode="&#xe11;" horiz-adv-x="1296" d="M29 1190v82l153 47h11v-80q0 -45 17 -66.5t48 -21.5q35 0 57.5 25.5t22.5 74.5v56h197v-131q27 30 61 58t73.5 49t84.5 33.5t94 12.5q88 0 147 -34t94.5 -91.5t50.5 -134.5t15 -162v-907h-229v831q0 74 -6.5 130t-24 93.5t-48.5 56.5t-79 19q-50 0 -97 -21.5t-89 -58 t-77 -85t-60.5 -103t-39.5 -111.5t-14 -110v-641h-227v639q0 64 13 117.5t36 98.5t55 84t70 75v51q-23 -26 -59.5 -39.5t-79.5 -13.5q-37 0 -68.5 11.5t-54 34t-35 56t-12.5 76.5z" />
<glyph unicode="&#xe12;" horiz-adv-x="2017" d="M92 662q0 121 25 231.5t75.5 199t126 150t177.5 84.5q18 -21 38 -43t40.5 -43t41 -39.5t39.5 -32.5q44 26 89.5 66.5t99.5 91.5q152 -49 229.5 -166t77.5 -307v-291q0 -83 20 -153.5t56.5 -122t89.5 -80.5t119 -29q111 0 162 79.5t51 231.5v818h227v-844 q0 -122 -26.5 -213.5t-75.5 -152.5t-120 -91.5t-159 -30.5q-68 0 -122.5 19t-96.5 51t-73 73t-52 85q-3 -2 -4.5 -11.5t-2.5 -24.5t-2 -33t-1 -36q-1 -44 0 -98h-217v852q0 106 -23.5 165t-77.5 87q-31 -32 -72 -63t-98 -60q-57 31 -100.5 65t-77.5 66q-71 -40 -111 -152.5 t-40 -297.5q0 -111 17.5 -199t53.5 -148.5t91.5 -92.5t131.5 -32h130q-16 -48 -30.5 -96t-27.5 -96h-112q-119 0 -209.5 46.5t-152 132.5t-93 209t-31.5 276z" />
<glyph unicode="&#xe13;" horiz-adv-x="1909" d="M35 944v12q23 70 71.5 137t118.5 119.5t158.5 84.5t191.5 32q117 0 209.5 -35t156.5 -102t98 -164.5t34 -222.5v-361q0 -71 12 -122t36 -83.5t61 -47.5t88 -15q58 0 107 29t85 79.5t56 117.5t20 143v762h227v-1307h-223v201l-4 2q-20 -41 -50 -81.5t-72.5 -72.5t-98 -52 t-125.5 -20q-75 0 -138.5 24t-109.5 76.5t-72 135t-26 199.5v391q0 161 -68.5 244t-208.5 83q-54 0 -102.5 -14.5t-89 -38t-71 -54t-48.5 -62.5v-7q15 -14 33.5 -35t36.5 -45t34 -49t25 -47v-588h215l-59 -190h-383v762q-9 26 -23.5 52t-31.5 50t-35 44.5t-35 35.5z" />
<glyph unicode="&#xe14;" horiz-adv-x="1309" d="M94 657q0 145 36.5 268t107.5 213t175 140.5t240 50.5q112 0 206 -32.5t162 -98.5t106 -165t38 -232v-801h-227v799q0 87 -19.5 149.5t-56.5 103t-89 59.5t-116 19q-88 0 -151 -35t-103 -97t-58.5 -147t-18.5 -185q0 -234 74 -355t216 -121h144l-58 -192h-129 q-116 0 -205.5 47.5t-150 134t-92 208t-31.5 269.5z" />
<glyph unicode="&#xe15;" horiz-adv-x="1329" d="M94 651q0 122 27 234.5t79.5 203.5t130.5 153.5t181 84.5q17 -20 37.5 -41.5t42.5 -42.5t44 -40t42 -34q45 28 92 66.5t104 91.5q79 -26 138 -63.5t98 -92t58.5 -128.5t19.5 -173v-870h-227v868q0 58 -7 97.5t-20.5 66.5t-33.5 44t-46 30q-35 -32 -76.5 -62t-101.5 -61 q-57 31 -101.5 62t-78.5 65q-37 -18 -68.5 -58t-54 -98.5t-35 -134.5t-12.5 -166q0 -227 73.5 -345t218.5 -118h152l-55 -192h-142q-118 0 -207.5 47t-150 133t-91 206t-30.5 267z" />
<glyph unicode="&#xe16;" horiz-adv-x="1268" d="M41 944v12q23 70 73.5 137t123.5 119.5t166.5 84.5t201.5 32q122 0 218.5 -35t163.5 -102t102.5 -164.5t35.5 -222.5v-805h-227v803q0 161 -75 244t-224 83q-61 0 -114 -14.5t-96.5 -38t-75.5 -54t-50 -62.5v-7q15 -14 34 -35t37 -45t33.5 -49t24.5 -47v-588h228 l-60 -190h-395v762q-9 26 -23.5 52t-31.5 50t-35 44.5t-35 35.5z" />
<glyph unicode="&#xe17;" horiz-adv-x="1309" d="M143 0v1307h217l7 -265q2 0 2 -1t2 -1q21 45 58 95.5t89.5 93.5t120 71.5t149.5 28.5q88 0 158.5 -29t119.5 -90t75 -154t26 -220v-836h-227v827q0 161 -50 232t-147 71q-77 0 -145 -40.5t-118.5 -105t-79.5 -146t-29 -162.5v-676h-228z" />
<glyph unicode="&#xe18;" horiz-adv-x="1194" d="M104 733v176q0 90 27 163.5t77.5 125.5t122.5 80.5t163 28.5h516v-191h-514q-82 0 -122 -46t-40 -155h368q86 0 155 -21t117.5 -63.5t74.5 -108t26 -153.5v-190q0 -98 -35 -173t-97.5 -126t-149 -77t-189.5 -26q-112 0 -201 24.5t-150.5 73t-94.5 120.5t-33 167v181 l209 75h8v-192q0 -75 17 -125t49.5 -80t80 -42.5t109.5 -12.5q125 0 188.5 55t63.5 172v160q0 95 -46 137.5t-151 42.5h-549z" />
<glyph unicode="&#xe19;" horiz-adv-x="1276" d="M139 457v850h228v-828q0 -86 15 -144t45 -93.5t74.5 -50.5t102.5 -15q65 0 120.5 30t95.5 82t62.5 123t22.5 152v744h228v-1307h-218l-6 205q-2 0 -2 1t-2 1q-22 -43 -56 -84.5t-79 -73.5t-102 -52t-125 -20q-90 0 -164.5 27.5t-127.5 86t-82.5 149t-29.5 217.5z" />
<glyph unicode="&#xe1a;" horiz-adv-x="1272" d="M141 504v803h228v-783q0 -95 18 -161t52.5 -107.5t84 -60.5t113.5 -19q63 0 112.5 19t83.5 60.5t52 107.5t18 161v783h227v-803q0 -136 -37 -235.5t-102.5 -164t-156 -96t-197.5 -31.5q-108 0 -199 31.5t-157 96t-103 164t-37 235.5z" />
<glyph unicode="&#xe1b;" horiz-adv-x="1268" d="M141 504v803h228v-783q0 -95 17.5 -161t51.5 -107.5t83.5 -60.5t113.5 -19q63 0 112 19t83 60.5t51.5 107.5t17.5 161v1293l227 75v-1388q0 -136 -36.5 -235.5t-102 -164t-155.5 -96t-197 -31.5q-108 0 -198.5 31.5t-156 96t-102.5 164t-37 235.5z" />
<glyph unicode="&#xe1c;" horiz-adv-x="1350" d="M143 0v1032q0 133 56 204t174 71h162l59 -183v-8h-143q-26 0 -42 -11.5t-25.5 -32t-13 -48.5t-3.5 -61v-394q0 -81 -0.5 -142t-4.5 -118h5q21 60 54 128.5t81 158.5l168 313h18l189 -360q35 -69 60.5 -127.5t45.5 -112.5h4q-3 57 -3.5 118t-0.5 142v738h223v-1307h-225 l-303 602l-309 -602h-226z" />
<glyph unicode="&#xe1d;" horiz-adv-x="1350" d="M143 0v1032q0 133 56 204t174 71h162l59 -183v-8h-143q-41 0 -62.5 -26.5t-21.5 -81.5v-439q0 -81 -0.5 -142t-4.5 -118h5q21 60 53 128t82 159l168 313h18q38 -80 81 -156.5t83 -156.5l51 -104q28 -57 48 -100t32 -83h4q-3 57 -3.5 118t-0.5 142v1250l223 73v-1892h-225 l-303 602l-309 -602h-226z" />
<glyph unicode="&#xe1e;" horiz-adv-x="1384" d="M66 1307h223l82 -766l24 -283l56 281l165 581h152l166 -581l55 -281l25 283l82 766h223l-170 -1307h-238l-159 565l-60 275l-59 -275l-160 -565h-235z" />
<glyph unicode="&#xe1f;" horiz-adv-x="1376" d="M66 1307h223l69 -766l23 -283l57 281l166 581h150l166 -581l57 -281l135 1608h215l-192 -1866h-238l-160 565l-59 275l-60 -275l-157 -565h-238z" />
<glyph unicode="&#xe20;" horiz-adv-x="1311" d="M53 184h187v561q-9 26 -28.5 55t-42.5 56t-47 50t-42 38v14q22 70 72.5 137t124 119t167 83.5t201.5 31.5q122 0 219.5 -34.5t165 -101.5t103.5 -164.5t36 -223.5v-805h-227v805q0 159 -77 243.5t-226 84.5q-61 0 -114.5 -14.5t-97 -38.5t-75 -54.5t-49.5 -62.5v-7 q16 -14 40 -38t48.5 -51t45.5 -55t30 -50v-762h-365z" />
<glyph unicode="&#xe21;" horiz-adv-x="1278" d="M143 0v1307h228v-744q0 -81 22.5 -152t62 -123t93.5 -82t117 -30q129 0 186 79t57 253v799h228v-824q0 -128 -28 -223t-80 -158t-126.5 -94t-167.5 -31q-70 0 -127 20t-102.5 52t-79 73.5t-55.5 84.5q-2 0 -2 -1t-2 -1l-7 -205h-217z" />
<glyph unicode="&#xe22;" horiz-adv-x="1241" d="M88 399q0 54 13.5 103.5t38.5 91t59.5 72.5t76.5 49q-83 35 -133.5 104.5t-50.5 175.5q0 71 25 128.5t70.5 98.5t109 63t139.5 22h180l58 -189h-207q-69 0 -108.5 -37.5t-39.5 -111.5q0 -72 41.5 -113t106.5 -41h197v-180h-164q-43 0 -77 -15.5t-57.5 -43.5t-36 -66.5 t-12.5 -83.5q0 -71 23.5 -119t62.5 -77t90 -41.5t107 -12.5q66 0 116.5 21.5t85 61t52.5 95t18 123.5v830h228v-824q0 -127 -34 -222t-98 -158.5t-157 -95.5t-211 -32q-104 0 -196.5 25t-163 76.5t-111.5 131.5t-41 191z" />
<glyph unicode="&#xe23;" horiz-adv-x="1092" d="M53 170l125 149q35 -36 78 -64t91 -46.5t99.5 -28.5t102.5 -10q52 0 95.5 9.5t75 30.5t49 53.5t17.5 78.5q0 55 -30 91.5t-79 63.5t-111.5 48.5t-127.5 45t-127.5 52.5t-111.5 72.5t-79 105t-30 148.5q0 90 32.5 157.5t90.5 112.5t138.5 67.5t176.5 22.5q134 0 249 -42.5 t200 -115.5l-117 -145q-66 57 -144.5 84t-172.5 27q-53 0 -94.5 -8.5t-70 -27.5t-44 -49.5t-15.5 -74.5q0 -55 30 -91.5t78.5 -63.5t111 -48.5t128 -45t128 -53.5t111 -74.5t78.5 -107t30 -151.5q0 -95 -40.5 -163.5t-105.5 -113.5t-146.5 -66.5t-164.5 -21.5 q-155 0 -280 47t-224 146z" />
<glyph unicode="&#xe24;" horiz-adv-x="1268" d="M41 944v12q23 70 73.5 137t123.5 119.5t166.5 84.5t201.5 32q122 0 218.5 -35t163 -102t101.5 -164.5t35 -222.5v-1321l-221 -92h-6v1411q0 161 -74 244t-223 83q-61 0 -114 -14.5t-96.5 -38t-75.5 -54t-50 -62.5v-7q15 -14 34 -35t37 -45t33.5 -49t24.5 -47v-588h228 l-60 -190h-395v762q-9 26 -23.5 52t-31.5 50t-35 44.5t-35 35.5z" />
<glyph unicode="&#xe25;" horiz-adv-x="1257" d="M86 418q0 117 38.5 204t100.5 144t140.5 85t158.5 28q67 0 122 -14t100 -37t80.5 -53t64.5 -62v141q0 70 -20.5 122.5t-58.5 87.5t-91.5 53t-118.5 18q-119 0 -207.5 -39t-154.5 -113l-123 137q91 97 211.5 153t283.5 56q107 0 199 -31t160 -91t106.5 -147.5t38.5 -199.5 v-860h-225v504q-26 42 -60 76.5t-73.5 59.5t-84.5 38.5t-93 13.5q-60 0 -109 -17t-84.5 -51.5t-54.5 -86t-19 -121.5q0 -61 15 -107.5t42 -78t64 -48t80 -16.5q51 0 91.5 13t72.5 36l76 -154q-56 -42 -117.5 -60.5t-136.5 -18.5q-95 0 -171.5 29.5t-130.5 86t-83 137.5 t-29 183z" />
<glyph unicode="&#xe26;" horiz-adv-x="1311" d="M53 184h187v561q-9 26 -28.5 55t-42.5 56t-47 50t-42 38v14q22 70 72.5 137t124 119t167 83.5t201.5 31.5q122 0 219.5 -34.5t165 -101.5t103.5 -164.5t36 -223.5v-1321l-221 -92h-6v1413q0 159 -77 243.5t-226 84.5q-61 0 -114.5 -14.5t-97 -38.5t-75 -54.5t-49.5 -62.5 v-7q16 -14 40 -38t48.5 -51t45.5 -55t30 -50v-762h-365z" />
<glyph unicode="&#xe27;" horiz-adv-x="1116" d="M43 1130q35 40 78.5 76t97.5 63.5t119.5 43.5t144.5 16q138 0 239.5 -51t168.5 -141.5t100 -214.5t33 -271q0 -151 -33.5 -275.5t-99.5 -213t-164.5 -137t-228.5 -48.5q-74 0 -136 14t-113.5 38t-93 56.5t-73.5 68.5l125 143q45 -53 113 -89t159 -36q81 0 140 35t97.5 98 t57.5 151t19 195q0 114 -21.5 203.5t-62.5 152t-102 95.5t-140 33q-54 0 -97.5 -12.5t-80 -33.5t-67 -47t-56.5 -53z" />
<glyph unicode="&#xe28;" horiz-adv-x="1305" d="M141 0v803q0 133 37 231.5t104.5 164t162 98t208.5 32.5q42 0 83 -5.5t79 -14.5q96 3 178 33t162 102l129 -170q-21 -16 -53 -31t-68.5 -27t-74.5 -20.5t-72 -11.5q74 -68 110.5 -161t36.5 -220v-803h-227v739q0 101 -15 174.5t-48.5 121.5t-87.5 71.5t-132 23.5 q-140 0 -212 -81t-72 -252v-260h4q29 92 95 142t157 50h112v-207h-106q-107 0 -166.5 -59t-73.5 -184l-33 -279h-217z" />
<glyph unicode="&#xe29;" horiz-adv-x="1309" d="M141 504v803h228v-783q0 -95 18.5 -161t53.5 -107.5t85.5 -60.5t114.5 -19q63 0 113 19t85 60.5t53.5 107.5t18.5 161v154h-284l51 180h233v449h228v-449h143v-180h-143v-174q0 -136 -37.5 -235.5t-104.5 -164t-158 -96t-198 -31.5q-108 0 -199.5 31.5t-158 96 t-104.5 164t-38 235.5z" />
<glyph unicode="&#xe2a;" horiz-adv-x="1264" d="M86 418q0 117 38.5 204t100.5 144t140.5 85t158.5 28q67 0 122 -14t100 -37t80.5 -53t64.5 -62v141q0 70 -20.5 122.5t-58.5 87.5t-91.5 53t-118.5 18q-119 0 -207.5 -39t-154.5 -113l-123 137q91 97 211.5 153t283.5 56q41 0 79 -5.5t75 -14.5q48 1 91.5 9t85 24t82 41 t81.5 61l127 -170q-21 -16 -51 -31t-64.5 -26.5t-71.5 -19.5t-71 -9v-4q66 -59 103.5 -140.5t37.5 -183.5v-860h-225v504q-26 42 -60 76.5t-73.5 59.5t-84.5 38.5t-93 13.5q-60 0 -109 -17t-84.5 -51.5t-54.5 -86t-19 -121.5q0 -60 15 -106.5t41.5 -78.5t63.5 -48.5 t81 -16.5q51 0 91.5 13t72.5 36l76 -154q-56 -42 -117.5 -60.5t-136.5 -18.5q-95 0 -171.5 29.5t-130.5 86t-83 137.5t-29 183z" />
<glyph unicode="&#xe2b;" horiz-adv-x="1266" d="M143 0v1307h228v-559q44 90 110.5 176t151.5 163t185.5 141t213.5 109l103 -172q-78 -31 -158 -72t-152 -94q70 -20 125 -59.5t93.5 -94t58.5 -121.5t20 -140v-584h-227v561q0 127 -55 204.5t-164 104.5q-62 -59 -117.5 -136t-97 -168t-66 -193.5t-24.5 -212.5v-160h-228 z" />
<glyph unicode="&#xe2c;" horiz-adv-x="1350" d="M143 0v1307h224v-738q0 -81 -0.5 -142t-4.5 -118h5q20 54 45.5 112.5t62.5 127.5l189 360h16l194 -360q38 -69 62.5 -128t46.5 -112h4q-3 57 -3.5 118t-0.5 142v346q0 118 -41 172t-135 54h-49v166h73q94 0 156 66t84 212l217 -72q-12 -67 -42 -117.5t-68.5 -86.5 t-82 -57.5t-83.5 -30.5v-4q91 -23 142.5 -102t51.5 -204v-911h-225l-309 602l-303 -602h-226z" />
<glyph unicode="&#xe2d;" horiz-adv-x="1247" d="M92 1116q94 98 218.5 155.5t281.5 57.5q133 0 237 -48t176 -135t110 -207.5t38 -264.5q0 -164 -34 -293t-101.5 -219t-169 -137.5t-236.5 -47.5q-107 0 -199 29.5t-160.5 89t-107.5 149t-39 208.5v292h459v-182h-231v-104q0 -73 20.5 -126.5t57 -88t86.5 -51.5t110 -17 q86 0 146.5 39.5t98.5 107t55.5 157t17.5 190.5q0 109 -22 194.5t-65.5 144.5t-107 90t-147.5 31q-63 0 -115.5 -12t-97.5 -33.5t-83.5 -51.5t-72.5 -66z" />
<glyph unicode="&#xe2e;" horiz-adv-x="1247" d="M92 1116q94 98 218.5 155.5t281.5 57.5q40 0 78 -5.5t73 -14.5q48 2 91 10t84 23.5t80 40.5t79 61l129 -170q-21 -16 -50.5 -30.5t-63 -26t-69.5 -19.5t-69 -12v-4q97 -85 148 -214.5t51 -293.5t-34 -293t-101.5 -219t-169 -137.5t-236.5 -47.5q-107 0 -199 29.5 t-160.5 89t-107.5 149t-39 208.5v292h459v-182h-231v-104q0 -73 20.5 -126.5t57 -88t86.5 -51.5t110 -17q86 0 146.5 39.5t98.5 107t55.5 157t17.5 190.5q0 109 -22 194.5t-65.5 144.5t-107 90t-147.5 31q-63 0 -115.5 -12t-97.5 -33.5t-83.5 -51.5t-72.5 -66z" />
<glyph unicode="&#xe2f;" horiz-adv-x="1008" d="M88 1137v170h209v-166q0 -27 4.5 -58t17 -57t36 -43.5t61.5 -17.5q47 0 86.5 18.5t68 50.5t44.5 75t16 93v119l229 -55v-1266h-229v940h-4q-15 -33 -39.5 -62t-57.5 -51t-74.5 -34.5t-90.5 -12.5q-59 0 -109.5 19t-87.5 62t-58.5 110.5t-21.5 165.5z" />
<glyph unicode="&#xe30;" horiz-adv-x="586" d="M66 360v105h190v-64q0 -34 14.5 -48.5t48.5 -14.5h226v-10l-58 -152h-235q-92 0 -139 51.5t-47 132.5zM66 973v104h190v-63q0 -34 14.5 -49t48.5 -15h226v-8l-58 -154h-235q-46 0 -81 13.5t-58 38t-35 58.5t-12 75z" />
<glyph unicode="&#xe31;" d="M-649 1741v94h203v-66q0 -90 88 -90h514l-62 -168h-491q-252 0 -252 230z" />
<glyph unicode="&#xe32;" horiz-adv-x="1018" d="M20 1126q37 44 82.5 81.5t99.5 65t116 43t131 15.5q109 0 189.5 -33.5t132.5 -97t77.5 -155t25.5 -207.5v-838h-227v838q0 157 -53.5 227t-167.5 70q-93 0 -165.5 -40.5t-125.5 -103.5z" />
<glyph unicode="&#xe33;" horiz-adv-x="1018" d="M-545 1681q0 47 16 87t45.5 69.5t70 46.5t89.5 17q48 0 89 -16t70.5 -45.5t46 -70t16.5 -88.5q0 -47 -16.5 -86.5t-46 -68.5t-70.5 -45.5t-89 -16.5t-88.5 16t-70 45t-46 68.5t-16.5 87.5zM-414 1681q0 -102 90 -102q91 0 91 102q0 105 -91 105q-90 0 -90 -105zM20 1126 q37 44 82.5 81.5t99.5 65t116 43t131 15.5q109 0 189.5 -33.5t132.5 -97t77.5 -155t25.5 -207.5v-838h-227v838q0 157 -53.5 227t-167.5 70q-93 0 -165.5 -40.5t-125.5 -103.5z" />
<glyph unicode="&#xe34;" d="M-1059 1511l62 168h856v-168h-918z" />
<glyph unicode="&#xe35;" d="M-1059 1511l62 168h663v158l193 53v-379h-918z" />
<glyph unicode="&#xe36;" d="M-1059 1511l62 168h530q-2 5 -2 11.5v15.5q0 40 14.5 74t40 59.5t59.5 40t74 14.5q42 0 77 -14.5t60.5 -40t39.5 -61t14 -76.5q0 -43 -15 -78.5t-40.5 -60.5t-60 -38.5t-73.5 -13.5h-780zM-354 1702q0 -86 73 -86q74 0 74 86q0 88 -74 88q-73 0 -73 -88z" />
<glyph unicode="&#xe37;" d="M-1059 1511l62 168h444v166l156 45v-211h100v166l156 45v-379h-918z" />
<glyph unicode="&#xe38;" d="M-475 -332l39 148h295v-373l-176 -72h-13v287h-145v10z" />
<glyph unicode="&#xe39;" d="M-791 -328q8 35 17 72t18 72h264v-258h66q64 0 87.5 30t23.5 101v127h174v-150q0 -84 -27.5 -134.5t-71 -77.5t-99 -35.5t-110.5 -8.5h-210v252h-132v10z" />
<glyph unicode="&#xe3a;" d="M-403 -319q0 30 11 56t30 46t45 31.5t55 11.5t55 -11.5t45 -31.5t30 -46t11 -56q0 -31 -11 -58t-30 -47.5t-45 -32.5t-55 -12t-55 12t-45 32.5t-30 47.5t-11 58z" />
<glyph unicode="&#xe3f;" horiz-adv-x="1202" d="M145 0v1374h402v228h127v-228q80 -3 150 -26t122.5 -67t82.5 -108.5t30 -150.5q0 -54 -15 -102.5t-40 -87.5t-57 -67.5t-66 -43.5v-4q115 -34 178 -113t63 -213q0 -81 -24.5 -151t-78.5 -122.5t-139 -84t-206 -33.5v-229h-127v229h-402zM356 195h191v417h-191v-417z M356 803h191v377h-191v-377zM674 195q114 5 173.5 54.5t59.5 151.5q0 105 -63 156.5t-170 54.5v-417zM674 807q34 5 65 20t54.5 39.5t37 59.5t13.5 80q0 83 -46 125t-124 49v-373z" />
<glyph unicode="&#xe40;" horiz-adv-x="578" d="M160 0v1307h225v-1125h154l-58 -182h-321z" />
<glyph unicode="&#xe41;" horiz-adv-x="1071" d="M160 0v1307h223v-1125h156l-58 -182h-321zM653 0v1307h226v-1125h155l-59 -182h-322z" />
<glyph unicode="&#xe42;" horiz-adv-x="639" d="M-74 1892q25 48 68.5 92.5t103 78.5t135.5 54.5t166 20.5q49 0 103 -6.5t107.5 -18.5t104.5 -30t93 -41l-90 -166q-28 16 -62 30.5t-72.5 25t-79.5 16.5t-83 6q-68 0 -121 -15t-90 -38q51 -31 93.5 -76.5t73 -108.5t47.5 -146t17 -188v-1200h154l-57 -182h-322v1446 q0 94 -23 166.5t-63 126t-92.5 91t-110.5 62.5z" />
<glyph unicode="&#xe43;" horiz-adv-x="651" d="M-59 1909q27 45 63.5 86t84.5 73t109 51t136 19q84 0 152.5 -26t117.5 -72t76 -109t27 -137q0 -55 -19 -102.5t-47 -90.5t-61 -84t-61 -84t-47 -89.5t-19 -100.5v-1061h153l-57 -182h-322v1251q0 56 19 106t47.5 95t61.5 86t61.5 81t47.5 78.5t19 78.5q0 34 -11 65 t-31 55t-49 38t-66 14q-39 0 -75.5 -12t-68 -34t-57 -52.5t-43.5 -67.5z" />
<glyph unicode="&#xe44;" horiz-adv-x="641" d="M-119 1989l113 151q43 -45 87 -64.5t103 -19.5q38 0 70 11t64 24t68 24t81 11q37 0 72.5 -8.5t68.5 -21.5t62 -29.5t55 -32.5v-121q-55 -32 -106 -80.5t-90.5 -110t-63 -134.5t-23.5 -154v-1252h154l-57 -182h-322v1413q0 88 21.5 164t57.5 139t82 113t95 88 q-12 6 -30 11t-40 5q-37 0 -70.5 -10.5t-68 -23t-71 -23t-78.5 -10.5q-73 0 -130 30.5t-104 92.5z" />
<glyph unicode="&#xe45;" horiz-adv-x="1018" d="M20 1126q37 44 82.5 81.5t99.5 65t116 43t131 15.5q109 0 189.5 -33.5t132.5 -97t77.5 -155t25.5 -207.5v-1354l-227 -92v1446q0 154 -53 225.5t-168 71.5q-93 0 -165.5 -40.5t-125.5 -103.5z" />
<glyph unicode="&#xe46;" horiz-adv-x="1061" d="M96 784q0 61 19 114.5t54.5 94.5t85 67.5t110.5 35.5q27 -35 59.5 -66.5t64.5 -54.5q15 11 32 25.5t33.5 31t31 33t24.5 31.5q69 -8 124 -34.5t94 -69.5t60 -100t21 -126v-1139l-221 -84h-6v1250q0 60 -18.5 94.5t-49.5 42.5q-27 -29 -59 -56t-68 -47q-42 23 -74.5 48.5 t-60.5 56.5q-31 -16 -52 -51.5t-21 -87.5q0 -54 25 -85.5t69 -31.5q34 0 63 16l45 -129q-23 -18 -59 -33.5t-82 -15.5q-52 0 -96.5 19t-77.5 54t-51.5 85t-18.5 112z" />
<glyph unicode="&#xe47;" d="M-954 1731q0 50 17.5 91.5t48 71.5t73 47t92.5 17h485v-139h-471q-77 0 -77 -86q0 -72 49 -91q34 33 77 56t97 39h35q15 -82 98 -82h192v-144h-204q-54 0 -90 24.5t-56 72.5q-84 -38 -141 -107q-51 0 -93 17t-71 47t-45 72.5t-16 93.5z" />
<glyph unicode="&#xe48;" d="M-326 1960v348h179v-299z" />
<glyph unicode="&#xe49;" d="M-582 2224v100l140 31q145 0 145 -121q0 -27 -8 -54.5t-25 -53.5h334l-55 -139h-516v16l80 100q28 39 28 68q0 53 -53 53h-70z" />
<glyph unicode="&#xe4a;" d="M-678 2128q0 176 176 199q26 -36 53 -64t56 -51q26 22 49 50.5t45 64.5q34 -2 65.5 -15.5t55.5 -36t38.5 -52t14.5 -62.5q0 -29 -5 -51.5t-17 -41.5q102 53 102 259h158q-6 -79 -29.5 -142t-61.5 -107t-89.5 -67.5t-114.5 -23.5h-115v38q53 23 53 86q0 61 -45 76 q-21 -25 -47 -47.5t-55 -42.5q-25 14 -49 34t-47 46q-37 -18 -37 -70q0 -64 63 -79v-41h-90q-27 0 -50 12t-40.5 31.5t-27 45t-9.5 52.5z" />
<glyph unicode="&#xe4b;" d="M-487 2122v114h159v148h158v-139h164v-115h-158v-145h-158v137h-165z" />
<glyph unicode="&#xe4c;" d="M-522 1839v86q0 46 14.5 82.5t41.5 61.5t64.5 38t82.5 13h223l61 -154h-246q-59 0 -59 -70v-57h-182z" />
<glyph unicode="&#xe4d;" d="M-545 1681q0 47 16 87t45.5 69.5t70 46.5t89.5 17q48 0 89 -16t70.5 -45.5t46 -70t16.5 -88.5q0 -47 -16.5 -86.5t-46 -68.5t-70.5 -45.5t-89 -16.5t-88.5 16t-70 45t-46 68.5t-16.5 87.5zM-414 1681q0 -102 90 -102q91 0 91 102q0 105 -91 105q-90 0 -90 -105z" />
<glyph unicode="&#xe4e;" horiz-adv-x="1700" d="M307 334v532q0 42 12 65t48 42l335 172q78 39 142 39q38 0 74.5 -11.5t78.5 -31.5l236 -117q49 -24 49 -74q0 -26 -16 -50.5t-52 -41.5l-303 -153q-38 -20 -50.5 -51t-12.5 -74v-523zM901 84v489q0 31 7 47.5t30 28.5l297 152q25 14 59 14q42 0 70.5 -27.5t28.5 -82.5 v-261q0 -30 -4 -52.5t-13 -40t-23.5 -30.5t-35.5 -24z" />
<glyph unicode="&#xe4f;" horiz-adv-x="1118" d="M123 438q0 91 34.5 170.5t93.5 138.5t138.5 93t169.5 34t169.5 -34t138.5 -93t93.5 -138.5t34.5 -170.5q0 -90 -34.5 -170t-93.5 -139.5t-138.5 -94t-169.5 -34.5t-169.5 34.5t-138.5 94t-93.5 139.5t-34.5 170zM190 438q0 -77 29 -144.5t79 -117.5t117 -79t144 -29 t144 29t117 79t79 117.5t29 144.5q0 76 -29 143t-79 117.5t-117 79.5t-144 29t-144 -29t-117 -79.5t-79 -117.5t-29 -143zM328 436q0 48 18 90.5t49.5 74t73 49.5t88.5 18q48 0 90.5 -18.5t73.5 -50t49 -73t18 -88.5q0 -48 -18 -90.5t-49.5 -73.5t-73 -49t-88.5 -18 q-48 0 -90.5 18t-73.5 49.5t-49 73t-18 88.5z" />
<glyph unicode="&#xe50;" horiz-adv-x="1206" d="M90 539q0 124 40 227.5t109.5 178t163 116t199.5 41.5q107 0 200.5 -41.5t162.5 -116t109 -178t40 -227.5q0 -125 -40 -228t-109 -177.5t-162.5 -115.5t-200.5 -41q-106 0 -199.5 41t-163 115.5t-109.5 177.5t-40 228zM301 541q0 -89 22.5 -160t62.5 -121t95.5 -77 t120.5 -27q66 0 121.5 27t96 77t63 121t22.5 160q0 87 -22.5 157.5t-63 120t-96 76.5t-121.5 27q-65 0 -120.5 -27t-95.5 -76.5t-62.5 -120t-22.5 -157.5z" />
<glyph unicode="&#xe51;" horiz-adv-x="1194" d="M86 657q0 96 34.5 177.5t98.5 141t153 93t199 33.5q124 0 222.5 -40t167 -115t105 -182.5t36.5 -242.5q0 -86 -19.5 -165t-55 -146t-85 -121.5t-110 -93t-129.5 -59.5t-144 -21h-121l-63 160v8h143q88 0 157 33t117 92t73.5 140.5t25.5 178.5q0 93 -22.5 166t-63.5 124 t-100 77.5t-132 26.5q-60 0 -111.5 -17t-89 -50.5t-58.5 -82.5t-21 -113q0 -60 14.5 -105t39 -74t56 -43.5t66.5 -14.5h35l123 153h8l92 -126l-168 -189h-102q-61 0 -126.5 21t-120 68t-89.5 122.5t-35 185.5z" />
<glyph unicode="&#xe52;" horiz-adv-x="1329" d="M123 485v920l209 70v-988q0 -82 16.5 -140.5t46.5 -96t72.5 -55t95.5 -17.5h182q66 0 114 6.5t79.5 30t47 69.5t15.5 126v401q0 48 -14 76t-37 39q-26 -29 -58 -58t-67 -51q-42 22 -76 48.5t-63 58.5q-26 -13 -40.5 -58.5t-14.5 -107.5q0 -76 26.5 -119t75.5 -43h90v-152 h-92q-57 0 -109 17t-91.5 55.5t-63 100.5t-23.5 151q0 66 15 123t45 100.5t74.5 71t103.5 35.5q34 -42 72.5 -78t70.5 -57q32 23 66.5 57t66.5 78q67 -9 115 -35.5t79 -65.5t45.5 -87t14.5 -101v-418q0 -96 -30 -169t-81 -122.5t-118.5 -74.5t-142.5 -25h-287 q-100 0 -179.5 29t-135 88.5t-85.5 151t-30 216.5z" />
<glyph unicode="&#xe53;" horiz-adv-x="1260" d="M115 367v350q0 84 22.5 150t65 114t102.5 78t135 43q59 -25 110 -68t85 -94q32 51 80 94t104 68q157 -26 241.5 -121t84.5 -264v-717h-205v696q0 52 -7 89.5t-21 64t-34.5 43t-48.5 25.5q-18 -10 -36.5 -25.5t-33.5 -38t-24.5 -52.5t-9.5 -69v-342h-180v342 q0 39 -10 68.5t-26 52t-34.5 38.5t-36.5 26q-27 -9 -48.5 -25t-36.5 -42t-23 -64t-8 -91v-309q0 -59 11.5 -98.5t32 -63t49 -33.5t62.5 -10h127v-6q-5 -16 -12 -41l-49 -137h-105q-62 0 -120.5 20.5t-103.5 64.5t-72 114.5t-27 169.5z" />
<glyph unicode="&#xe54;" horiz-adv-x="1169" d="M90 528q0 133 33.5 236t96.5 173.5t154.5 107t207.5 36.5h231q72 0 104.5 41.5t32.5 132.5v103h11q11 -3 22.5 -7t22.5 -8l143 -49v-92q0 -75 -23 -132.5t-65 -95.5t-101 -57.5t-131 -19.5h-239q-143 0 -216 -94.5t-73 -263.5q0 -75 16 -134t41.5 -103.5t58 -74.5 t66.5 -47l133 119q-2 12 -3 25.5t-1 25.5q0 66 20 122t57.5 97.5t91.5 64.5t122 23h119v-159h-88q-60 0 -93.5 -42t-33.5 -110q0 -37 9.5 -69.5t27 -56.5t42.5 -38t56 -14h170v-168h-194q-90 0 -149 34.5t-99 94.5l-172 -152q-86 23 -160 69.5t-129.5 115.5t-87 160.5 t-31.5 205.5z" />
<glyph unicode="&#xe55;" horiz-adv-x="1180" d="M90 528q0 206 76 338t221 185q-5 15 -7.5 31t-2.5 34q0 46 15.5 84t43.5 65t65.5 41.5t82.5 14.5q44 0 82 -14.5t65.5 -41.5t43.5 -65t16 -84q0 -9 -1.5 -18t-3.5 -17h37q73 0 106.5 41.5t33.5 132.5v103h8l188 -64v-92q0 -75 -23 -132.5t-64.5 -95.5t-100.5 -57.5 t-131 -19.5h-250q-143 0 -216 -94.5t-73 -263.5q0 -75 16 -134t42 -103.5t59 -74.5t67 -47l142 119q-2 12 -3 25.5t-1 25.5q0 66 19.5 122t57 97.5t91.5 64.5t122 23h119v-159h-88q-59 0 -93 -42t-34 -110q0 -38 10 -70.5t28 -56.5t43 -37.5t56 -13.5h168v-168h-194 q-90 0 -148 34.5t-100 94.5l-178 -152q-86 23 -161.5 69.5t-131 115.5t-87.5 160.5t-32 205.5zM504 1116q0 -40 21.5 -65t58.5 -25t58.5 25t21.5 65q0 42 -21.5 67t-58.5 25t-58.5 -25t-21.5 -67z" />
<glyph unicode="&#xe56;" horiz-adv-x="1147" d="M25 1346l165 94h9l106 -479l234 139h24q96 -1 185 -38.5t158 -108t110 -172.5t41 -232q0 -144 -37 -251.5t-103 -179t-156.5 -106.5t-197.5 -35q-105 0 -189 33t-142.5 91.5t-89.5 138.5t-31 174v55l186 86h8v-100q0 -75 18.5 -130t52.5 -91t82 -54t107 -18 q63 0 114.5 24t88 72t56.5 120t20 167q0 93 -25 162t-65.5 115.5t-90.5 70t-100 25.5l-293 -156l-118 33z" />
<glyph unicode="&#xe57;" horiz-adv-x="1565" d="M115 348v371q0 84 22 150.5t62.5 114.5t98.5 78.5t130 43.5q59 -29 99.5 -69t74.5 -91q34 51 74.5 91.5t99.5 68.5q142 -29 220.5 -123.5t78.5 -263.5v-250q0 -143 -36 -228t-105 -114q22 -6 47.5 -8t50.5 -2q104 0 156.5 85.5t52.5 274.5v762l201 68v-830 q0 -157 -33.5 -254.5t-94 -152t-145 -74t-186.5 -19.5q-57 4 -106.5 12.5t-90.5 20.5l-43 135q36 15 61 39t40.5 60t22.5 85t7 115v254q0 53 -5.5 91t-17 64t-30 42.5t-43.5 26.5q-18 -10 -34.5 -26t-29 -38.5t-20.5 -53t-8 -69.5v-221h-168v221q0 78 -26 122.5t-66 64.5 q-26 -9 -45 -25.5t-32.5 -42.5t-20 -64.5t-6.5 -91.5v-325q0 -53 10.5 -90.5t30.5 -61t48.5 -34.5t63.5 -11h82l-57 -180h-64q-62 0 -120 20.5t-102.5 63.5t-71.5 109.5t-27 158.5z" />
<glyph unicode="&#xe58;" horiz-adv-x="1255" d="M90 520q0 136 33 240.5t96 176t154.5 108t208.5 36.5h252q35 0 59.5 7.5t40 25.5t22.5 48t7 75v121h8q12 -3 24 -7t23 -8l143 -49v-108q0 -76 -22 -130.5t-62.5 -90t-98 -52t-128.5 -16.5h-262q-143 0 -215 -97t-72 -278q0 -124 37 -204t96 -115l160 235h127 q0 -59 11 -106.5t31.5 -81.5t48 -54t60.5 -24l64 66q17 17 25 41t8 69v201h202v-230q0 -69 -18.5 -112t-56.5 -78l-140 -129h-90q-40 0 -79 19t-72.5 50.5t-57.5 71.5t-34 82l-148 -243q-88 23 -159 67t-121.5 110.5t-77.5 157t-27 205.5z" />
<glyph unicode="&#xe59;" horiz-adv-x="1204" d="M102 461v151q0 124 27 215.5t74.5 151t112 88.5t139.5 29q45 0 88 -11.5t81 -32.5t71 -49.5t59 -62.5l63 -233q3 53 17 89t32.5 66t39.5 58.5t38.5 66t29 89t11.5 126.5v131h6q11 -5 22.5 -8t22.5 -8l146 -49v-119q0 -86 -19.5 -144.5t-48.5 -103t-63 -81.5t-63 -79 t-48.5 -95.5t-19.5 -131.5q0 -12 1.5 -28t4 -32.5t6 -33t8.5 -29.5l55 -149q10 -28 22 -44.5t28 -25.5t38 -11.5t52 -2.5v-166h-56q-68 0 -112.5 16t-74.5 44t-49.5 67t-35.5 84l-229 653q-19 22 -46 38.5t-65 16.5q-32 0 -60.5 -18t-50 -55t-34.5 -94.5t-13 -135.5v-135 q0 -81 18 -137t48 -90t68 -49t79 -15h111v-6q-5 -11 -7.5 -21.5t-7.5 -19.5l-47 -137h-88q-83 0 -153 29t-120.5 86.5t-79 144.5t-28.5 203z" />
<glyph unicode="&#xe5b;" horiz-adv-x="1700" d="M307 334v532q0 42 12 65t48 42l335 172q78 39 142 39q38 0 74.5 -11.5t78.5 -31.5l236 -117q49 -24 49 -74q0 -26 -16 -50.5t-52 -41.5l-303 -153q-38 -20 -50.5 -51t-12.5 -74v-523zM901 84v489q0 31 7 47.5t30 28.5l297 152q25 14 59 14q42 0 70.5 -27.5t28.5 -82.5 v-261q0 -30 -4 -52.5t-13 -40t-23.5 -30.5t-35.5 -24z" />
<glyph unicode="&#x2000;" horiz-adv-x="1192" />
<glyph unicode="&#x2001;" horiz-adv-x="2384" />
<glyph unicode="&#x2002;" horiz-adv-x="1192" />
<glyph unicode="&#x2003;" horiz-adv-x="2384" />
<glyph unicode="&#x2004;" horiz-adv-x="794" />
<glyph unicode="&#x2005;" horiz-adv-x="596" />
<glyph unicode="&#x2006;" horiz-adv-x="397" />
<glyph unicode="&#x2007;" horiz-adv-x="397" />
<glyph unicode="&#x2008;" horiz-adv-x="298" />
<glyph unicode="&#x2009;" horiz-adv-x="476" />
<glyph unicode="&#x200a;" horiz-adv-x="132" />
<glyph unicode="&#x2010;" horiz-adv-x="600" d="M55 590v170h492v-170h-492z" />
<glyph unicode="&#x2011;" horiz-adv-x="600" d="M55 590v170h492v-170h-492z" />
<glyph unicode="&#x2012;" horiz-adv-x="600" d="M55 590v170h492v-170h-492z" />
<glyph unicode="&#x2013;" horiz-adv-x="963" d="M55 590v170h854v-170h-854z" />
<glyph unicode="&#x2014;" horiz-adv-x="1485" d="M55 590v170h1375v-170h-1375z" />
<glyph unicode="&#x2018;" horiz-adv-x="414" d="M63 983l158 526h129l-51 -526h-236z" />
<glyph unicode="&#x2019;" horiz-adv-x="414" d="M66 983l49 526h235l-157 -526h-127z" />
<glyph unicode="&#x201a;" horiz-adv-x="422" d="M70 -262l49 510h229l-151 -510h-127z" />
<glyph unicode="&#x201c;" horiz-adv-x="774" d="M74 983l155 526h129l-51 -526h-233zM418 983l157 526h130l-52 -526h-235z" />
<glyph unicode="&#x201d;" horiz-adv-x="774" d="M70 983l51 526h235l-157 -526h-129zM416 983l51 526h235l-157 -526h-129z" />
<glyph unicode="&#x201e;" horiz-adv-x="760" d="M70 -262l49 510h229l-151 -510h-127zM408 -262l49 510h229l-154 -510h-124z" />
<glyph unicode="&#x2020;" horiz-adv-x="682" d="M55 948v178h185v322h202v-322h187v-178h-187v-1079h-202v1079h-185z" />
<glyph unicode="&#x2021;" horiz-adv-x="639" d="M55 176v184h164v596h-164v185h164v307h203v-307h160v-185h-160v-596h160v-184h-160v-307h-203v307h-164z" />
<glyph unicode="&#x2022;" horiz-adv-x="659" d="M82 678q0 58 19.5 107.5t53 85t79 55.5t96.5 20t96.5 -20t79 -55.5t53 -85t19.5 -107.5q0 -59 -19.5 -108t-53 -84.5t-79 -55.5t-96.5 -20t-96.5 20t-79 55.5t-53 84.5t-19.5 108z" />
<glyph unicode="&#x2026;" horiz-adv-x="1364" d="M102 0v274h250v-274h-250zM557 0v274h250v-274h-250zM1012 0v274h250v-274h-250z" />
<glyph unicode="&#x202f;" horiz-adv-x="476" />
<glyph unicode="&#x2030;" horiz-adv-x="7721" d="M102 0v1507l220 -159q19 -14 22.5 -36t3.5 -34v-592l357 356q18 19 28.5 23t24.5 4h332l-549 -520l549 -549h-275q-21 0 -38.5 6.5t-31.5 14.5q-16 10 -28 22l-318 317q-9 10 -16.5 13.5t-13.5 3.5q-10 0 -15.5 -8t-5.5 -21v-289q-1 -17 -7 -30q-5 -11 -15.5 -20 t-30.5 -9h-193zM1227 0v1069h225q13 -1 24 -7q9 -5 17 -16.5t8 -31.5v-82h6q42 83 120 123.5t202 40.5v-246q-167 0 -247.5 -81t-80.5 -249v-461q-1 -17 -7 -30q-5 -11 -16.5 -20t-31.5 -9h-219zM1995 356v713h207q13 -1 24 -7q9 -5 17 -16.5t8 -31.5v-576q0 -51 9 -92 t30.5 -69t56.5 -43t86 -15q72 0 118 27.5t72.5 69t36 89.5t9.5 89v575h215q13 -1 24 -7q9 -5 17 -16.5t8 -31.5v-955q-1 -17 -7 -30q-5 -11 -16.5 -20t-32.5 -9h-217v111h-8q-20 -21 -47.5 -45t-63 -45t-79 -34.5t-95.5 -13.5q-61 0 -127 17.5t-120.5 61t-89.5 117.5 t-35 187zM3178 0v1069h199q13 -1 24 -7q9 -5 17 -16.5t8 -31.5v-53h8q21 40 54 66.5t73 41.5t82.5 21t83.5 6q93 0 164.5 -24.5t120 -70.5t73.5 -112.5t25 -149.5v-680q-1 -17 -7 -30q-5 -11 -16.5 -20t-31.5 -9h-207v657q0 42 -6.5 77t-24.5 61t-50.5 40.5t-84.5 14.5 q-51 0 -96 -16t-78 -49.5t-52 -85.5t-19 -124v-516q-1 -17 -7 -30q-5 -11 -16.5 -20t-32.5 -9h-203zM4276 575q0 124 38 220.5t102 163.5t148.5 102t176.5 35q61 0 107.5 -9.5t81.5 -27.5t60.5 -43t45.5 -55h6v108h219q16 -1 28 -7q11 -5 19.5 -16.5t8.5 -31.5v-973 q0 -103 -42 -181t-113 -130.5t-164.5 -79.5t-196.5 -27q-81 0 -146.5 18.5t-117.5 49t-90 69.5t-63.5 81t-39.5 83.5t-17 75.5h252q20 -62 77 -99.5t140 -37.5q124 0 185 58t61 161v111q-31 -42 -66 -68.5t-73.5 -42t-79 -21.5t-82.5 -6q-92 0 -176.5 39t-148.5 108 t-102 164.5t-38 208.5zM4549 575q0 -41 11.5 -88.5t40 -89t76 -69t119.5 -27.5t120.5 27.5t77 69t40.5 89t12 88.5q0 42 -12 94t-40.5 98.5t-77 78t-120.5 31.5t-119.5 -31.5t-76 -78t-40 -98.5t-11.5 -94zM5476 168q0 4 4 10q2 2 5 4l159 162q31 -31 70 -57.5t82.5 -46.5 t89 -31.5t88.5 -11.5q42 0 77 8.5t61 25t40.5 41.5t14.5 58q0 31 -28.5 49t-74.5 30.5t-105 22.5t-121 24t-121 35.5t-105 57t-74.5 89t-28.5 130.5q0 82 38 143.5t102 102t148.5 60.5t176.5 20q84 0 161 -18.5t135.5 -47t93 -62.5t34.5 -65q0 -10 -6 -18q-3 -4 -6 -6 l-138 -138q-21 25 -47 50.5t-60 46t-76 33t-95 12.5q-94 0 -140 -25t-46 -65q0 -36 29.5 -57t77.5 -35t109.5 -24.5t125.5 -24t125.5 -34t109.5 -55.5t77.5 -87.5t29.5 -129.5q0 -92 -39 -160t-106.5 -112.5t-157.5 -66t-191 -21.5q-165 0 -285.5 44.5t-203.5 125.5 q-5 3 -7 7t-2 7zM6605 0v1069h225q13 -1 24 -7q9 -5 17 -16.5t8 -31.5v-82h6q42 83 120 123.5t202 40.5v-246q-167 0 -247.5 -81t-80.5 -249v-461q-1 -17 -7 -30q-5 -11 -16.5 -20t-31.5 -9h-219zM7344 0v1069h225q14 -1 25 -7q9 -5 17 -16.5t8 -31.5v-955q-1 -17 -7 -30 q-5 -11 -16.5 -20t-32.5 -9h-219zM7344 1317v190h225q14 -1 25 -7q9 -5 17 -16.5t8 -31.5v-190h-226q-14 1 -25 7q-9 5 -16.5 16t-7.5 32z" />
<glyph unicode="&#x2039;" horiz-adv-x="600" d="M43 532l262 414h213l-256 -414l256 -413h-213z" />
<glyph unicode="&#x203a;" horiz-adv-x="612" d="M82 119l256 413l-256 414h213l264 -414l-264 -413h-213z" />
<glyph unicode="&#x2044;" horiz-adv-x="328" d="M-356 0l858 1448h182l-858 -1448h-182z" />
<glyph unicode="&#x205f;" horiz-adv-x="596" />
<glyph unicode="&#x20ac;" horiz-adv-x="1202" d="M49 483v138h127q-2 17 -2 35v36v33.5t2 34.5h-127v137h141q19 114 62 208t110 160.5t157.5 103t205.5 36.5q64 0 120 -11t103.5 -29.5t86.5 -43t69 -51.5l-74 -174q-27 25 -55 45.5t-62 34.5t-75 22t-93 8q-74 0 -128.5 -22t-93.5 -62t-63.5 -97.5t-37.5 -127.5h514 l-59 -137h-469v-68v-71h409l-57 -138h-336q13 -71 38 -127.5t64 -96.5t94 -61.5t128 -21.5q52 0 93.5 8t75.5 22.5t62.5 35.5t54.5 47l74 -174q-30 -29 -69.5 -54t-87.5 -43.5t-104 -29.5t-120 -11q-114 0 -205 36t-157.5 102.5t-109.5 160t-62 207.5h-144z" />
<glyph unicode="&#x2122;" horiz-adv-x="1126" d="M41 1348v100h420v-100h-150v-449h-121v449h-149zM537 899v549h114l144 -272l141 272h115v-549h-117v363l-127 -238h-27l-127 238v-363h-116z" />
<glyph unicode="&#x2212;" horiz-adv-x="1010" d="M70 535v176h870v-176h-870z" />
<glyph unicode="&#x221a;" horiz-adv-x="1096" d="M33 705h229l197 -627l368 1487h220l-482 -1831h-174z" />
<glyph unicode="&#x221e;" horiz-adv-x="1206" d="M57 672q0 69 21 130.5t57.5 108t87.5 74t111 27.5q46 0 84.5 -17t71.5 -45t61 -63t53 -72q27 37 56 72.5t63 62.5t73 43.5t87 16.5q59 0 108 -25t84 -70.5t54.5 -109t19.5 -139.5q0 -69 -21 -131t-57.5 -108.5t-87.5 -73.5t-111 -27q-46 0 -84 16.5t-71 44t-61.5 62.5 t-53.5 73q-27 -38 -56 -73t-62.5 -62t-72.5 -43t-87 -16q-59 0 -108.5 25t-84.5 70t-54.5 108.5t-19.5 140.5zM246 672q0 -41 7 -75t19.5 -58.5t30.5 -38t39 -13.5q40 0 87.5 40t98.5 128q-46 87 -93.5 138t-90.5 51q-24 0 -42 -13t-30.5 -35.5t-19 -54.5t-6.5 -69zM678 682 q46 -87 93.5 -137.5t90.5 -50.5q48 0 73.5 47t25.5 125q0 40 -7 74t-20 58.5t-30.5 38t-39.5 13.5q-40 0 -87.5 -40t-98.5 -128z" />
<glyph unicode="&#x2248;" horiz-adv-x="973" d="M61 342q12 73 33 122.5t51.5 79.5t69 43t84.5 13q49 0 99 -18.5t99 -41t95 -41t88 -18.5q79 0 94 97h137q-8 -75 -27 -126t-48.5 -82t-68.5 -44t-87 -13t-96.5 19t-96.5 41.5t-94 41.5t-90 19q-40 0 -66 -23.5t-38 -68.5h-138zM61 690q12 73 33 122.5t51.5 79.5t69 43 t84.5 13q49 0 99 -18.5t99 -41t95 -41t88 -18.5q79 0 94 97h137q-8 -75 -27 -126t-48.5 -81.5t-68.5 -43.5t-87 -13t-96.5 18.5t-96.5 41t-94 41.5t-90 19q-79 0 -104 -92h-138z" />
<glyph unicode="&#x2260;" horiz-adv-x="1010" d="M82 360v166h291l106 193h-397v166h487l176 321h160l-176 -321h199v-166h-291l-107 -193h398v-166h-488l-176 -321h-158l177 321h-201z" />
<glyph unicode="&#x2264;" horiz-adv-x="1010" d="M49 0v129h854v-129h-854zM49 698v142l854 477v-225l-608 -320v-6l608 -320v-225z" />
<glyph unicode="&#x2265;" horiz-adv-x="1010" d="M106 0v129h855v-129h-855zM106 221v225l609 320v6l-609 320v225l855 -477v-142z" />
<glyph unicode="&#x25fc;" horiz-adv-x="1070" d="M0 0v1070h1070v-1070h-1070z" />
<glyph unicode="&#xf700;" horiz-adv-x="1196" d="M39 1112q93 103 223 160t283 57q43 0 82.5 -5.5t77.5 -16.5q48 2 92 10t85 23.5t80.5 40.5t79.5 61l129 -170q-21 -15 -52.5 -29.5t-68 -25.5t-75 -19t-74.5 -10v-4q48 -38 84 -88.5t61 -110t37.5 -126.5t12.5 -138q0 -134 -38 -253t-103.5 -214t-151.5 -161t-182 -93 h-154l-188 539h-132l50 184h237l172 -516q121 63 189.5 194t68.5 320q0 95 -22 171t-63.5 129t-102.5 81t-139 28q-122 0 -213 -45t-160 -120z" />
<glyph unicode="&#xf701;" d="M-1288 1511l63 168h740v-168h-803z" />
<glyph unicode="&#xf702;" d="M-1288 1511l63 168h547v158l193 53v-379h-803z" />
<glyph unicode="&#xf703;" d="M-1288 1511l63 168h414q-2 5 -2 11.5v15.5q0 40 14.5 74t40 59.5t59.5 40t74 14.5q42 0 77 -14.5t60.5 -40t39.5 -61t14 -76.5q0 -191 -221 -191h-633zM-698 1702q0 -86 73 -86q74 0 74 86q0 88 -74 88q-73 0 -73 -88z" />
<glyph unicode="&#xf704;" d="M-1288 1511l63 168h328v166l156 45v-211h100v166l156 45v-379h-803z" />
<glyph unicode="&#xf705;" d="M-788 1489v450h210v-395z" />
<glyph unicode="&#xf706;" d="M-1085 1792v115l157 32q164 0 164 -143q0 -66 -41 -131h352l-63 -154h-555v17l90 112q35 41 35 82q0 70 -62 70h-77z" />
<glyph unicode="&#xf707;" d="M-1219 1665q0 193 195 217q26 -35 56.5 -66t64.5 -59q32 29 57 61t45 66q38 -2 73 -16.5t61.5 -39t42.5 -56.5t16 -68q0 -32 -5.5 -56.5t-21.5 -45.5q51 26 72.5 95.5t21.5 184.5h185q-31 -371 -318 -371h-125v41q26 11 40 34.5t14 62.5q0 60 -43 75q-23 -26 -51 -50.5 t-62 -47.5q-28 17 -54.5 37.5t-52.5 46.5q-36 -15 -36 -72q0 -67 65 -84v-45h-98q-31 0 -57 13t-45 35t-29.5 50t-10.5 58z" />
<glyph unicode="&#xf708;" d="M-1028 1673v127h180v172h170v-164h184v-127h-178v-170h-168v162h-188z" />
<glyph unicode="&#xf709;" d="M-991 1503v82q0 51 17 92t47 69t71.5 43t91.5 15h258l72 -162v-8h-287q-70 0 -70 -80v-51h-200z" />
<glyph unicode="&#xf70a;" d="M-360 1489v450h210v-395z" />
<glyph unicode="&#xf70b;" d="M-680 1792v115l158 32q164 0 164 -143q0 -32 -10.5 -65.5t-30.5 -65.5h401l-65 -154h-603v17l91 112q34 42 34 82q0 70 -61 70h-78z" />
<glyph unicode="&#xf70c;" d="M-897 1665q0 193 195 217q20 -29 50 -60t68 -65q32 29 58 60.5t45 66.5q38 -2 73 -16.5t62 -38.5t43 -56t16 -69q0 -28 -5.5 -53.5t-20.5 -48.5q57 29 81.5 98.5t24.5 181.5h184q-8 -87 -33.5 -155.5t-68 -116.5t-100 -73.5t-127.5 -25.5h-125v41q53 23 53 97 q0 60 -45 75q-22 -26 -50 -50.5t-63 -47.5q-26 17 -52 37.5t-54 46.5q-35 -15 -35 -72q0 -67 66 -84v-45h-99q-31 0 -57 13t-44.5 35t-29 50t-10.5 58z" />
<glyph unicode="&#xf70d;" d="M-641 1677v129h192v176h175v-165h196v-131h-190v-175h-174v166h-199z" />
<glyph unicode="&#xf70e;" d="M-647 1503v90q0 51 17 91.5t47 68t71.5 42.5t91.5 15h270l70 -161v-9h-297q-69 0 -69 -79v-58h-201z" />
<glyph unicode="&#xf70f;" horiz-adv-x="1894" d="M35 944v12q23 70 71.5 137t118 119.5t157.5 84.5t191 32q117 0 209 -35t155 -102t96.5 -164.5t33.5 -222.5v-148q0 -144 59.5 -212t159.5 -68q66 0 111.5 22t74 67.5t41.5 116t13 167.5v557h227v-574q0 -122 -20.5 -212.5t-64 -155.5t-112 -106t-165.5 -64 q-116 -28 -195.5 -76.5t-114.5 -110.5q26 13 62 22t74 9q37 0 72 -9.5t69 -21.5t67 -21.5t68 -9.5q62 0 101.5 29t70.5 88l127 -100q-53 -94 -129 -136t-164 -42q-49 0 -94 12.5t-87 27.5t-82.5 27.5t-80.5 12.5q-43 0 -92.5 -20t-95.5 -58l-121 143q22 34 53.5 70.5 t70 71.5t83.5 66.5t94 55.5q-70 13 -126.5 47.5t-96.5 87.5t-62 123.5t-22 155.5v164q0 160 -67 243.5t-206 83.5q-55 0 -103.5 -14.5t-88 -38t-69.5 -54t-48 -62.5v-7q15 -14 33.5 -35t36.5 -45t34 -49t25 -47v-588h215v-6l-30 -92t-29 -92h-383v762q-9 26 -23.5 52 t-31.5 50t-35 44.5t-35 35.5z" />
<glyph unicode="&#xf710;" d="M-1167 1741v94h202v-66q0 -90 88 -90h451l-63 -168h-426q-252 0 -252 230z" />
<glyph unicode="&#xf711;" d="M-944 1681q0 45 15.5 85t44 70t69 47.5t90.5 17.5q48 0 89 -16t70 -45.5t45.5 -70t16.5 -88.5q0 -47 -16.5 -86.5t-45.5 -68.5t-70 -45.5t-89 -16.5t-88.5 16.5t-69.5 45.5t-45 68.5t-16 86.5zM-813 1681q0 -102 88 -102q90 0 90 102q0 105 -90 105q-88 0 -88 -105z" />
<glyph unicode="&#xf712;" d="M-1202 1731q0 50 17.5 91.5t48 71.5t73 47t92.5 17h486v-139h-471q-78 0 -78 -86q0 -72 49 -91q34 33 77 56t97 39h35q15 -82 98 -82h193v-144h-205q-54 0 -90 24.5t-56 72.5q-84 -38 -141 -107q-51 0 -93 17t-71 47t-45 72.5t-16 93.5z" />
<glyph unicode="&#xf713;" d="M-670 1960v348h178v-299z" />
<glyph unicode="&#xf714;" d="M-936 2224v100l137 31q148 0 148 -121q0 -27 -9 -54.5t-26 -53.5h336v-6l-58 -133h-516v16l82 100q27 33 27 68q0 53 -53 53h-68z" />
<glyph unicode="&#xf715;" d="M-1114 2128q0 173 176 199q66 -83 111 -115q45 39 92 115q35 -2 66.5 -16t55.5 -36.5t38 -52t14 -61.5q0 -29 -5 -51.5t-18 -41.5q105 52 105 259h155q-6 -79 -29 -142t-61 -107t-89.5 -67.5t-114.5 -23.5h-115v38q53 23 53 86q0 61 -45 76q-20 -23 -45.5 -45.5 t-54.5 -44.5q-25 14 -49.5 34t-49.5 46q-34 -19 -34 -70q0 -64 61 -79v-41h-90q-27 0 -50 12t-40.5 31.5t-27 45t-9.5 52.5z" />
<glyph unicode="&#xf716;" d="M-831 2122v114h159v148h158v-139h164v-115h-158v-145h-158v137h-165z" />
<glyph unicode="&#xf717;" d="M-866 1839v86q0 46 14.5 82.5t41.5 61.5t64 38t82 13h244l62 -154h-267q-59 0 -59 -70v-57h-182z" />
<glyph unicode="&#xf718;" d="M-475 -727l39 147h295v-352l-176 -72h-13v267h-145v10z" />
<glyph unicode="&#xf719;" d="M-791 -723q5 25 14 60t21 83h264v-237h66q111 0 111 108v129h174v-129q0 -256 -281 -256h-237v232h-132v10z" />
<glyph unicode="&#xf71a;" d="M-403 -715q0 29 11 55.5t30 46.5t45 32t55 12q28 0 54 -12t45 -32t30.5 -46.5t11.5 -55.5q0 -61 -41 -104q-41 -45 -100 -45q-28 0 -53.5 11.5t-45 31.5t-31 47t-11.5 59z" />
<glyph unicode="&#xf71b;" horiz-adv-x="1311" d="M53 225h187v518q-9 26 -28.5 55t-42.5 56.5t-47 51t-42 38.5v12q22 70 72.5 137t124 119.5t167 84.5t201.5 32q122 0 219.5 -35t165 -102t103.5 -164.5t36 -222.5v-846q0 -120 -27 -206.5t-73.5 -142t-107.5 -82t-130 -26.5h-53l-250 199v-188l-190 -82v483h178l275 -209 q45 0 74 21.5t46.5 63.5t24 104.5t6.5 144.5v764q0 161 -77 244t-226 83q-61 0 -114.5 -14.5t-97 -38t-75 -54t-49.5 -62.5v-7q16 -15 40 -38.5t48.5 -51t45.5 -55t30 -49.5v-719h-365z" />
<glyph unicode="&#xf71c;" horiz-adv-x="1311" d="M53 225h187v518q-9 26 -28.5 55t-42.5 56.5t-47 51t-42 38.5v12q22 70 72.5 137t124 119.5t167 84.5t201.5 32q122 0 219.5 -35t165 -102t103.5 -164.5t36 -222.5v-891q0 -112 -28.5 -190.5t-77 -127.5t-112 -71.5t-132.5 -22.5h-63l-189 217q-12 -115 -84 -173t-194 -58 h-103v168h88q72 0 112 40.5t40 125.5v100h188l199 -225q28 1 52 11.5t41 34.5t26.5 63.5t9.5 99.5v897q0 161 -77 244t-226 83q-61 0 -114.5 -14.5t-97 -38t-75 -54t-49.5 -62.5v-7q16 -15 40 -38.5t48.5 -51t45.5 -55t30 -49.5v-719h-365z" />
<glyph unicode="&#xf71d;" horiz-adv-x="1350" d="M143 0v1307h224v-738q0 -81 -0.5 -142t-4.5 -118h5q17 45 37.5 92t52.5 107l207 393h16q43 -80 86.5 -158.5t85.5 -158.5l39 -76l54 -108t38 -91h4q-3 57 -3.5 118t-0.5 142v197q0 118 -41 172.5t-135 54.5h-49v164h73q39 0 76 15t66.5 46t48.5 79t22 114h220 q-9 -78 -35 -137.5t-60.5 -101t-75 -65t-79.5 -30.5v-4q43 -11 78 -36.5t60.5 -63.5t39.5 -89t14 -112v-772h-225l-309 594l-303 -594h-226z" />
<glyph horiz-adv-x="1016" d="M-944 1681q0 45 15.5 85t44 70t69 47.5t90.5 17.5q48 0 89 -16t70 -45.5t45.5 -70t16.5 -88.5q0 -47 -16.5 -86.5t-45.5 -68.5t-70 -45.5t-89 -16.5t-88.5 16.5t-69.5 45.5t-45 68.5t-16 86.5zM-813 1681q0 -102 88 -102q90 0 90 102q0 105 -90 105q-88 0 -88 -105z M20 1126q37 44 82.5 81.5t99.5 65t116 43t131 15.5q109 0 189 -33.5t132 -97t77 -155t25 -207.5v-838h-227v838q0 157 -52.5 227t-166.5 70q-93 0 -165.5 -40.5t-125.5 -103.5z" />
<glyph />
<glyph horiz-adv-x="1292" d="M104 727q0 151 34 287t102 238.5t169.5 162.5t235.5 60q135 0 236 -60t169 -162.5t102 -238.5t34 -287q0 -152 -34 -288t-102 -239t-169 -163t-236 -60q-134 0 -235.5 60t-169.5 163t-102 239t-34 288zM342 727q0 -113 19 -213t57 -174.5t95 -118t132 -43.5 q76 0 133 43.5t94.5 118t56.5 174.5t19 213q0 112 -19 211.5t-56.5 174t-94.5 118t-133 43.5q-75 0 -132 -43.5t-95 -118t-57 -174t-19 -211.5z" />
<glyph horiz-adv-x="743" d="M35 1339l317 125h172v-1464h-227v1233l-209 -47z" />
<glyph horiz-adv-x="1092" d="M76 1231q88 115 199.5 179.5t259.5 64.5q103 0 184 -32.5t137.5 -90t86.5 -135.5t30 -168q0 -83 -18.5 -152.5t-54.5 -134t-90 -129t-124 -137.5l-276 -289h591v-207h-915v174l446 461q55 57 93.5 105.5t63 96t35.5 97t11 108.5q0 51 -13.5 93t-39.5 72t-65 46.5 t-91 16.5q-94 0 -168.5 -48t-136.5 -126z" />
<glyph horiz-adv-x="1120" d="M57 199l146 137q62 -74 137.5 -115t177.5 -41q60 0 108 17t81 48.5t51 77t18 103.5q0 122 -63.5 175.5t-194.5 53.5h-123v181h125q119 0 170 53.5t51 165.5q0 54 -16.5 94.5t-46 67.5t-69.5 40t-87 13q-90 0 -166.5 -40t-138.5 -114l-145 135q83 109 199.5 166.5 t265.5 57.5q87 0 166 -25t139 -76t95.5 -127.5t35.5 -179.5q0 -55 -14.5 -103.5t-39 -88t-56.5 -69t-66 -46.5l-2 -2h1l1 -2q43 -14 82 -41.5t69 -68t48 -95t18 -121.5q0 -113 -39.5 -198t-106 -141.5t-155 -85t-185.5 -28.5q-148 0 -267.5 56.5t-203.5 165.5z" />
<glyph horiz-adv-x="1206" d="M55 479l699 977h192v-938h184v-190h-184v-328h-229v328h-608zM324 522h395v576z" />
<glyph horiz-adv-x="1128" d="M63 213l148 137q25 -37 56 -68t68.5 -53.5t83 -35.5t101.5 -13q58 0 106 20t82.5 56.5t54 88.5t19.5 116q0 59 -16 108t-46 84.5t-73.5 55.5t-97.5 20q-80 0 -140 -25.5t-108 -62.5l-147 88l45 719h743v-205h-551l-24 -383l2 -2q46 26 105.5 41.5t139.5 15.5 q79 0 152.5 -28.5t129.5 -85t90 -141.5t34 -199q0 -112 -37.5 -201.5t-103 -152.5t-153.5 -96.5t-189 -33.5q-165 0 -281.5 63.5t-192.5 172.5z" />
<glyph horiz-adv-x="1176" d="M104 686q0 169 32.5 313t100 249.5t170 165t242.5 59.5q58 0 111 -11t99 -30t86 -44.5t73 -54.5l-115 -157q-48 43 -107.5 67.5t-131.5 24.5q-89 0 -149.5 -42t-98 -112t-54.5 -160.5t-18 -187.5q24 37 56.5 68.5t73.5 54.5t90.5 36t107.5 13q84 0 157.5 -33t128.5 -93 t87 -144.5t32 -188.5q0 -117 -35 -210t-96.5 -158t-144.5 -99.5t-180 -34.5q-117 0 -212.5 45.5t-163 134.5t-104.5 222t-37 307zM365 463q0 -61 17.5 -113.5t49 -91.5t76.5 -61.5t100 -22.5q57 0 101.5 20.5t75.5 59t47 92.5t16 121t-17 119t-48 88t-74 55t-95 19 q-54 0 -100 -21.5t-79 -59.5t-51.5 -90.5t-18.5 -113.5z" />
<glyph horiz-adv-x="1022" d="M74 1243v205h866v-174l-543 -1274h-256l531 1243h-598z" />
<glyph horiz-adv-x="1196" d="M104 391q0 65 18.5 120.5t50 101.5t73.5 81.5t90 61.5q-37 23 -71 53t-60.5 69.5t-42 90t-15.5 114.5q0 87 33.5 159t93.5 124t143 80.5t183 28.5q84 0 165 -22.5t144 -70t101.5 -121.5t38.5 -178q0 -58 -18 -107t-46.5 -89.5t-63 -72t-67.5 -54.5q45 -20 88 -51 t76.5 -73.5t53.5 -97.5t20 -122q0 -121 -43.5 -204.5t-113.5 -135.5t-158 -75.5t-177 -23.5q-91 0 -179.5 21.5t-159 70.5t-114 128t-43.5 194zM344 406q0 -59 20 -103t54.5 -72.5t82 -42.5t101.5 -14q52 0 98 14t80 43.5t54 74t20 106.5q0 64 -28 111t-72.5 78.5t-99.5 48 t-109 20.5q-66 -23 -105.5 -55t-61 -68t-28 -72.5t-6.5 -68.5zM389 1067q0 -66 29 -107.5t70.5 -66.5t87.5 -38.5t81 -23.5q42 22 71.5 46.5t48 53t26.5 62t8 74.5q0 51 -15.5 91t-43.5 67.5t-66.5 42t-83.5 14.5q-99 0 -156 -56t-57 -159z" />
<glyph horiz-adv-x="1176" d="M109 971q0 117 35 210t96.5 158t144.5 99.5t180 34.5q117 0 212 -45.5t162.5 -134.5t104.5 -222t37 -307q0 -169 -32.5 -313t-100 -249.5t-170 -165t-241.5 -59.5q-59 0 -111.5 11t-98.5 30t-86 44.5t-73 54.5l115 157q48 -43 107.5 -67.5t131.5 -24.5q89 0 149.5 42 t98 112t54 160.5t18.5 187.5q-24 -37 -56.5 -68.5t-73.5 -54.5t-90.5 -36t-107.5 -13q-84 0 -157.5 33t-128.5 93t-87 144.5t-32 188.5zM338 983q0 -67 17 -119t48 -88t74 -55t94 -19q55 0 101 21.5t79 59.5t51.5 90t18.5 114q0 61 -17.5 113.5t-49 91.5t-76.5 61.5 t-100 22.5q-57 0 -101.5 -21t-75.5 -59t-47 -92t-16 -121z" />
</font>
</defs>
</svg>
