<?xml version="1.0" standalone="no"?>
<!DOCTYPE svg PUBLIC "-//W3C//DTD SVG 1.1//EN" "http://www.w3.org/Graphics/SVG/1.1/DTD/svg11.dtd" >
<svg xmlns="http://www.w3.org/2000/svg" xmlns:xlink="http://www.w3.org/1999/xlink" version="1.1">
<metadata></metadata>
<defs>
<font id="krungsri_condensedbold" horiz-adv-x="0" >
<font-face units-per-em="2048" ascent="1638" descent="-410" />
<missing-glyph horiz-adv-x="553" />
<glyph unicode="&#xe2f;&#xe2f;" horiz-adv-x="1483" d="M86 1124v187h260v-185q0 -48 8 -80t22.5 -51.5t34.5 -28t44 -8.5q30 0 57.5 12.5t49 39.5t34 69.5t12.5 102.5v145l289 -53v-1274h-289v903h-4q-15 -31 -38 -57.5t-53 -46t-66 -30.5t-78 -11q-60 0 -111.5 19.5t-90 63t-60 113t-21.5 170.5zM1063 0v1327l289 -53v-1274 h-289z" />
<glyph unicode="fl" horiz-adv-x="356" d="M-348 0l837 1448h216l-840 -1448h-213z" />
<glyph unicode="&#xe4f;&#x22;" horiz-adv-x="1118" d="M123 438q0 91 34.5 170.5t93.5 138.5t138.5 93t169.5 34t169.5 -34t138.5 -93t93.5 -138.5t34.5 -170.5q0 -90 -34.5 -170t-93.5 -139.5t-138.5 -94t-169.5 -34.5t-169.5 34.5t-138.5 94t-93.5 139.5t-34.5 170zM190 438q0 -77 29 -144.5t79 -117.5t117 -79t144 -29 t144 29t117 79t79 117.5t29 144.5q0 76 -29 143t-79 117.5t-117 79.5t-144 29t-144 -29t-117 -79.5t-79 -117.5t-29 -143zM283 1450h225l-43 -475h-137zM328 436q0 48 18 90.5t49.5 74t73 49.5t88.5 18q48 0 90.5 -18.5t73.5 -50t49 -73t18 -88.5q0 -48 -18 -90.5 t-49.5 -73.5t-73 -49t-88.5 -18q-48 0 -90.5 18t-73.5 49.5t-49 73t-18 88.5zM608 1450h226l-46 -475h-137z" />
<glyph unicode="&#xe24;&#xe32;" horiz-adv-x="2075" d="M33 936v12q24 73 76.5 142.5t129 124t173.5 87.5t209 33q118 0 214.5 -36.5t165.5 -104.5q81 63 183.5 102t224.5 39t221 -36t168.5 -105t107 -169t36.5 -228v-1319l-283 -92h-6v1407q0 145 -66 218.5t-188 73.5q-90 0 -159.5 -30.5t-111.5 -73.5q13 -42 19 -88.5 t6 -95.5v-1319l-283 -92h-6v1407q0 145 -66 218.5t-188 73.5q-52 0 -98.5 -11.5t-84.5 -30t-67 -43t-47 -50.5v-4q15 -15 33.5 -37t36.5 -47.5t33 -52t24 -49.5v-522h201v-7l-70 -231h-419v743q-19 62 -52 113t-67 80z" />
<glyph unicode="&#xe26;&#xe32;" horiz-adv-x="2058" d="M45 223v6h182v494q-9 31 -28.5 62.5t-43 60t-47 52t-40.5 38.5v12q24 73 76.5 142.5t128.5 124t173 87.5t209 33t203 -29.5t160 -86.5q75 52 170 84t205 32q122 0 220.5 -36t168 -105t107 -169t36.5 -228v-1319l-283 -92h-6v1407q0 145 -66 218.5t-188 73.5 q-68 0 -125 -18t-100 -47q19 -50 29 -105t10 -118v-1319l-283 -92h-6v1407q0 145 -70 218.5t-192 73.5q-52 0 -98.5 -11.5t-84.5 -30t-67 -43t-47 -50.5v-4q15 -15 40 -40.5t50.5 -54.5t47 -59t30.5 -53v-739h-418z" />
<glyph unicode="fi" horiz-adv-x="1311" d="M61 858v227h132v84q0 86 18.5 154t59 115t106 71.5t160.5 24.5q78 0 125 -6t75 -12v-218q-29 4 -56 6.5t-58 2.5q-49 0 -79 -11t-46 -30.5t-21.5 -47t-5.5 -61.5v-72h236v-227h-236v-1311h-6l-272 91v1220h-132zM889 1208v271h299v-271h-299zM897 0v1085h283v-1085h-283z " />
<glyph unicode="fl" horiz-adv-x="1311" d="M61 858v227h132v84q0 86 18.5 154t59 115t106 71.5t160.5 24.5q78 0 125 -6t75 -12v-218q-29 4 -56 6.5t-58 2.5q-49 0 -79 -11t-46 -30.5t-21.5 -47t-5.5 -61.5v-72h236v-227h-236v-1311h-6l-272 91v1220h-132zM897 0v1571h6l277 -90v-1481h-283z" />
<glyph unicode="fi" />
<glyph />
<glyph />
<glyph unicode=" "  horiz-adv-x="553" />
<glyph unicode="&#x09;" horiz-adv-x="553" />
<glyph unicode="&#xa0;" horiz-adv-x="553" />
<glyph unicode="!" horiz-adv-x="602" d="M147 1108v340h308v-340l-68 -629h-172zM154 0v319h295v-319h-295z" />
<glyph unicode="&#x22;" horiz-adv-x="811" d="M86 1526h262l-51 -551h-160zM463 1526h262l-51 -551h-160z" />
<glyph unicode="#" horiz-adv-x="1229" d="M55 342v217h209l49 344h-190v217h223l49 328h207l-43 -328h236l49 328h211l-49 -328h168v-217h-199l-51 -344h184v-217h-225l-49 -342h-209l49 342h-242l-49 -342h-211l53 342h-170zM475 559h242l49 344h-242z" />
<glyph unicode="$" horiz-adv-x="1229" d="M104 166l156 203q32 -29 69 -52t75.5 -40.5t77.5 -28.5t77 -15v351q-81 19 -154 48t-128.5 75.5t-88 115.5t-32.5 168q0 97 33.5 170.5t89 124t128 79t150.5 36.5v201h158v-203q90 -13 183.5 -53t197.5 -117l-154 -203q-66 51 -124.5 74.5t-104.5 36.5v-303 q44 -14 90.5 -31t90.5 -41.5t83.5 -57.5t69 -77t46.5 -101.5t17 -130.5q0 -101 -33 -175.5t-88 -125.5t-126.5 -80.5t-147.5 -38.5v-204h-158v202q-54 6 -112.5 19.5t-117 37t-115.5 57.5t-108 79zM455 1014q0 -27 6.5 -47t20 -35.5t33.5 -28t48 -24.5v266 q-108 -15 -108 -131zM713 236q48 15 71 54t23 95q0 31 -7.5 55t-20.5 42.5t-30 32.5t-36 26v-305z" />
<glyph unicode="%" horiz-adv-x="1561" d="M82 1092q0 81 18.5 151t57 121.5t97.5 81t140 29.5t140 -29.5t97.5 -81t57.5 -121.5t19 -151q0 -82 -19 -152t-57.5 -121.5t-97.5 -80.5t-140 -29t-140 29t-97.5 80.5t-57 121.5t-18.5 152zM254 0l838 1448h215l-840 -1448h-213zM319 1092q0 -94 21 -145.5t55 -51.5 t55 51.5t21 145.5t-21 145t-55 51t-55 -51t-21 -145zM852 367q0 81 18.5 151t57 121.5t97.5 81t140 29.5t140 -29.5t97.5 -81t57.5 -121.5t19 -151t-19 -151t-57.5 -121.5t-97.5 -81t-140 -29.5t-140 29.5t-97.5 81t-57 121.5t-18.5 151zM1090 367q0 -94 20.5 -145.5 t54.5 -51.5t55 51.5t21 145.5t-21 145t-55 51t-54.5 -51t-20.5 -145z" />
<glyph unicode="&#x26;" horiz-adv-x="1352" d="M90 385q0 143 72 247.5t207 170.5q-47 60 -80 136.5t-33 166.5q0 78 27.5 146t78.5 118.5t124 79.5t163 29q84 0 153 -28t118 -76t75.5 -113t26.5 -140q0 -70 -19.5 -129.5t-55.5 -108t-86 -87t-111 -66.5l190 -231q38 51 72.5 113.5t54.5 138.5l223 -97 q-40 -106 -89.5 -196t-106.5 -152l147 -180l-184 -158l-131 158q-68 -77 -170 -114.5t-224 -37.5q-96 0 -177 28t-140 80.5t-92 128.5t-33 173zM397 397q0 -44 12.5 -79.5t35 -60t53 -37.5t65.5 -13q59 0 111 17t92 71l-264 326q-60 -38 -82.5 -95t-22.5 -129zM512 1090 q0 -35 6 -61.5t18 -49.5t31 -46t45 -50q87 32 125.5 86.5t38.5 130.5q0 78 -34 124t-97 46q-32 0 -57 -13t-42 -37t-25.5 -57t-8.5 -73z" />
<glyph unicode="'" horiz-adv-x="434" d="M86 1526h262l-51 -551h-160z" />
<glyph unicode="(" horiz-adv-x="758" d="M119 588q0 160 31 310t91.5 284t149.5 247.5t205 200.5l113 -149q-92 -79 -155 -181.5t-102.5 -219t-57 -242t-17.5 -250.5t17.5 -250.5t57 -242t102.5 -219t155 -181.5l-113 -150q-116 87 -205 201t-149.5 248t-91.5 284t-31 310z" />
<glyph unicode=")" horiz-adv-x="758" d="M49 -305q91 79 154.5 181.5t103 219t57 242t17.5 250.5t-17.5 250.5t-57 242t-103 219t-154.5 181.5l113 149q116 -87 205 -200.5t149.5 -247.5t91.5 -284t31 -310t-31 -310t-91.5 -284t-149.5 -248t-205 -201z" />
<glyph unicode="*" horiz-adv-x="946" d="M78 1053l233 96l-231 96l119 176l196 -147l-37 242h230l-37 -242l197 147l118 -176l-231 -96l233 -96l-120 -179l-199 142l39 -234h-230l39 234l-198 -142z" />
<glyph unicode="+" horiz-adv-x="983" d="M41 514v217h332v365h237v-365h332v-217h-332v-364h-237v364h-332z" />
<glyph unicode="," horiz-adv-x="500" d="M57 -227q79 12 124.5 71.5t39.5 155.5h-119v319h295v-251q0 -63 -13.5 -127t-47 -118.5t-92 -94t-148.5 -52.5z" />
<glyph unicode="-" horiz-adv-x="623" d="M49 569v209h524v-209h-524z" />
<glyph unicode="." horiz-adv-x="500" d="M102 0v319h295v-319h-295z" />
<glyph unicode="/" horiz-adv-x="1081" d="M41 -264l764 1911h235l-764 -1911h-235z" />
<glyph unicode="0" horiz-adv-x="1229" d="M72 727q0 100 14.5 195t43.5 178.5t73.5 153t104.5 119.5t136.5 78t169.5 28t169.5 -28t137 -78t105 -119.5t73.5 -153t43.5 -178.5t14.5 -195t-14.5 -195t-43.5 -178.5t-73.5 -153t-105 -119.5t-137 -78t-169.5 -28t-169.5 28t-136.5 78t-104.5 119.5t-73.5 153 t-43.5 178.5t-14.5 195zM371 727q0 -107 15 -198.5t45 -158.5t75.5 -105t107.5 -38t108 38t76 105t45 158.5t15 198.5t-15 198.5t-45 158.5t-76 105t-108 38t-107.5 -38t-75.5 -105t-45 -158.5t-15 -198.5z" />
<glyph unicode="1" horiz-adv-x="1229" d="M270 1339l338 127h211v-1466h-284v1182l-199 -39z" />
<glyph unicode="2" horiz-adv-x="1229" d="M119 1217q186 262 479 262q110 0 196 -35t145.5 -96t90.5 -144t31 -178q0 -80 -17 -148.5t-52 -132.5t-87.5 -126.5t-124.5 -131.5l-235 -227h553v-260h-963v217l449 440q54 52 88.5 97.5t54.5 88t27.5 84.5t7.5 89q0 94 -44.5 149.5t-133.5 55.5q-78 0 -148.5 -45.5 t-126.5 -122.5z" />
<glyph unicode="3" horiz-adv-x="1229" d="M86 217l190 164q56 -74 130 -111t163 -37q48 0 87 13.5t67 39t43.5 63t15.5 85.5q0 112 -53.5 158.5t-165.5 46.5h-106v213h106q50 0 86 10.5t59.5 33.5t34.5 60.5t11 90.5q0 42 -13 74.5t-37 54.5t-57.5 33.5t-73.5 11.5q-77 0 -153 -37t-131 -111l-191 164 q87 125 214 183.5t276 58.5q90 0 172.5 -25t145.5 -76t100.5 -129t37.5 -184q0 -51 -13.5 -98.5t-35.5 -87t-50.5 -69.5t-59.5 -48q-1 -1 -1 -3q0 -1 1 -1q38 -13 74 -41t64 -68.5t45 -93.5t17 -117q0 -112 -39.5 -198.5t-107.5 -145t-159.5 -89t-194.5 -30.5 q-74 0 -145 14.5t-135 44.5t-119.5 75.5t-98.5 107.5z" />
<glyph unicode="4" horiz-adv-x="1229" d="M49 492l715 972h237v-913h179v-236h-179v-315h-290v315h-598zM385 555h328v467z" />
<glyph unicode="5" horiz-adv-x="1229" d="M111 223l190 164q25 -37 53 -65.5t61.5 -48t74 -30t90.5 -10.5q49 0 89.5 16.5t69 47t44.5 73.5t16 97q0 50 -13 92.5t-38.5 74t-62.5 49t-85 17.5q-69 0 -117 -24t-82 -55l-184 96l37 731h776v-260h-538l-11 -303l2 -2q37 20 89 33.5t126 13.5q76 0 148 -28.5t128 -86.5 t90 -145.5t34 -204.5q0 -111 -36.5 -201.5t-102 -154.5t-156.5 -99t-199 -35q-167 0 -287 61.5t-206 186.5z" />
<glyph unicode="6" horiz-adv-x="1229" d="M127 684q0 167 34.5 312t105 252.5t177.5 169t252 61.5q107 0 201 -38t168 -100l-143 -202q-47 37 -97 58.5t-110 21.5q-75 0 -128 -32t-87 -87.5t-50.5 -130t-19.5 -158.5h4q45 59 117 94t174 35q76 0 147 -31.5t125.5 -91t87.5 -144.5t33 -192q0 -117 -35.5 -210.5 t-99 -159t-152 -101t-194.5 -35.5q-107 0 -200 41.5t-162 128.5t-108.5 221t-39.5 318zM442 465q0 -52 14 -96.5t39 -77.5t60.5 -51.5t77.5 -18.5q48 0 84.5 18t62 50.5t38.5 78t13 99.5q0 53 -13.5 96.5t-39 75t-62.5 49t-83 17.5q-45 0 -80 -19t-60 -52t-38 -76.5 t-13 -92.5z" />
<glyph unicode="7" horiz-adv-x="1229" d="M180 1188v260h889v-219l-514 -1229h-336l500 1188h-539z" />
<glyph unicode="8" horiz-adv-x="1229" d="M104 397q0 67 20 123.5t51.5 102t71.5 79.5t79 56q-35 24 -67.5 54t-58 69t-40.5 88t-15 112q0 73 30.5 144.5t90 127.5t147.5 91t203 35q88 0 171.5 -23t148.5 -71.5t105 -123.5t40 -180q0 -60 -18.5 -110.5t-45.5 -90.5t-57 -70t-53 -50q35 -18 73.5 -49.5t70.5 -73.5 t52.5 -95t20.5 -114q0 -85 -21.5 -152t-58.5 -117.5t-87 -85.5t-106.5 -56.5t-117.5 -31.5t-119 -10q-91 0 -182 21.5t-164 71t-118.5 130.5t-45.5 199zM406 420q0 -96 55.5 -146.5t152.5 -50.5t153 51t56 148q0 51 -20 92.5t-53.5 70.5t-77.5 44.5t-92 15.5 q-59 -22 -93.5 -51.5t-52.5 -61t-23 -61t-5 -51.5zM444 1053q0 -39 14 -67t35.5 -49t48 -35t51 -23.5t45 -15.5t30.5 -11q61 38 86.5 84t25.5 117q0 40 -12 73.5t-34 58t-52.5 38.5t-67.5 14q-43 0 -75 -14t-53 -38.5t-31.5 -58t-10.5 -73.5z" />
<glyph unicode="9" horiz-adv-x="1229" d="M111 967q0 117 35.5 210.5t99 159t152 101t194.5 35.5q107 0 200 -41.5t162 -128.5t108.5 -221t39.5 -318q0 -168 -34.5 -313t-105 -252t-178 -168.5t-252.5 -61.5q-106 0 -200 38t-168 99l143 203q47 -37 97 -58.5t110 -21.5q75 0 128 32t87 87.5t50.5 130t19.5 158.5 h-4q-45 -59 -117 -94t-174 -35q-76 0 -147 31.5t-125.5 91t-87.5 144.5t-33 192zM397 981q0 -53 14 -96.5t39.5 -75t62.5 -49t83 -17.5q45 0 80 19t59.5 52t37.5 76.5t13 92.5q0 52 -14 96.5t-39 77.5t-60 51.5t-77 18.5q-48 0 -85 -18t-62.5 -50.5t-38.5 -78t-13 -99.5z " />
<glyph unicode=":" horiz-adv-x="500" d="M102 0v319h295v-319h-295zM102 750v319h295v-319h-295z" />
<glyph unicode=";" horiz-adv-x="500" d="M57 -227q79 12 124.5 71.5t39.5 155.5h-119v319h295v-251q0 -63 -13.5 -127t-47 -118.5t-92 -94t-148.5 -52.5zM102 750v319h295v-319h-295z" />
<glyph unicode="&#x3c;" horiz-adv-x="983" d="M37 616v179l868 514v-285l-549 -315v-7l549 -315v-285z" />
<glyph unicode="=" horiz-adv-x="983" d="M82 338v201h819v-201h-819zM82 707v200h819v-200h-819z" />
<glyph unicode="&#x3e;" horiz-adv-x="983" d="M78 102v285l549 315v7l-549 315v285l868 -514v-179z" />
<glyph unicode="?" horiz-adv-x="1069" d="M61 1227q94 132 213 192t267 60q83 0 160 -26.5t136 -78.5t94.5 -128.5t35.5 -176.5q0 -84 -28 -152.5t-74.5 -121.5t-107 -90.5t-124.5 -59.5l-19 -166h-223l-22 318q145 11 222 73t77 174q0 42 -13 73.5t-34.5 52.5t-49.5 31.5t-57 10.5q-89 0 -152 -34.5t-118 -110.5z M356 0v319h295v-319h-295z" />
<glyph unicode="@" horiz-adv-x="1909" d="M143 487q0 142 32.5 267t91 229t140.5 185.5t181 138.5t212.5 86.5t235.5 29.5q173 0 308.5 -54.5t229 -148.5t142.5 -218.5t49 -264.5q0 -81 -14 -161t-41 -152.5t-68 -134t-95.5 -107t-122 -71t-148.5 -25.5q-32 0 -64 10t-60.5 30t-52 51.5t-38.5 74.5 q-24 -39 -55 -69t-64 -50.5t-66 -30.5t-61 -10q-65 0 -120.5 26t-95.5 75t-62.5 118t-22.5 156q0 114 30.5 212.5t82.5 170.5t121 113t147 41q77 0 138 -40t93 -108l25 109h221l-94 -559q-5 -32 -6 -64t8 -58t29.5 -42.5t58.5 -16.5q54 0 102 42t83.5 111t56 158.5 t20.5 184.5q0 135 -42 243t-120 183t-189 115.5t-249 40.5q-173 0 -312 -63.5t-236.5 -174t-150 -260t-52.5 -320.5q0 -156 44.5 -285t130.5 -221.5t212 -143t290 -50.5q70 0 142.5 14.5t143 40.5t136 63.5t121.5 82.5l53 -99q-128 -105 -277.5 -164t-305.5 -59 q-201 0 -355 60.5t-258.5 169.5t-158.5 260.5t-54 332.5zM754 479q0 -91 36.5 -139.5t92.5 -48.5q41 0 75.5 32t58.5 83t37.5 115.5t12.5 129.5q0 75 -33.5 116.5t-93.5 41.5q-40 0 -74 -26t-59 -70.5t-39 -104.5t-14 -129z" />
<glyph unicode="A" horiz-adv-x="1430" d="M53 0l527 1456h270l526 -1456h-313l-98 309h-500l-98 -309h-314zM557 557h315l-155 537h-4z" />
<glyph unicode="B" horiz-adv-x="1298" d="M135 0v1448h567q91 0 171 -22.5t140 -69.5t95 -118.5t35 -168.5q0 -58 -15.5 -108t-41 -90.5t-57 -69t-62.5 -43.5v-4q245 -78 245 -332q0 -88 -24.5 -165t-82 -134t-152.5 -90t-236 -33h-582zM420 256h266q50 0 93 7t75 27.5t50 56.5t18 93q0 55 -16.5 90t-46 55 t-68.5 28t-84 8h-287v-365zM420 872h262q27 0 57 8.5t55 28t41.5 51.5t16.5 78q0 73 -38.5 113.5t-119.5 40.5h-274v-320z" />
<glyph unicode="C" horiz-adv-x="1343" d="M90 727q0 166 46.5 304.5t132.5 238t209 154.5t276 55q87 0 160 -16t135 -46t113.5 -72t94.5 -94l-172 -190q-40 40 -77 69t-75.5 48t-79.5 27.5t-89 8.5q-89 0 -158.5 -32t-117.5 -93.5t-73.5 -152.5t-25.5 -209t26.5 -209t76 -152.5t120 -93.5t158.5 -32q48 0 90 8.5 t81.5 27.5t78 47.5t78.5 69.5l172 -190q-43 -51 -95.5 -93t-116 -72t-137.5 -46.5t-161 -16.5q-153 0 -277 55t-211 154.5t-134.5 237.5t-47.5 305z" />
<glyph unicode="D" horiz-adv-x="1376" d="M135 0v1448h461q126 0 226.5 -28t177 -77.5t131 -117.5t89 -147.5t50.5 -167t16 -177.5q0 -183 -54 -320.5t-148 -229t-222 -137.5t-276 -46h-451zM426 260h160q81 0 141.5 20t104 54.5t72 81t45.5 99t23.5 108.5t6.5 110q0 102 -22 186t-68 144t-118.5 92.5t-172.5 32.5 h-172v-928z" />
<glyph unicode="E" horiz-adv-x="1180" d="M135 0v1448h932v-256h-645v-318h592v-256h-592v-362h663v-256h-950z" />
<glyph unicode="F" horiz-adv-x="1161" d="M127 0v1448h944v-260h-653v-365h614v-260h-614v-563h-291z" />
<glyph unicode="G" horiz-adv-x="1413" d="M90 727q0 166 47.5 304.5t135.5 238t212 154.5t277 55q88 0 166 -17t144 -46.5t118 -70t88 -88.5l-176 -186q-35 36 -71.5 63t-76 44.5t-84.5 26.5t-98 9q-88 0 -159 -32t-120.5 -93.5t-76.5 -152.5t-27 -209t26.5 -209t76 -152.5t120 -93.5t158.5 -32q37 0 70 4t63 13 t57.5 24t55.5 36v256h-283v261h565v-648q-42 -43 -98 -81t-124 -67t-147.5 -46t-168.5 -17q-153 0 -277 55t-211 154.5t-134.5 237.5t-47.5 305z" />
<glyph unicode="H" horiz-adv-x="1343" d="M135 0v1448h291v-571h492v571h290v-1448h-290v616h-492v-616h-291z" />
<glyph unicode="I" horiz-adv-x="578" d="M143 0v1448h291v-1448h-291z" />
<glyph unicode="J" horiz-adv-x="1030" d="M39 217l180 172q18 -29 41.5 -56.5t51.5 -49t59.5 -34.5t66.5 -13q42 0 74 11t53.5 39t32 76.5t10.5 124.5v961h295v-956q0 -135 -32 -233t-90.5 -161t-141.5 -93t-186 -30q-78 0 -142.5 20t-116 54t-90 77.5t-65.5 90.5z" />
<glyph unicode="K" horiz-adv-x="1319" d="M135 0v1448h291v-643l489 643h334l-485 -627l522 -821h-352l-369 588l-139 -185v-403h-291z" />
<glyph unicode="L" horiz-adv-x="1077" d="M135 0v1448h291v-1188h606v-260h-897z" />
<glyph unicode="M" horiz-adv-x="1532" d="M135 0v1448h287l344 -647l344 647h287v-1448h-283v971l-334 -627h-28l-334 627v-971h-283z" />
<glyph unicode="N" horiz-adv-x="1389" d="M135 0v1448h254l578 -961v961h286v-1448h-254l-577 961v-961h-287z" />
<glyph unicode="O" horiz-adv-x="1495" d="M90 727q0 166 49 304.5t136.5 238t208 154.5t264.5 55q143 0 263.5 -55t208 -154.5t136.5 -238t49 -304.5q0 -167 -49 -305t-136.5 -237.5t-208 -154.5t-263.5 -55q-144 0 -264.5 55t-208 154.5t-136.5 237.5t-49 305zM389 727q0 -118 27 -211.5t75 -158t113.5 -98.5 t143.5 -34q77 0 142.5 34t113.5 98.5t75 158t27 211.5t-27 211.5t-75 158t-113.5 98.5t-142.5 34q-78 0 -143.5 -34t-113.5 -98.5t-75 -158t-27 -211.5z" />
<glyph unicode="P" horiz-adv-x="1206" d="M135 0v1448h498q125 0 217 -38t152 -103.5t89 -154t29 -189.5q0 -112 -33.5 -206t-98 -161.5t-159 -105t-215.5 -37.5h-188v-453h-291zM426 711h197q45 0 82 19.5t64 53t41.5 77.5t14.5 93q0 63 -15 107.5t-42.5 72.5t-66.5 41t-87 13h-188v-477z" />
<glyph unicode="Q" horiz-adv-x="1692" d="M90 727q0 166 49 304.5t136.5 238t208 154.5t264.5 55q143 0 263.5 -55t208 -154.5t136.5 -238t49 -304.5q0 -156 -46.5 -287t-127.5 -231q12 -6 25.5 -9t25.5 -3q26 0 51 14.5t47.5 39t43 57t38.5 69.5l156 -146q-26 -62 -60 -109.5t-74.5 -80t-85 -49.5t-89.5 -17 q-65 0 -123.5 26t-112.5 67q-72 -45 -154 -69t-171 -24q-144 0 -264.5 55t-208 154.5t-136.5 237.5t-49 305zM389 727q0 -71 9 -133t28 -115q35 45 71.5 71.5t71.5 40.5t66.5 18.5t56.5 4.5q47 0 96 -12t96 -32.5t90 -49t79 -61.5q9 21 18.5 46.5t17 58t12.5 72.5t5 91 q0 118 -27 211.5t-75 158t-113.5 98.5t-142.5 34q-78 0 -143.5 -34t-113.5 -98.5t-75 -158t-27 -211.5zM522 319q47 -46 103 -70t123 -24q20 0 45 4t50 13.5t48.5 24.5t40.5 36q-27 24 -59.5 44.5t-66.5 35t-66.5 23t-59.5 8.5q-47 0 -88 -20.5t-70 -74.5z" />
<glyph unicode="R" horiz-adv-x="1315" d="M135 0v1448h500q114 0 215 -23t177 -76t120.5 -141.5t44.5 -218.5q0 -73 -15.5 -140t-49.5 -124t-88 -102t-130 -74l324 -549h-322l-276 502h-213v-502h-287zM422 754h227q128 0 186 52.5t58 168.5q0 60 -15 101.5t-44 67t-72 37t-100 11.5h-240v-438z" />
<glyph unicode="S" horiz-adv-x="1249" d="M98 193l160 210q93 -89 185.5 -126t185.5 -37q99 0 146.5 37.5t47.5 109.5q0 59 -27.5 99.5t-69 68t-90 45.5t-91.5 33q-72 24 -143 55.5t-127 80.5t-90.5 119.5t-34.5 172.5q0 103 36 181.5t100 131t152 79t193 26.5q145 0 274 -48.5t223 -136.5l-153 -198 q-79 60 -160 90.5t-172 30.5q-54 0 -89 -10.5t-55.5 -28.5t-29 -41.5t-8.5 -49.5q0 -42 17 -71.5t48 -51.5t74.5 -39.5t95.5 -35.5q47 -17 97.5 -37t99 -46.5t91.5 -61t75.5 -81t51.5 -107t19 -138.5q0 -112 -39 -195.5t-106.5 -138.5t-158 -82t-193.5 -27q-78 0 -153.5 15 t-144.5 43.5t-129 69t-108 90.5z" />
<glyph unicode="T" horiz-adv-x="1143" d="M49 1188v260h1045v-260h-377v-1188h-291v1188h-377z" />
<glyph unicode="U" horiz-adv-x="1352" d="M127 569v879h291v-856q0 -179 61.5 -267.5t196.5 -88.5t196.5 88.5t61.5 267.5v856h291v-879q0 -139 -36.5 -249t-106 -186.5t-172 -117.5t-234.5 -41t-234.5 41t-172 117.5t-106 186.5t-36.5 249z" />
<glyph unicode="V" horiz-adv-x="1343" d="M66 1448h313l289 -1022h8l289 1022h313l-469 -1448h-274z" />
<glyph unicode="W" horiz-adv-x="1819" d="M82 1448h305l162 -1059h4l340 760h33l340 -760h4l162 1059h305l-273 -1454h-278l-277 655l-276 -655h-279z" />
<glyph unicode="X" horiz-adv-x="1348" d="M61 0l437 735l-418 713h340l254 -481l254 481h340l-418 -713l436 -735h-340l-272 506l-273 -506h-340z" />
<glyph unicode="Y" horiz-adv-x="1315" d="M41 1448h311l303 -643h4l304 643h311l-471 -895v-553h-291v553z" />
<glyph unicode="Z" horiz-adv-x="1335" d="M70 137l749 1059h-657v252h1007v-223l-682 -967q61 25 140 25q48 0 84 -7.5t67.5 -16t63 -16t71.5 -7.5q20 0 42 5.5t43.5 18.5t41.5 34t35 52l178 -156q-18 -55 -45 -95.5t-66.5 -67t-93 -39.5t-124.5 -13q-72 0 -125 11.5t-99 25.5t-90 25.5t-98 11.5q-84 0 -146 -21 t-110 -63z" />
<glyph unicode="[" horiz-adv-x="758" d="M180 -332v1831h500v-199h-254v-1433h254v-199h-500z" />
<glyph unicode="\" horiz-adv-x="1081" d="M41 1647h235l764 -1911h-235z" />
<glyph unicode="]" horiz-adv-x="758" d="M78 -133h254v1433h-254v199h500v-1831h-500v199z" />
<glyph unicode="^" horiz-adv-x="860" d="M41 899l278 580h222l278 -580h-241l-148 336l-147 -336h-242z" />
<glyph unicode="_" horiz-adv-x="950" d="M0 -131h950v-141h-950v141z" />
<glyph unicode="`" horiz-adv-x="520" d="M61 1501h293l105 -303h-154z" />
<glyph unicode="a" horiz-adv-x="1077" d="M78 342q0 91 28.5 158.5t76.5 111t112 65t135 21.5q85 0 146 -27.5t106 -78.5h4v96q0 99 -48.5 147t-131.5 48q-45 0 -84 -8.5t-71 -22t-59 -30.5t-48 -34l-129 173q179 149 417 149q99 0 178.5 -25t135.5 -76.5t86.5 -129.5t30.5 -183v-696h-269l-8 102h-4 q-20 -27 -45.5 -50t-56.5 -40t-67.5 -27t-78.5 -10q-70 0 -134 23.5t-113.5 69.5t-79 114.5t-29.5 159.5zM350 346q0 -42 12 -73t33.5 -50.5t50.5 -29t64 -9.5t66 12t54 33t36.5 51t13.5 66q0 37 -13.5 68t-37 53.5t-55 34.5t-66.5 12q-32 0 -61 -10t-50.5 -31t-34 -52.5 t-12.5 -74.5z" />
<glyph unicode="b" horiz-adv-x="1221" d="M123 0v1571h6l277 -90v-563h4q18 40 49.5 75t72.5 61t90 41t101 15q96 0 174 -40.5t133.5 -115.5t86 -181.5t30.5 -237.5t-33 -235t-90 -176t-135 -110.5t-168 -38.5q-53 0 -101.5 13.5t-89 37.5t-72.5 56t-52 68h-5l-8 -150h-270zM408 537q0 -75 17.5 -135.5t48 -103 t73 -65t92.5 -22.5q52 0 92.5 22.5t68 64.5t42 102t14.5 135q0 72 -14 134t-41.5 107.5t-68 71.5t-93.5 26q-51 0 -93 -26t-73 -71.5t-48 -107t-17 -132.5z" />
<glyph unicode="c" horiz-adv-x="1020" d="M74 543q0 114 31 217t93.5 181t156 123.5t218.5 45.5q66 0 124 -13.5t106.5 -36.5t88.5 -54.5t71 -67.5l-154 -170q-21 22 -43.5 40t-48 31t-56.5 20t-69 7q-56 0 -99 -24t-72.5 -66.5t-45 -102t-15.5 -130.5q0 -72 15 -131.5t45 -102t74 -66.5t102 -24q41 0 72.5 7.5 t57.5 20.5t48 31.5t43 40.5l154 -169q-31 -36 -70.5 -68t-88.5 -56t-107.5 -37.5t-126.5 -13.5q-128 0 -222.5 46t-157 124t-93.5 181t-31 217z" />
<glyph unicode="d" horiz-adv-x="1221" d="M74 535q0 131 30 237.5t85.5 181.5t134 115.5t174.5 40.5q52 0 101 -15t90 -41t72.5 -61t49.5 -75h4v653h6l277 -90v-1481h-271l-8 150h-4q-20 -36 -52 -68t-72.5 -56t-89 -37.5t-101.5 -13.5q-90 0 -168 38.5t-135 110.5t-90 176t-33 235zM365 535q0 -75 14 -135 t42 -102t68 -64.5t93 -22.5q50 0 92.5 22.5t73 65t48 103t17.5 135.5q0 71 -17 132.5t-48 107t-73 71.5t-93 26q-53 0 -93.5 -26t-68 -71.5t-41.5 -107.5t-14 -134z" />
<glyph unicode="e" horiz-adv-x="1090" d="M74 543q0 114 30.5 217t91 181t152 123.5t213.5 45.5t208.5 -45.5t141 -128t80 -197t25.5 -252.5h-662q1 -54 21 -105t53.5 -91.5t80 -65t101.5 -24.5q36 0 66 9t56.5 24t50 35t44.5 42l146 -166q-31 -36 -69.5 -67t-85.5 -54t-104.5 -36t-125.5 -13q-122 0 -217.5 46 t-161.5 124t-100.5 181t-34.5 217zM358 653h390q0 64 -14 109.5t-37.5 74.5t-55 42.5t-66.5 13.5q-38 0 -72.5 -13.5t-63 -42t-49.5 -74.5t-32 -110z" />
<glyph unicode="f" horiz-adv-x="766" d="M61 858v227h132v84q0 86 18.5 154t59 115t106 71.5t160.5 24.5q78 0 125 -6t75 -12v-218q-29 4 -56 6.5t-58 2.5q-49 0 -79 -11t-46 -30.5t-21.5 -47t-5.5 -61.5v-72h236v-227h-236v-1311h-6l-272 91v1220h-132z" />
<glyph unicode="g" horiz-adv-x="1192" d="M74 547q0 127 29.5 230.5t83.5 177.5t129.5 114.5t168.5 40.5q49 0 95.5 -15t86.5 -41t70.5 -61t48.5 -75h5l8 167h274v-1005q0 -117 -37 -208t-104 -153.5t-160.5 -95.5t-206.5 -33q-74 0 -141 12.5t-124 34t-104 51t-81 64.5l131 187q60 -53 137 -84t164 -31 q46 0 90.5 15t79.5 47t56.5 82.5t21.5 121.5v84h-4q-20 -36 -51.5 -67.5t-70.5 -55.5t-85.5 -37.5t-96.5 -13.5q-87 0 -162 38t-131 109.5t-88 172.5t-32 227zM365 547q0 -70 12.5 -127.5t37.5 -98t63.5 -63t90.5 -22.5q50 0 90.5 22.5t69 63.5t44 98.5t15.5 128.5 q0 67 -15 126t-43.5 103t-69 70t-91.5 26q-53 0 -91.5 -26t-63.5 -70t-37 -104t-12 -127z" />
<glyph unicode="h" horiz-adv-x="1147" d="M123 0v1571h6l277 -90v-551h4q20 39 51 72t70.5 57t86.5 37.5t99 13.5q78 0 137 -31t98.5 -87t59.5 -133.5t20 -170.5v-688h-282v647q0 112 -33.5 164.5t-106.5 52.5q-44 0 -81.5 -19t-64.5 -54t-42.5 -84.5t-15.5 -110.5v-596h-283z" />
<glyph unicode="i" horiz-adv-x="545" d="M123 1208v271h299v-271h-299zM131 0v1085h283v-1085h-283z" />
<glyph unicode="j" horiz-adv-x="569" d="M-41 -166q19 -3 40 -4.5t40 -1.5q29 0 51 6t36.5 22t22 42t7.5 67v1120h282v-1124q0 -100 -17 -170.5t-56 -115t-102 -65t-154 -20.5q-47 0 -82.5 3.5t-67.5 11.5v229zM147 1208v271h299v-271h-299z" />
<glyph unicode="k" horiz-adv-x="1094" d="M123 0v1571h6l277 -90v-787l290 391h328l-346 -448l375 -637h-322l-244 424l-81 -107v-317h-283z" />
<glyph unicode="l" horiz-adv-x="545" d="M131 0v1571h6l277 -90v-1481h-283z" />
<glyph unicode="m" horiz-adv-x="1663" d="M119 0v1085h274l8 -155h5q20 39 49 72t65 57t78 37.5t88 13.5q53 0 94 -14t71.5 -39t50.5 -60t32 -77h4q20 39 51 73.5t71 60.5t87.5 41t99.5 15q72 0 128.5 -26t94.5 -75t58 -118.5t20 -157.5v-733h-282v700q0 82 -27.5 123t-93.5 41q-40 0 -71.5 -17.5t-53.5 -49.5 t-33.5 -77.5t-11.5 -101.5v-618h-283v676q0 100 -27.5 144t-93.5 44q-41 0 -73 -19t-53.5 -54t-32.5 -84.5t-11 -110.5v-596h-282z" />
<glyph unicode="n" horiz-adv-x="1139" d="M119 0v1085h274l8 -155h5q20 39 50.5 72t69.5 57t85.5 37.5t99.5 13.5q78 0 137 -31t98 -87t58.5 -133.5t19.5 -170.5v-688h-283v647q0 112 -32.5 164.5t-104.5 52.5q-45 0 -82 -19t-64 -54t-42 -84.5t-15 -110.5v-596h-282z" />
<glyph unicode="o" horiz-adv-x="1155" d="M74 543q0 114 33 217t97 181t158 123.5t216 45.5t216 -45.5t157.5 -123.5t96.5 -181t33 -217t-33 -217t-96.5 -181t-157.5 -124t-216 -46t-216 46t-158 124t-97 181t-33 217zM360 543q0 -72 15 -132.5t43.5 -105t69 -69.5t90.5 -25t90 25t68.5 69.5t43.5 105t15 132.5 q0 71 -15 131.5t-43.5 105t-68.5 69.5t-90 25t-90.5 -25t-69 -69.5t-43.5 -105t-15 -131.5z" />
<glyph unicode="p" horiz-adv-x="1217" d="M119 -362v1447h274l8 -167h5q18 40 49.5 75t72.5 61t90 41t101 15q96 0 174 -40.5t133.5 -115.5t86 -181.5t30.5 -237.5t-33 -235t-90.5 -176t-135 -110.5t-167.5 -38.5q-53 0 -101.5 13.5t-89.5 37.5t-73 56t-52 68h-4v-603h-6zM403 537q0 -75 17.5 -135.5t48.5 -103 t73.5 -65t92.5 -22.5q52 0 92.5 22.5t68 64.5t42 102t14.5 135q0 72 -14 134t-41.5 107.5t-68 71.5t-93.5 26q-51 0 -93.5 -26t-73 -71.5t-48 -107t-17.5 -132.5z" />
<glyph unicode="q" horiz-adv-x="1217" d="M74 535q0 131 30 237.5t85.5 181.5t134 115.5t174.5 40.5q52 0 101 -15t90 -41t72.5 -61t49.5 -75h4l8 167h275v-1447l-273 -91h-6v603h-4q-20 -36 -52 -68t-72.5 -56t-89 -37.5t-101.5 -13.5q-90 0 -168 38.5t-135 110.5t-90 176t-33 235zM365 535q0 -75 14 -135 t42 -102t68 -64.5t93 -22.5q50 0 92.5 22.5t73 65t48 103t17.5 135.5q0 71 -17 132.5t-48 107t-73 71.5t-93 26q-53 0 -93.5 -26t-68 -71.5t-41.5 -107.5t-14 -134z" />
<glyph unicode="r" horiz-adv-x="770" d="M123 0v1069h272l8 -223h5q17 51 44.5 98.5t67 83.5t90.5 58q47 20 104 20h5h6v-277h-18q-63 -1 -115 -19q-59 -22 -100.5 -68t-63.5 -116t-22 -163v-463h-283z" />
<glyph unicode="s" horiz-adv-x="942" d="M49 133l123 172q54 -49 121.5 -83t148.5 -34q31 0 57.5 6t45 20t29 36.5t10.5 56.5q0 28 -11.5 49.5t-31.5 38t-47 29.5t-58 25q-36 14 -75 28t-77 32t-72.5 42t-60.5 58.5t-41.5 80.5t-15.5 109q0 80 27 138.5t76.5 97t119.5 57t156 18.5q48 0 99 -8t101.5 -23.5 t98 -39.5t88.5 -56l-119 -172q-26 21 -56.5 37t-62 27t-62.5 16.5t-58 5.5q-72 0 -101.5 -24t-29.5 -66q0 -44 39 -71.5t96 -47.5q36 -13 76.5 -27t80 -33t75 -45t63 -63t43.5 -86t16 -115q0 -85 -33 -149.5t-89.5 -107.5t-132.5 -65t-161 -22q-127 0 -225.5 43.5 t-169.5 114.5z" />
<glyph unicode="t" horiz-adv-x="774" d="M57 858v227h138l53 318h219v-318h235v-227h-235v-508q0 -41 7 -68.5t22 -44t37.5 -23.5t54.5 -7q34 0 64 2.5t61 7.5v-211q-57 -15 -110.5 -23t-115.5 -8q-149 0 -224 84.5t-75 264.5v534h-131z" />
<glyph unicode="u" horiz-adv-x="1135" d="M106 383v702h283v-682q0 -94 32.5 -138t104.5 -44q45 0 82 21t64 58t42 88t15 112v585h283v-1085h-275l-8 156h-4q-20 -39 -50.5 -72.5t-68 -57.5t-81.5 -37.5t-91 -13.5q-84 0 -145.5 31t-102 85.5t-60.5 129.5t-20 162z" />
<glyph unicode="v" horiz-adv-x="1106" d="M53 1085h297l201 -737h4l201 737h297l-359 -1085h-282z" />
<glyph unicode="w" horiz-adv-x="1581" d="M61 1085h287l129 -708h4l193 708h233l193 -708h4l129 708h287l-277 -1091h-256l-194 715h-5l-194 -715h-256z" />
<glyph unicode="x" horiz-adv-x="1094" d="M57 0l326 545l-313 524h311l166 -317l166 317h311l-313 -524l325 -545h-305l-184 344l-185 -344h-305z" />
<glyph unicode="y" horiz-adv-x="1171" d="M115 408v677h282v-657q0 -94 30.5 -138t102.5 -44q45 0 81.5 20.5t62.5 57.5t40.5 88t14.5 112v561h283v-1005q0 -112 -31 -202.5t-90.5 -154.5t-147 -98.5t-200.5 -34.5q-69 0 -131 10.5t-114.5 28.5t-96 42.5t-76.5 52.5l121 182q63 -38 130 -60t136 -22 q101 0 161 65.5t60 200.5v90h-6q-20 -39 -50 -72t-67.5 -57t-81 -37.5t-90.5 -13.5q-84 0 -144.5 31t-100.5 85.5t-59 129t-19 162.5z" />
<glyph unicode="z" horiz-adv-x="1102" d="M66 102l542 760h-471v223h811v-184l-491 -688q14 5 35.5 10.5t46.5 5.5t46 -5t41 -11t41.5 -11t47.5 -5q48 0 81 21.5t58 80.5l174 -119q-53 -105 -120.5 -155t-153.5 -50q-58 0 -105 8.5t-88.5 19t-80 19.5t-77.5 9q-49 0 -92 -11t-88 -53z" />
<glyph unicode="{" horiz-adv-x="758" d="M37 500v166q70 0 111 20.5t63 62t28.5 104t6.5 146.5v156q0 91 21.5 173.5t71.5 143t132.5 93t204.5 24.5v-174q-65 2 -100.5 -20.5t-53 -63.5t-21 -97t-3.5 -120v-153q0 -75 -8 -136.5t-29.5 -108.5t-59 -80t-96.5 -52v-2q59 -20 96.5 -53t59 -80t29.5 -108t8 -136v-154 q0 -65 3.5 -120.5t21 -96.5t53 -63.5t100.5 -20.5v-174q-122 -8 -204.5 25t-132.5 93.5t-71.5 142.5t-21.5 173v156q0 84 -6.5 146.5t-28.5 104t-63 62.5t-111 21z" />
<glyph unicode="|" horiz-adv-x="438" d="M123 -332v1831h192v-1831h-192z" />
<glyph unicode="}" horiz-adv-x="758" d="M82 -250q64 -2 100 20.5t53.5 63.5t21 96.5t3.5 120.5v154q0 75 8 136t29.5 108t59 80t96.5 53v2q-59 19 -96.5 52t-59 80t-29.5 108.5t-8 136.5v153q0 64 -3.5 120t-21 97t-53.5 63.5t-100 20.5v174q122 8 204.5 -24.5t132.5 -93t71.5 -143t21.5 -173.5v-156 q0 -84 6.5 -146.5t28 -104t63 -62t111.5 -20.5v-166q-70 0 -111.5 -21t-63 -62.5t-28 -104t-6.5 -146.5v-156q0 -91 -21.5 -173t-71.5 -142.5t-132.5 -93.5t-204.5 -25v174z" />
<glyph unicode="~" horiz-adv-x="766" d="M49 668q29 135 77 197.5t130 62.5q37 0 69.5 -11.5t61 -25.5t53 -25.5t45.5 -11.5q34 0 53 20t37 72l142 -39q-14 -68 -32.5 -117.5t-43 -81.5t-56.5 -47.5t-73 -15.5q-38 0 -69.5 11.5t-59 25.5t-52 25.5t-48.5 11.5q-35 0 -54 -20t-39 -72z" />
<glyph unicode="&#xa1;" horiz-adv-x="602" d="M147 -23l68 629h172l68 -629v-339h-308v339zM154 766v319h295v-319h-295z" />
<glyph unicode="&#xa2;" horiz-adv-x="1229" d="M176 543q0 108 29.5 206t87 174.5t143.5 125.5t199 59v190h145v-196q102 -16 182.5 -60.5t131.5 -103.5l-154 -170q-32 32 -71 55.5t-89 34.5v-633q53 10 93.5 34.5t74.5 59.5l154 -169q-53 -60 -134 -106.5t-188 -61.5v-211h-145v209q-114 10 -199.5 58.5t-143.5 124.5 t-87 174t-29 206zM463 543q0 -119 45 -201.5t127 -110.5v623q-40 -14 -72 -42t-54 -68.5t-34 -91t-12 -109.5z" />
<glyph unicode="&#xa3;" horiz-adv-x="1229" d="M164 659v201h192l41 250q29 183 125.5 276t272.5 93q78 0 139 -10.5t121 -30.5l-47 -238q-41 13 -77 18t-81 5q-71 0 -109 -39.5t-51 -120.5l-33 -203h283v-201h-315l-66 -407h506v-252h-844l105 659h-162z" />
<glyph unicode="&#xa4;" horiz-adv-x="1180" />
<glyph unicode="&#xa5;" horiz-adv-x="1229" d="M10 1448h312l290 -684h4l291 684h312l-367 -748h197v-159h-275l-14 -29v-80h289v-160h-289v-272h-291v272h-289v160h289v80l-14 29h-275v159h197z" />
<glyph unicode="&#xa6;" horiz-adv-x="438" d="M123 -332v766h192v-766h-192zM123 733v766h192v-766h-192z" />
<glyph unicode="&#xa7;" horiz-adv-x="1229" d="M201 33l139 172q57 -57 123 -87t147 -30q51 0 81 27.5t30 81.5q0 38 -21 63.5t-55.5 44t-78.5 34t-90 33.5t-90 41t-78.5 57.5t-55.5 83.5t-21 118q0 41 12.5 80t33 72t45.5 58.5t51 39.5q-26 13 -51 34t-45.5 50t-33 65t-12.5 78q0 84 28.5 146.5t79.5 103t120.5 60.5 t150.5 20q115 0 209 -34t178 -102l-123 -157q-68 42 -129 62t-127 20q-62 0 -87 -25.5t-25 -66.5q0 -39 21 -66t56 -47.5t79 -38t90.5 -37t90.5 -44t79 -59.5t56 -84t21 -116q0 -35 -10.5 -70.5t-29.5 -68t-46 -60.5t-59 -49q26 -14 52 -35.5t46.5 -50t33.5 -64t13 -75.5 q0 -86 -30.5 -150t-82.5 -107t-120.5 -64t-144.5 -21q-72 0 -137 12.5t-119 35t-95.5 52t-68.5 64.5zM487 682q0 -27 10.5 -50.5t28 -41t41 -27.5t49.5 -10q28 0 52 9.5t42 26.5t28 40.5t10 52.5q0 27 -10.5 50t-28.5 40.5t-42 27t-51 9.5t-50.5 -9.5t-41 -26.5t-27.5 -40 t-10 -51z" />
<glyph unicode="&#xa8;" horiz-adv-x="672" d="M41 1210v213h227v-213h-227zM406 1210v213h225v-213h-225z" />
<glyph unicode="&#xa9;" horiz-adv-x="1495" d="M102 725q0 156 50.5 291.5t138.5 236t205.5 158t251.5 57.5q89 0 171.5 -26t154 -74t130.5 -115.5t101 -150t65 -178t23 -199.5t-23 -199.5t-65 -178t-101 -150t-130.5 -115.5t-154 -74t-171.5 -26q-134 0 -251.5 57.5t-205.5 158t-138.5 236t-50.5 291.5zM207 725 q0 -134 42.5 -251t116 -204t172 -137.5t210.5 -50.5q75 0 144 23t129 64.5t109 100.5t84.5 130.5t54.5 153.5t19 171q0 133 -42.5 250.5t-115.5 204.5t-171.5 137.5t-210.5 50.5t-210.5 -50.5t-172 -137.5t-116 -204.5t-42.5 -250.5zM412 727q0 88 24.5 164.5t71 133.5 t113.5 89.5t151 32.5q100 0 170.5 -36t112.5 -89l-111 -123q-34 40 -69.5 57t-83.5 17q-42 0 -73.5 -18t-52.5 -50t-31.5 -77.5t-10.5 -100.5t10.5 -100.5t31.5 -77.5t52.5 -50t73.5 -18q48 0 83.5 17t69.5 57l111 -123q-42 -53 -112.5 -89t-170.5 -36q-84 0 -151 33 t-113.5 90t-71 133.5t-24.5 163.5z" />
<glyph unicode="&#xaa;" horiz-adv-x="641" d="M57 1221q0 51 16 90t43 64.5t63 38.5t77 13q42 0 73.5 -9.5t57.5 -31.5v21q0 48 -24 71t-66 23q-45 0 -81 -17.5t-62 -37.5l-80 108q51 44 111 67.5t126 23.5q111 0 177.5 -59t66.5 -177v-385h-164l-2 57q-25 -29 -61 -50t-76 -21q-41 0 -76.5 13.5t-62 40t-41.5 66 t-15 91.5zM76 883v71h479v-71h-479zM225 1227q0 -44 21 -64t53 -20q35 0 59.5 24.5t24.5 59.5q0 34 -25 58t-59 24q-31 0 -52.5 -21t-21.5 -61z" />
<glyph unicode="&#xab;" horiz-adv-x="1069" d="M41 532l260 414h262l-256 -414l256 -413h-262zM465 532l260 414h262l-256 -414l256 -413h-262z" />
<glyph unicode="&#xac;" horiz-adv-x="1024" d="M41 530v230h905v-631h-268v401h-637z" />
<glyph unicode="&#xad;" horiz-adv-x="623" d="M49 569v209h524v-209h-524z" />
<glyph unicode="&#xae;" horiz-adv-x="979" d="M61 1032q0 105 33.5 195t91.5 156.5t136 104.5t167 38t167.5 -38t136.5 -104.5t91.5 -156.5t33.5 -195q0 -104 -33.5 -194t-91.5 -156.5t-136.5 -104.5t-167.5 -38t-167 38t-136 104.5t-91.5 156.5t-33.5 194zM162 1032q0 -92 24.5 -167.5t68 -128.5t103.5 -82t131 -29 q72 0 132 29t103.5 82t68 128.5t24.5 167.5t-24.5 167.5t-68 129t-103.5 82.5t-132 29q-71 0 -131 -29t-103.5 -82.5t-68 -129t-24.5 -167.5zM307 768v551h209q39 0 72 -12.5t56.5 -35t36.5 -55.5t13 -73q0 -33 -9 -60t-23.5 -47.5t-33.5 -35t-40 -21.5l121 -211h-115 l-102 190h-72v-190h-113zM420 1061h92q32 0 51 21.5t19 58.5q0 38 -19.5 57t-48.5 19h-94v-156z" />
<glyph unicode="&#xaf;" horiz-adv-x="668" d="M41 1210v162h586v-162h-586z" />
<glyph unicode="&#xb0;" horiz-adv-x="627" d="M61 1253q0 59 19 108.5t52.5 85t80 55.5t100.5 20q55 0 101 -20t79.5 -55.5t52.5 -85t19 -108.5t-19 -108t-52.5 -84.5t-79.5 -55.5t-101 -20q-54 0 -100.5 20t-80 55.5t-52.5 84.5t-19 108zM211 1253q0 -52 27 -88.5t75 -36.5q24 0 43 10t32.5 27t20.5 39.5t7 48.5 t-7 49t-20.5 40t-32.5 26.5t-43 9.5q-48 0 -75 -36t-27 -89z" />
<glyph unicode="&#xb1;" horiz-adv-x="983" d="M41 0v135h901v-135h-901zM41 575v218h332v323h237v-323h332v-218h-332v-323h-237v323h-332z" />
<glyph unicode="&#xb2;" horiz-adv-x="684" d="M66 1518q48 71 115 106t151 35q62 0 110 -17t80.5 -48.5t49 -75t16.5 -95.5q0 -41 -12.5 -78t-34 -71t-50.5 -66.5t-63 -64.5l-88 -82h266v-162h-532v131l231 221q45 44 68.5 82.5t23.5 75.5q0 40 -18 64t-60 24q-32 0 -70 -19t-67 -61z" />
<glyph unicode="&#xb3;" horiz-adv-x="688" d="M49 1026l123 102q29 -40 69.5 -59.5t77.5 -19.5q41 0 65 20.5t24 65.5q0 40 -22 57.5t-64 17.5h-72v142h72q30 0 50.5 13t20.5 56q0 42 -21 59t-55 17q-38 0 -73.5 -21t-67.5 -61l-123 105q50 72 124.5 105.5t152.5 33.5q48 0 93.5 -13t81 -39.5t56.5 -66.5t21 -94 q0 -56 -23 -94.5t-57 -61.5q43 -18 69.5 -59.5t26.5 -106.5q0 -56 -21.5 -100t-59 -74.5t-88.5 -46.5t-110 -16q-86 0 -155.5 35t-114.5 104z" />
<glyph unicode="&#xb4;" horiz-adv-x="520" d="M61 1198l105 303h293l-244 -303h-154z" />
<glyph unicode="&#xb5;" horiz-adv-x="1126" d="M115 -356v1441h282v-585q0 -61 15 -112t42 -88t64 -58t82 -21q72 0 104.5 44t32.5 138v682h283v-702q0 -87 -20 -162t-60.5 -129.5t-102 -85.5t-145.5 -31q-47 0 -90.5 13.5t-81.5 37.5t-68.5 57.5t-50.5 72.5h-4v-512h-282z" />
<glyph unicode="&#xb6;" horiz-adv-x="1130" d="M82 948q0 103 32 194t90 159t139 107.5t179 39.5h457v-1579h-168v1442h-135v-1442h-184v580q-89 4 -164.5 42t-130 104t-85 156t-30.5 197z" />
<glyph unicode="&#xb7;" horiz-adv-x="524" d="M115 512v319h295v-319h-295z" />
<glyph unicode="&#xb8;" horiz-adv-x="377" d="M41 -84q75 12 130 4.5t92 -31t55 -62t18 -89.5q0 -52 -20.5 -93t-59 -69.5t-93 -43.5t-122.5 -15v102q21 1 43.5 7.5t40.5 20t29.5 33.5t11.5 48q0 24 -9.5 40t-26 25t-39.5 12t-50 2v109z" />
<glyph unicode="&#xb9;" horiz-adv-x="483" d="M25 1575l204 76h131v-752h-184v571l-110 -22z" />
<glyph unicode="&#xba;" horiz-adv-x="690" d="M61 1327q0 64 18.5 122t54.5 101.5t89 69t121 25.5q67 0 120 -25.5t90 -69t56 -101.5t19 -122t-19 -121.5t-56 -101t-90 -69t-120 -25.5q-68 0 -121 25.5t-89 69t-54.5 101t-18.5 121.5zM102 883v71h486v-71h-486zM236 1327q0 -35 7.5 -66t22 -54t34.5 -36.5t44 -13.5 q25 0 45 13.5t34 36.5t22 54t8 66q0 36 -8 67t-22 54t-34 36t-45 13q-24 0 -44 -13t-34.5 -36t-22 -54t-7.5 -67z" />
<glyph unicode="&#xbb;" horiz-adv-x="1069" d="M82 119l256 413l-256 414h262l260 -414l-260 -413h-262zM506 119l256 413l-256 414h262l260 -414l-260 -413h-262z" />
<glyph unicode="&#xbc;" horiz-adv-x="1561" d="M90 1372l205 76h131v-752h-184v572l-111 -23zM262 0l838 1448h194l-839 -1448h-193zM834 260l393 492h145v-447h86v-155h-86v-150h-180v150h-322zM1042 307h150v176z" />
<glyph unicode="&#xbd;" horiz-adv-x="1561" d="M90 1372l205 76h131v-752h-184v572l-111 -23zM221 0l838 1448h194l-839 -1448h-193zM909 618q48 72 115.5 107t151.5 35q62 0 109.5 -17t80 -48.5t49.5 -75t17 -95.5q0 -41 -12.5 -78t-34 -71t-50.5 -66.5t-63 -64.5l-88 -82h266v-162h-532v131l231 221q45 44 68.5 82.5 t23.5 75.5q0 40 -18 64t-60 24q-32 0 -70 -19t-67 -61z" />
<glyph unicode="&#xbe;" horiz-adv-x="1561" d="M66 844l122 102q29 -40 70 -60t78 -20q40 0 64 20.5t24 65.5q0 41 -22 58.5t-64 17.5h-72v141h72q31 0 51.5 13.5t20.5 56.5q0 42 -21 59t-55 17q-38 0 -73.5 -21t-67.5 -61l-123 104q24 36 56 62.5t68 44t75 25.5t77 8q48 0 93.5 -13t81 -39.5t56.5 -66.5t21 -94 q0 -56 -23 -94.5t-57 -61.5q43 -19 69.5 -60t26.5 -106q0 -56 -21 -100t-58.5 -74.5t-88.5 -46.5t-110 -16q-87 0 -156 35t-114 104zM303 0l838 1448h194l-839 -1448h-193zM834 260l393 492h145v-447h86v-155h-86v-150h-180v150h-322zM1042 307h150v176z" />
<glyph unicode="&#xbf;" horiz-adv-x="1036" d="M102 16q0 85 28 153.5t74.5 121t106.5 90t125 59.5l19 166h223l22 -317q-145 -11 -222 -73.5t-77 -174.5q0 -42 13 -73.5t34.5 -52.5t49.5 -31.5t57 -10.5q45 0 82.5 8.5t70 26t61.5 45t56 65.5l183 -159q-94 -132 -213 -192t-267 -60q-83 0 -160 26.5t-136 78t-94.5 128 t-35.5 176.5zM418 766v319h295v-319h-295z" />
<glyph unicode="&#xc0;" horiz-adv-x="1430" d="M53 0l527 1456h270l526 -1456h-313l-98 309h-500l-98 -309h-314zM434 1843h293l105 -303h-154zM557 557h315l-155 537h-4z" />
<glyph unicode="&#xc1;" horiz-adv-x="1430" d="M53 0l527 1456h270l526 -1456h-313l-98 309h-500l-98 -309h-314zM557 557h315l-155 537h-4zM598 1540l104 303h293l-243 -303h-154z" />
<glyph unicode="&#xc2;" horiz-adv-x="1430" d="M53 0l527 1456h270l526 -1456h-313l-98 309h-500l-98 -309h-314zM393 1540l246 291h151l246 -291h-147l-175 107l-174 -107h-147zM557 557h315l-155 537h-4z" />
<glyph unicode="&#xc3;" horiz-adv-x="1430" d="M53 0l527 1456h270l526 -1456h-313l-98 309h-500l-98 -309h-314zM387 1567q28 123 75.5 176t121.5 53q34 0 68.5 -11.5t66.5 -25.5t59.5 -25.5t46.5 -11.5q32 0 52 19t38 65l127 -41q-26 -121 -73 -175t-121 -54q-35 0 -69.5 12t-67 26t-60 26t-47.5 12q-31 0 -52 -19.5 t-38 -64.5zM557 557h315l-155 537h-4z" />
<glyph unicode="&#xc4;" horiz-adv-x="1430" d="M53 0l527 1456h270l526 -1456h-313l-98 309h-500l-98 -309h-314zM420 1552v213h227v-213h-227zM557 557h315l-155 537h-4zM785 1552v213h225v-213h-225z" />
<glyph unicode="&#xc5;" horiz-adv-x="1430" d="M53 0l527 1456h270l526 -1456h-313l-98 309h-500l-98 -309h-314zM500 1575q0 51 15 92t43 70t68 45t89 16t89 -16t68 -45t43 -70t15 -92t-15 -92t-43 -70t-68 -45t-89 -16t-89 16t-68 45t-43 70t-15 92zM557 557h315l-155 537h-4zM623 1575q0 -59 26 -88t66 -29t66 29 t26 88t-26 88t-66 29t-66 -29t-26 -88z" />
<glyph unicode="&#xc6;" horiz-adv-x="1872" d="M4 0l744 1448h1011v-256h-583v-318h530v-256h-530v-362h602v-256h-889v309h-428l-148 -309h-309zM590 557h299v635h-8z" />
<glyph unicode="&#xc7;" horiz-adv-x="1343" d="M90 727q0 166 46.5 304.5t132.5 238t209 154.5t276 55q87 0 160 -16t135 -46t113.5 -72t94.5 -94l-172 -190q-40 40 -77 69t-75.5 48t-79.5 27.5t-89 8.5q-89 0 -158.5 -32t-117.5 -93.5t-73.5 -152.5t-25.5 -209t26.5 -209t76 -152.5t120 -93.5t158.5 -32q48 0 90 8.5 t81.5 27.5t78 47.5t78.5 69.5l172 -190q-43 -51 -95.5 -93t-116 -72t-137.5 -46.5t-161 -16.5q-153 0 -277 55t-211 154.5t-134.5 237.5t-47.5 305zM606 -84q75 12 130 4.5t92 -31t55 -62t18 -89.5q0 -52 -20.5 -93t-59 -69.5t-93 -43.5t-122.5 -15v102q21 1 43.5 7.5 t40.5 20t29.5 33.5t11.5 48q0 24 -9.5 40t-26 25t-39.5 12t-50 2v109z" />
<glyph unicode="&#xc8;" horiz-adv-x="1180" d="M135 0v1448h932v-256h-645v-318h592v-256h-592v-362h663v-256h-950zM370 1843h293l105 -303h-154z" />
<glyph unicode="&#xc9;" horiz-adv-x="1180" d="M135 0v1448h932v-256h-645v-318h592v-256h-592v-362h663v-256h-950zM514 1540l104 303h293l-243 -303h-154z" />
<glyph unicode="&#xca;" horiz-adv-x="1180" d="M135 0v1448h932v-256h-645v-318h592v-256h-592v-362h663v-256h-950zM289 1540l246 291h151l246 -291h-147l-175 107l-174 -107h-147z" />
<glyph unicode="&#xcb;" horiz-adv-x="1180" d="M135 0v1448h932v-256h-645v-318h592v-256h-592v-362h663v-256h-950zM315 1552v213h228v-213h-228zM680 1552v213h225v-213h-225z" />
<glyph unicode="&#xcc;" horiz-adv-x="578" d="M9 1843h293l105 -303h-154zM143 0v1448h291v-1448h-291z" />
<glyph unicode="&#xcd;" horiz-adv-x="578" d="M143 0v1448h291v-1448h-291zM172 1540l104 303h293l-243 -303h-154z" />
<glyph unicode="&#xce;" horiz-adv-x="578" d="M-32 1540l246 291h151l246 -291h-147l-175 107l-174 -107h-147zM143 0v1448h291v-1448h-291z" />
<glyph unicode="&#xcf;" horiz-adv-x="578" d="M-6 1552v213h227v-213h-227zM143 0v1448h291v-1448h-291zM358 1552v213h226v-213h-226z" />
<glyph unicode="&#xd0;" horiz-adv-x="1376" d="M16 645v189h119v614h461q126 0 226.5 -28t177 -77.5t131 -117.5t89 -147.5t50.5 -167t16 -177.5q0 -183 -54 -320.5t-148 -229t-222 -137.5t-276 -46h-451v645h-119zM426 260h160q81 0 141.5 20t104 54.5t72 81t45.5 99t23.5 108.5t6.5 110q0 102 -22 186t-68 144 t-118.5 92.5t-172.5 32.5h-172v-354h258v-189h-258v-385z" />
<glyph unicode="&#xd1;" horiz-adv-x="1389" d="M135 0v1448h254l578 -961v961h286v-1448h-254l-577 961v-961h-287zM367 1567q28 123 75.5 176t121.5 53q34 0 68.5 -11.5t66.5 -25.5t59.5 -25.5t46.5 -11.5q32 0 52 19t38 65l127 -41q-26 -121 -73 -175t-121 -54q-35 0 -69.5 12t-67 26t-60 26t-47.5 12 q-31 0 -52 -19.5t-38 -64.5z" />
<glyph unicode="&#xd2;" horiz-adv-x="1495" d="M90 727q0 166 49 304.5t136.5 238t208 154.5t264.5 55q143 0 263.5 -55t208 -154.5t136.5 -238t49 -304.5q0 -167 -49 -305t-136.5 -237.5t-208 -154.5t-263.5 -55q-144 0 -264.5 55t-208 154.5t-136.5 237.5t-49 305zM389 727q0 -118 27 -211.5t75 -158t113.5 -98.5 t143.5 -34q77 0 142.5 34t113.5 98.5t75 158t27 211.5t-27 211.5t-75 158t-113.5 98.5t-142.5 34q-78 0 -143.5 -34t-113.5 -98.5t-75 -158t-27 -211.5zM467 1863h293l105 -303h-154z" />
<glyph unicode="&#xd3;" horiz-adv-x="1495" d="M90 727q0 166 49 304.5t136.5 238t208 154.5t264.5 55q143 0 263.5 -55t208 -154.5t136.5 -238t49 -304.5q0 -167 -49 -305t-136.5 -237.5t-208 -154.5t-263.5 -55q-144 0 -264.5 55t-208 154.5t-136.5 237.5t-49 305zM389 727q0 -118 27 -211.5t75 -158t113.5 -98.5 t143.5 -34q77 0 142.5 34t113.5 98.5t75 158t27 211.5t-27 211.5t-75 158t-113.5 98.5t-142.5 34q-78 0 -143.5 -34t-113.5 -98.5t-75 -158t-27 -211.5zM631 1561l104 303h293l-244 -303h-153z" />
<glyph unicode="&#xd4;" horiz-adv-x="1495" d="M90 727q0 166 49 304.5t136.5 238t208 154.5t264.5 55q143 0 263.5 -55t208 -154.5t136.5 -238t49 -304.5q0 -167 -49 -305t-136.5 -237.5t-208 -154.5t-263.5 -55q-144 0 -264.5 55t-208 154.5t-136.5 237.5t-49 305zM389 727q0 -118 27 -211.5t75 -158t113.5 -98.5 t143.5 -34q77 0 142.5 34t113.5 98.5t75 158t27 211.5t-27 211.5t-75 158t-113.5 98.5t-142.5 34q-78 0 -143.5 -34t-113.5 -98.5t-75 -158t-27 -211.5zM426 1540l246 291h151l246 -291h-147l-175 107l-174 -107h-147z" />
<glyph unicode="&#xd5;" horiz-adv-x="1495" d="M90 727q0 166 49 304.5t136.5 238t208 154.5t264.5 55q143 0 263.5 -55t208 -154.5t136.5 -238t49 -304.5q0 -167 -49 -305t-136.5 -237.5t-208 -154.5t-263.5 -55q-144 0 -264.5 55t-208 154.5t-136.5 237.5t-49 305zM389 727q0 -118 27 -211.5t75 -158t113.5 -98.5 t143.5 -34q77 0 142.5 34t113.5 98.5t75 158t27 211.5t-27 211.5t-75 158t-113.5 98.5t-142.5 34q-78 0 -143.5 -34t-113.5 -98.5t-75 -158t-27 -211.5zM420 1567q28 123 75 176t121 53q34 0 69 -11.5t67 -25.5t59.5 -25.5t46.5 -11.5q32 0 52 19t38 65l127 -41 q-26 -121 -73 -175t-121 -54q-35 0 -70 12t-67 26t-59.5 26t-47.5 12q-31 0 -52 -19.5t-38 -64.5z" />
<glyph unicode="&#xd6;" horiz-adv-x="1495" d="M90 727q0 166 49 304.5t136.5 238t208 154.5t264.5 55q143 0 263.5 -55t208 -154.5t136.5 -238t49 -304.5q0 -167 -49 -305t-136.5 -237.5t-208 -154.5t-263.5 -55q-144 0 -264.5 55t-208 154.5t-136.5 237.5t-49 305zM389 727q0 -118 27 -211.5t75 -158t113.5 -98.5 t143.5 -34q77 0 142.5 34t113.5 98.5t75 158t27 211.5t-27 211.5t-75 158t-113.5 98.5t-142.5 34q-78 0 -143.5 -34t-113.5 -98.5t-75 -158t-27 -211.5zM453 1552v213h227v-213h-227zM818 1552v213h225v-213h-225z" />
<glyph unicode="&#xd7;" horiz-adv-x="983" d="M45 344l279 279l-279 278l168 168l279 -278l278 278l168 -168l-279 -278l279 -279l-168 -168l-278 279l-279 -279z" />
<glyph unicode="&#xd8;" horiz-adv-x="1495" d="M90 727q0 166 49 304.5t136.5 238t208 154.5t264.5 55q69 0 133 -14t123 -40l69 154h144l-99 -217q67 -48 120 -114t90 -146.5t57 -175t20 -199.5q0 -167 -49 -305t-136.5 -237.5t-208 -154.5t-263.5 -55q-62 0 -120 11.5t-112 29.5l-65 -147h-144l92 207 q-71 47 -128.5 113.5t-97.5 149t-61.5 180.5t-21.5 208zM389 727q0 -133 33 -232.5t90 -164.5l387 860q-34 18 -71.5 28.5t-79.5 10.5q-78 0 -143.5 -34t-113.5 -98.5t-75 -158t-27 -211.5zM621 250q56 -25 127 -25q77 0 142.5 34t113.5 98.5t75 158t27 211.5 q0 121 -27.5 214.5t-77.5 158.5z" />
<glyph unicode="&#xd9;" horiz-adv-x="1352" d="M127 569v879h291v-856q0 -179 61.5 -267.5t196.5 -88.5t196.5 88.5t61.5 267.5v856h291v-879q0 -139 -36.5 -249t-106 -186.5t-172 -117.5t-234.5 -41t-234.5 41t-172 117.5t-106 186.5t-36.5 249zM395 1843h293l105 -303h-154z" />
<glyph unicode="&#xda;" horiz-adv-x="1352" d="M127 569v879h291v-856q0 -179 61.5 -267.5t196.5 -88.5t196.5 88.5t61.5 267.5v856h291v-879q0 -139 -36.5 -249t-106 -186.5t-172 -117.5t-234.5 -41t-234.5 41t-172 117.5t-106 186.5t-36.5 249zM559 1540l105 303h292l-243 -303h-154z" />
<glyph unicode="&#xdb;" horiz-adv-x="1352" d="M127 569v879h291v-856q0 -179 61.5 -267.5t196.5 -88.5t196.5 88.5t61.5 267.5v856h291v-879q0 -139 -36.5 -249t-106 -186.5t-172 -117.5t-234.5 -41t-234.5 41t-172 117.5t-106 186.5t-36.5 249zM354 1540l246 291h151l246 -291h-147l-175 107l-174 -107h-147z" />
<glyph unicode="&#xdc;" horiz-adv-x="1352" d="M127 569v879h291v-856q0 -179 61.5 -267.5t196.5 -88.5t196.5 88.5t61.5 267.5v856h291v-879q0 -139 -36.5 -249t-106 -186.5t-172 -117.5t-234.5 -41t-234.5 41t-172 117.5t-106 186.5t-36.5 249zM381 1552v213h227v-213h-227zM745 1552v213h226v-213h-226z" />
<glyph unicode="&#xdd;" horiz-adv-x="1315" d="M41 1448h311l303 -643h4l304 643h311l-471 -895v-553h-291v553zM561 1540l105 303h293l-244 -303h-154z" />
<glyph unicode="&#xde;" horiz-adv-x="1206" d="M135 0v1448h291v-225h207q125 0 217 -31t152 -87t89 -134t29 -172q0 -105 -33.5 -188t-98 -141t-159 -89t-215.5 -31h-188v-350h-291zM426 608h197q45 0 82 13t64 37t41.5 57.5t14.5 75.5q0 55 -15 89t-42.5 52.5t-66.5 24.5t-87 6h-188v-355z" />
<glyph unicode="&#xdf;" horiz-adv-x="1176" d="M106 0v1049q0 108 32.5 197.5t93.5 153t146.5 99t192.5 35.5q85 0 161.5 -28t135 -80t93 -126t34.5 -167q0 -48 -11.5 -90t-32 -78t-47 -65.5t-56.5 -51.5v-4q55 -18 102.5 -54.5t82 -87.5t54 -114.5t19.5 -136.5q0 -110 -27.5 -198.5t-80 -151t-129 -96.5t-173.5 -34 q-55 0 -112.5 9.5t-102.5 27.5l43 207q46 -16 109 -16q37 0 70.5 14t59 44t41 76t15.5 111q0 140 -78 213t-219 76v191q55 4 91.5 18.5t58.5 40t31.5 62.5t9.5 85q0 82 -40 129.5t-118 47.5q-90 0 -130 -57.5t-40 -182.5v-1067h-279z" />
<glyph unicode="&#xe0;" horiz-adv-x="1077" d="M78 342q0 91 28.5 158.5t76.5 111t112 65t135 21.5q85 0 146 -27.5t106 -78.5h4v96q0 99 -48.5 147t-131.5 48q-45 0 -84 -8.5t-71 -22t-59 -30.5t-48 -34l-129 173q179 149 417 149q99 0 178.5 -25t135.5 -76.5t86.5 -129.5t30.5 -183v-696h-269l-8 102h-4 q-20 -27 -45.5 -50t-56.5 -40t-67.5 -27t-78.5 -10q-70 0 -134 23.5t-113.5 69.5t-79 114.5t-29.5 159.5zM299 1501h293l105 -303h-154zM350 346q0 -42 12 -73t33.5 -50.5t50.5 -29t64 -9.5t66 12t54 33t36.5 51t13.5 66q0 37 -13.5 68t-37 53.5t-55 34.5t-66.5 12 q-32 0 -61 -10t-50.5 -31t-34 -52.5t-12.5 -74.5z" />
<glyph unicode="&#xe1;" horiz-adv-x="1077" d="M78 342q0 91 28.5 160.5t76.5 116.5t112 70.5t135 23.5q85 0 146 -28t106 -79h4v82q0 99 -48.5 147t-131.5 48q-45 0 -84 -8.5t-71 -22t-59 -30.5t-48 -34l-129 173q179 149 417 149q99 0 178.5 -25t135.5 -76.5t86.5 -129.5t30.5 -183v-696h-269l-8 102h-4 q-20 -27 -45.5 -50t-56.5 -40t-67.5 -27t-78.5 -10q-70 0 -134 23.5t-113.5 69.5t-79 114.5t-29.5 159.5zM350 352q0 -84 45.5 -126t114.5 -42q35 0 66 12.5t54 35t36.5 53.5t13.5 67q0 38 -13.5 70t-37 55.5t-55 37t-66.5 13.5q-32 0 -61 -11.5t-50.5 -33.5t-34 -55 t-12.5 -76zM381 1198l104 303h293l-243 -303h-154z" />
<glyph unicode="&#xe2;" horiz-adv-x="1077" d="M78 342q0 91 28.5 158.5t76.5 111t112 65t135 21.5q85 0 146 -27.5t106 -78.5h4v96q0 99 -48.5 147t-131.5 48q-45 0 -84 -8.5t-71 -22t-59 -30.5t-48 -34l-129 173q179 149 417 149q99 0 178.5 -25t135.5 -76.5t86.5 -129.5t30.5 -183v-696h-269l-8 102h-4 q-20 -27 -45.5 -50t-56.5 -40t-67.5 -27t-78.5 -10q-70 0 -134 23.5t-113.5 69.5t-79 114.5t-29.5 159.5zM217 1198l246 291h151l246 -291h-147l-175 107l-174 -107h-147zM350 346q0 -42 12 -73t33.5 -50.5t50.5 -29t64 -9.5t66 12t54 33t36.5 51t13.5 66q0 37 -13.5 68 t-37 53.5t-55 34.5t-66.5 12q-32 0 -61 -10t-50.5 -31t-34 -52.5t-12.5 -74.5z" />
<glyph unicode="&#xe3;" horiz-adv-x="1077" d="M78 342q0 91 28.5 160.5t76.5 116.5t112 70.5t135 23.5q85 0 146 -28t106 -79h4v82q0 99 -48.5 147t-131.5 48q-45 0 -84 -8.5t-71 -22t-59 -30.5t-48 -34l-129 173q179 149 417 149q99 0 178.5 -25t135.5 -76.5t86.5 -129.5t30.5 -183v-696h-269l-8 102h-4 q-20 -27 -45.5 -50t-56.5 -40t-67.5 -27t-78.5 -10q-70 0 -134 23.5t-113.5 69.5t-79 114.5t-29.5 159.5zM211 1225q28 123 75.5 176t121.5 53q34 0 68.5 -11.5t66.5 -25.5t59.5 -25.5t46.5 -11.5q32 0 52 19t38 65l127 -41q-26 -121 -73 -175t-121 -54q-35 0 -69.5 12 t-67 26t-60 26t-47.5 12q-31 0 -52 -19.5t-38 -64.5zM350 352q0 -84 45.5 -126t114.5 -42q35 0 66 12.5t54 35t36.5 53.5t13.5 67q0 38 -13.5 70t-37 55.5t-55 37t-66.5 13.5q-32 0 -61 -11.5t-50.5 -33.5t-34 -55t-12.5 -76z" />
<glyph unicode="&#xe4;" horiz-adv-x="1077" d="M78 342q0 91 28.5 158.5t76.5 111t112 65t135 21.5q85 0 146 -27.5t106 -78.5h4v96q0 99 -48.5 147t-131.5 48q-45 0 -84 -8.5t-71 -22t-59 -30.5t-48 -34l-129 173q179 149 417 149q99 0 178.5 -25t135.5 -76.5t86.5 -129.5t30.5 -183v-696h-269l-8 102h-4 q-20 -27 -45.5 -50t-56.5 -40t-67.5 -27t-78.5 -10q-70 0 -134 23.5t-113.5 69.5t-79 114.5t-29.5 159.5zM244 1210v213h227v-213h-227zM350 346q0 -42 12 -73t33.5 -50.5t50.5 -29t64 -9.5t66 12t54 33t36.5 51t13.5 66q0 37 -13.5 68t-37 53.5t-55 34.5t-66.5 12 q-32 0 -61 -10t-50.5 -31t-34 -52.5t-12.5 -74.5zM609 1210v213h225v-213h-225z" />
<glyph unicode="&#xe5;" horiz-adv-x="1077" d="M78 342q0 91 28.5 160.5t76.5 116.5t112 70.5t135 23.5q85 0 146 -28t106 -79h4v82q0 99 -48.5 147t-131.5 48q-45 0 -84 -8.5t-71 -22t-59 -30.5t-48 -34l-129 173q179 149 417 149q99 0 178.5 -25t135.5 -76.5t86.5 -129.5t30.5 -183v-696h-269l-8 102h-4 q-20 -27 -45.5 -50t-56.5 -40t-67.5 -27t-78.5 -10q-70 0 -134 23.5t-113.5 69.5t-79 114.5t-29.5 159.5zM324 1403q0 51 15 92t43 70t68 45t89 16t89 -16t68 -45t43 -70t15 -92t-15 -92t-43 -70t-68 -45t-89 -16t-89 16t-68 45t-43 70t-15 92zM350 352q0 -84 45.5 -126 t114.5 -42q35 0 66 12.5t54 35t36.5 53.5t13.5 67q0 38 -13.5 70t-37 55.5t-55 37t-66.5 13.5q-32 0 -61 -11.5t-50.5 -33.5t-34 -55t-12.5 -76zM446 1403q0 -59 26 -88t67 -29q40 0 66 29t26 88t-26 88t-66 29q-41 0 -67 -29t-26 -88z" />
<glyph unicode="&#xe6;" horiz-adv-x="1663" d="M78 342q0 91 28.5 160.5t76.5 116.5t112 70.5t135 23.5q85 0 146 -28t106 -79h4v82q0 99 -48.5 147t-131.5 48q-45 0 -84 -8.5t-71 -22t-59 -30.5t-48 -34l-129 173q179 149 417 149q107 0 186.5 -41.5t121.5 -120.5q20 35 53.5 65t75.5 51.5t90.5 33.5t99.5 12 q120 0 202 -44.5t133 -121t73 -178.5t22 -217h-647v-14q0 -72 18 -133t51 -105.5t79 -70t102 -25.5q35 0 64 9t54 24t47 35t44 42l145 -166q-31 -36 -68 -67t-82.5 -54t-101.5 -36t-125 -13q-132 0 -224.5 54t-147.5 143q-23 -52 -60.5 -89.5t-85 -61.5t-103.5 -35t-114 -11 q-70 0 -134 23.5t-113.5 69.5t-79 114.5t-29.5 159.5zM350 352q0 -84 45.5 -126t114.5 -42q35 0 66 12.5t54 35t36.5 53.5t13.5 67q0 38 -13.5 70t-37 55.5t-55 37t-66.5 13.5q-32 0 -61 -11.5t-50.5 -33.5t-34 -55t-12.5 -76zM963 715h348q0 86 -42.5 132t-111.5 46 q-77 0 -123.5 -46t-70.5 -132z" />
<glyph unicode="&#xe7;" horiz-adv-x="1020" d="M74 543q0 114 31 217t93.5 181t156 123.5t218.5 45.5q66 0 124 -13.5t106.5 -36.5t88.5 -54.5t71 -67.5l-154 -170q-21 22 -43.5 40t-48 31t-56.5 20t-69 7q-56 0 -99 -24t-72.5 -66.5t-45 -102t-15.5 -130.5q0 -72 15 -131.5t45 -102t74 -66.5t102 -24q41 0 72.5 7.5 t57.5 20.5t48 31.5t43 40.5l154 -169q-31 -36 -70.5 -68t-88.5 -56t-107.5 -37.5t-126.5 -13.5q-128 0 -222.5 46t-157 124t-93.5 181t-31 217zM403 -84q75 12 130 4.5t92 -31t55 -62t18 -89.5q0 -52 -20.5 -93t-59 -69.5t-93 -43.5t-122.5 -15v102q21 1 43.5 7.5t40.5 20 t29.5 33.5t11.5 48q0 24 -9.5 40t-26 25t-39.5 12t-50 2v109z" />
<glyph unicode="&#xe8;" horiz-adv-x="1090" d="M74 543q0 114 30.5 217t91 181t152 123.5t213.5 45.5t208.5 -45.5t141 -128t80 -197t25.5 -252.5h-662q1 -54 21 -105t53.5 -91.5t80 -65t101.5 -24.5q36 0 66 9t56.5 24t50 35t44.5 42l146 -166q-31 -36 -69.5 -67t-85.5 -54t-104.5 -36t-125.5 -13q-122 0 -217.5 46 t-161.5 124t-100.5 181t-34.5 217zM305 1501h293l105 -303h-154zM358 653h390q0 64 -14 109.5t-37.5 74.5t-55 42.5t-66.5 13.5q-38 0 -72.5 -13.5t-63 -42t-49.5 -74.5t-32 -110z" />
<glyph unicode="&#xe9;" horiz-adv-x="1090" d="M74 543q0 114 30.5 217t91 181t152 123.5t213.5 45.5t208.5 -44.5t141 -121t80 -178.5t25.5 -217h-664v-14q0 -72 19.5 -133t54 -105.5t82 -70t102.5 -25.5q36 0 66 9t56.5 24t50 35t44.5 42l146 -166q-31 -36 -69.5 -67t-85.5 -54t-104.5 -36t-125.5 -13 q-122 0 -217.5 46t-161.5 124t-100.5 181t-34.5 217zM373 715h364q0 43 -12 76t-34 55.5t-51.5 34.5t-64.5 12q-77 0 -127 -46t-75 -132zM387 1198l105 303h292l-243 -303h-154z" />
<glyph unicode="&#xea;" horiz-adv-x="1090" d="M74 543q0 114 30.5 217t91 181t152 123.5t213.5 45.5t208.5 -45.5t141 -128t80 -197t25.5 -252.5h-662q1 -54 21 -105t53.5 -91.5t80 -65t101.5 -24.5q36 0 66 9t56.5 24t50 35t44.5 42l146 -166q-31 -36 -69.5 -67t-85.5 -54t-104.5 -36t-125.5 -13q-122 0 -217.5 46 t-161.5 124t-100.5 181t-34.5 217zM223 1198l246 291h151l246 -291h-147l-175 107l-174 -107h-147zM358 653h390q0 64 -14 109.5t-37.5 74.5t-55 42.5t-66.5 13.5q-38 0 -72.5 -13.5t-63 -42t-49.5 -74.5t-32 -110z" />
<glyph unicode="&#xeb;" horiz-adv-x="1090" d="M74 543q0 114 30.5 217t91 181t152 123.5t213.5 45.5t208.5 -44.5t141 -121t80 -178.5t25.5 -217h-664v-14q0 -72 19.5 -133t54 -105.5t82 -70t102.5 -25.5q36 0 66 9t56.5 24t50 35t44.5 42l146 -166q-31 -36 -69.5 -67t-85.5 -54t-104.5 -36t-125.5 -13 q-122 0 -217.5 46t-161.5 124t-100.5 181t-34.5 217zM250 1210v213h227v-213h-227zM373 715h364q0 43 -12 76t-34 55.5t-51.5 34.5t-64.5 12q-77 0 -127 -46t-75 -132zM614 1210v213h226v-213h-226z" />
<glyph unicode="&#xec;" horiz-adv-x="545" d="M13 1501h293l105 -303h-154zM131 0v1085h283v-1085h-283z" />
<glyph unicode="&#xed;" horiz-adv-x="545" d="M131 0v1085h283v-1085h-283zM135 1198l105 303h292l-243 -303h-154z" />
<glyph unicode="&#xee;" horiz-adv-x="545" d="M-48 1198l246 291h151l246 -291h-147l-175 107l-174 -107h-147zM131 0v1085h283v-1085h-283z" />
<glyph unicode="&#xef;" horiz-adv-x="545" d="M-23 1210v213h228v-213h-228zM131 0v1085h283v-1085h-283zM342 1210v213h225v-213h-225z" />
<glyph unicode="&#xf0;" horiz-adv-x="1110" d="M74 541q0 132 35 235t97 174.5t146 108.5t183 37q68 0 119.5 -24t80.5 -52l4 2q-15 54 -47 107t-74 106l-153 -72l-45 101l121 57q-35 34 -72 64t-72 55l103 133q60 -35 112.5 -79t100.5 -93l182 84l45 -101l-154 -71q63 -83 110 -173t78 -179.5t46.5 -173.5t15.5 -154 q0 -144 -29 -264.5t-88 -208t-149.5 -136.5t-214.5 -49q-106 0 -194.5 40.5t-152 114.5t-99 178.5t-35.5 232.5zM365 543q0 -66 11 -126t34 -105t59 -72t86 -27q46 0 81 24.5t58 68.5t35 104.5t12 132.5q0 67 -11.5 124.5t-34.5 100t-58 66.5t-82 24q-48 0 -84 -23 t-59.5 -64t-35 -99.5t-11.5 -128.5z" />
<glyph unicode="&#xf1;" horiz-adv-x="1139" d="M119 0v1085h274l8 -155h5q20 39 50.5 72t69.5 57t85.5 37.5t99.5 13.5q78 0 137 -31t98 -87t58.5 -133.5t19.5 -170.5v-688h-283v647q0 112 -32.5 164.5t-104.5 52.5q-45 0 -82 -19t-64 -54t-42 -84.5t-15 -110.5v-596h-282zM242 1225q28 123 75.5 176t121.5 53 q34 0 68.5 -11.5t66.5 -25.5t59.5 -25.5t46.5 -11.5q32 0 52 19t38 65l127 -41q-26 -121 -73 -175t-121 -54q-35 0 -69.5 12t-67 26t-60 26t-47.5 12q-31 0 -52 -19.5t-38 -64.5z" />
<glyph unicode="&#xf2;" horiz-adv-x="1155" d="M74 543q0 114 33 217t97 181t158 123.5t216 45.5t216 -45.5t157.5 -123.5t96.5 -181t33 -217t-33 -217t-96.5 -181t-157.5 -124t-216 -46t-216 46t-158 124t-97 181t-33 217zM317 1501h293l105 -303h-154zM360 543q0 -72 15 -132.5t43.5 -105t69 -69.5t90.5 -25t90 25 t68.5 69.5t43.5 105t15 132.5q0 71 -15 131.5t-43.5 105t-68.5 69.5t-90 25t-90.5 -25t-69 -69.5t-43.5 -105t-15 -131.5z" />
<glyph unicode="&#xf3;" horiz-adv-x="1155" d="M74 543q0 114 33 217t97 181t158 123.5t216 45.5t216 -45.5t157.5 -123.5t96.5 -181t33 -217t-33 -217t-96.5 -181t-157.5 -124t-216 -46t-216 46t-158 124t-97 181t-33 217zM360 543q0 -72 15 -132.5t43.5 -105t69 -69.5t90.5 -25t90 25t68.5 69.5t43.5 105t15 132.5 q0 71 -15 131.5t-43.5 105t-68.5 69.5t-90 25t-90.5 -25t-69 -69.5t-43.5 -105t-15 -131.5zM440 1198l105 303h293l-244 -303h-154z" />
<glyph unicode="&#xf4;" horiz-adv-x="1155" d="M74 543q0 114 33 217t97 181t158 123.5t216 45.5t216 -45.5t157.5 -123.5t96.5 -181t33 -217t-33 -217t-96.5 -181t-157.5 -124t-216 -46t-216 46t-158 124t-97 181t-33 217zM256 1198l246 291h151l246 -291h-147l-175 107l-174 -107h-147zM360 543q0 -72 15 -132.5 t43.5 -105t69 -69.5t90.5 -25t90 25t68.5 69.5t43.5 105t15 132.5q0 71 -15 131.5t-43.5 105t-68.5 69.5t-90 25t-90.5 -25t-69 -69.5t-43.5 -105t-15 -131.5z" />
<glyph unicode="&#xf5;" horiz-adv-x="1155" d="M74 543q0 114 33 217t97 181t158 123.5t216 45.5t216 -45.5t157.5 -123.5t96.5 -181t33 -217t-33 -217t-96.5 -181t-157.5 -124t-216 -46t-216 46t-158 124t-97 181t-33 217zM250 1225q28 123 75 176t121 53q34 0 69 -11.5t67 -25.5t59.5 -25.5t46.5 -11.5q32 0 52 19 t38 65l127 -41q-26 -121 -73 -175t-121 -54q-35 0 -70 12t-67 26t-59.5 26t-47.5 12q-31 0 -52 -19.5t-38 -64.5zM360 543q0 -72 15 -132.5t43.5 -105t69 -69.5t90.5 -25t90 25t68.5 69.5t43.5 105t15 132.5q0 71 -15 131.5t-43.5 105t-68.5 69.5t-90 25t-90.5 -25 t-69 -69.5t-43.5 -105t-15 -131.5z" />
<glyph unicode="&#xf6;" horiz-adv-x="1155" d="M74 543q0 114 33 217t97 181t158 123.5t216 45.5t216 -45.5t157.5 -123.5t96.5 -181t33 -217t-33 -217t-96.5 -181t-157.5 -124t-216 -46t-216 46t-158 124t-97 181t-33 217zM283 1210v213h227v-213h-227zM360 543q0 -72 15 -132.5t43.5 -105t69 -69.5t90.5 -25t90 25 t68.5 69.5t43.5 105t15 132.5q0 71 -15 131.5t-43.5 105t-68.5 69.5t-90 25t-90.5 -25t-69 -69.5t-43.5 -105t-15 -131.5zM648 1210v213h225v-213h-225z" />
<glyph unicode="&#xf7;" horiz-adv-x="977" d="M61 514v217h861v-217h-861zM340 100v279h295v-279h-295zM340 850v278h295v-278h-295z" />
<glyph unicode="&#xf8;" horiz-adv-x="1155" d="M74 543q0 114 33 217t97 181t158 123.5t216 45.5q96 0 176 -31l59 133h135l-86 -188q54 -38 95 -90t68.5 -114.5t41.5 -132.5t14 -144q0 -114 -33 -217t-96.5 -181t-157.5 -124t-216 -46q-50 0 -93 7.5t-84 21.5l-61 -135h-133l86 190q-54 39 -94.5 91t-68.5 114t-42 133 t-14 146zM360 543q0 -66 12.5 -123t37.5 -101l243 537q-17 9 -36 13.5t-39 4.5q-50 0 -90.5 -25t-69 -69.5t-43.5 -105t-15 -131.5zM502 227q35 -16 76 -16q50 0 90 25t68.5 69.5t43.5 105t15 132.5q0 65 -13.5 121.5t-36.5 99.5z" />
<glyph unicode="&#xf9;" horiz-adv-x="1135" d="M106 383v702h283v-682q0 -94 32.5 -138t104.5 -44q45 0 82 21t64 58t42 88t15 112v585h283v-1085h-275l-8 156h-4q-20 -39 -50.5 -72.5t-68 -57.5t-81.5 -37.5t-91 -13.5q-84 0 -145.5 31t-102 85.5t-60.5 129.5t-20 162zM307 1501h293l105 -303h-154z" />
<glyph unicode="&#xfa;" horiz-adv-x="1135" d="M106 383v702h283v-682q0 -94 32.5 -138t104.5 -44q45 0 82 21t64 58t42 88t15 112v585h283v-1085h-275l-8 156h-4q-20 -39 -50.5 -72.5t-68 -57.5t-81.5 -37.5t-91 -13.5q-84 0 -145.5 31t-102 85.5t-60.5 129.5t-20 162zM430 1198l105 303h292l-243 -303h-154z" />
<glyph unicode="&#xfb;" horiz-adv-x="1135" d="M106 383v702h283v-682q0 -94 32.5 -138t104.5 -44q45 0 82 21t64 58t42 88t15 112v585h283v-1085h-275l-8 156h-4q-20 -39 -50.5 -72.5t-68 -57.5t-81.5 -37.5t-91 -13.5q-84 0 -145.5 31t-102 85.5t-60.5 129.5t-20 162zM246 1198l246 291h151l246 -291h-147l-175 107 l-174 -107h-147z" />
<glyph unicode="&#xfc;" horiz-adv-x="1135" d="M106 383v702h283v-682q0 -94 32.5 -138t104.5 -44q45 0 82 21t64 58t42 88t15 112v585h283v-1085h-275l-8 156h-4q-20 -39 -50.5 -72.5t-68 -57.5t-81.5 -37.5t-91 -13.5q-84 0 -145.5 31t-102 85.5t-60.5 129.5t-20 162zM272 1210v213h228v-213h-228zM637 1210v213h225 v-213h-225z" />
<glyph unicode="&#xfd;" horiz-adv-x="1171" d="M115 408v677h282v-657q0 -94 30.5 -138t102.5 -44q45 0 81.5 20.5t62.5 57.5t40.5 88t14.5 112v561h283v-1005q0 -112 -31 -202.5t-90.5 -154.5t-147 -98.5t-200.5 -34.5q-69 0 -131 10.5t-114.5 28.5t-96 42.5t-76.5 52.5l121 182q63 -38 130 -60t136 -22 q101 0 161 65.5t60 200.5v90h-6q-20 -39 -50 -72t-67.5 -57t-81 -37.5t-90.5 -13.5q-84 0 -144.5 31t-100.5 85.5t-59 129t-19 162.5zM469 1198l105 303h293l-244 -303h-154z" />
<glyph unicode="&#xfe;" horiz-adv-x="1221" d="M123 -362v1933h6l277 -90v-563h4q18 40 49.5 75t72.5 61t90 41t101 15q96 0 174 -40.5t133.5 -115.5t86 -181.5t30.5 -237.5t-33 -235t-90 -176t-135 -110.5t-168 -38.5q-53 0 -101.5 13.5t-89 37.5t-72.5 56t-52 68h-5v-603h-6zM408 537q0 -75 17.5 -135.5t48 -103 t73 -65t92.5 -22.5q52 0 92.5 22.5t68 64.5t42 102t14.5 135q0 72 -14 134t-41.5 107.5t-68 71.5t-93.5 26q-51 0 -93 -26t-73 -71.5t-48 -107t-17 -132.5z" />
<glyph unicode="&#xff;" horiz-adv-x="1171" d="M115 408v677h282v-657q0 -94 30.5 -138t102.5 -44q45 0 81.5 20.5t62.5 57.5t40.5 88t14.5 112v561h283v-1005q0 -112 -31 -202.5t-90.5 -154.5t-147 -98.5t-200.5 -34.5q-69 0 -131 10.5t-114.5 28.5t-96 42.5t-76.5 52.5l121 182q63 -38 130 -60t136 -22 q101 0 161 65.5t60 200.5v90h-6q-20 -39 -50 -72t-67.5 -57t-81 -37.5t-90.5 -13.5q-84 0 -144.5 31t-100.5 85.5t-59 129t-19 162.5zM291 1210v213h227v-213h-227zM655 1210v213h226v-213h-226z" />
<glyph unicode="&#x131;" horiz-adv-x="545" d="M131 0v1085h283v-1085h-283z" />
<glyph unicode="&#x141;" horiz-adv-x="1077" d="M20 569v209l115 64v606h291v-447l303 166v-209l-303 -165v-533h606v-260h-897v633z" />
<glyph unicode="&#x142;" horiz-adv-x="545" d="M4 590v209l127 69v703h6l277 -90v-457l127 70v-209l-127 -70v-815h-283v659z" />
<glyph unicode="&#x152;" horiz-adv-x="2077" d="M90 727q0 166 46 304.5t128.5 238t196.5 154.5t250 55q102 0 188 -38t154 -104v111h911v-256h-625v-318h572v-256h-572v-362h643v-256h-929v115q-68 -66 -154 -103t-188 -37q-136 0 -250 55t-196.5 154.5t-128.5 237.5t-46 305zM389 727q0 -118 24 -211.5t67 -158 t102 -98.5t129 -34t128.5 34t101.5 98.5t67 158t24 211.5t-24 211.5t-67 158t-101.5 98.5t-128.5 34t-129 -34t-102 -98.5t-67 -158t-24 -211.5z" />
<glyph unicode="&#x153;" horiz-adv-x="1786" d="M74 543q0 114 33 217t97 181t158 123.5t216 45.5q66 0 119 -14t95.5 -40t76 -63t59.5 -82q45 91 132.5 145t221.5 54q118 0 200 -44.5t133 -121t74 -178.5t23 -217h-647v-14q0 -72 18 -133t51 -105.5t79 -70t102 -25.5q35 0 64 9t54 24t47 35t44 42l145 -166 q-31 -36 -68 -67t-82.5 -54t-101.5 -36t-125 -13q-135 0 -225 54.5t-137 146.5q-26 -46 -59.5 -83t-76 -63.5t-96 -40.5t-120.5 -14q-122 0 -216 46t-158 124t-97 181t-33 217zM360 543q0 -72 15 -132.5t43.5 -105t69 -69.5t90.5 -25t90 25t68.5 69.5t43.5 105t15 132.5 q0 71 -15 131.5t-43.5 105t-68.5 69.5t-90 25t-90.5 -25t-69 -69.5t-43.5 -105t-15 -131.5zM1085 715h349q0 86 -42.5 132t-111.5 46q-77 0 -123.5 -46t-71.5 -132z" />
<glyph unicode="&#x160;" horiz-adv-x="1249" d="M98 193l160 210q93 -89 185.5 -126t185.5 -37q99 0 146.5 37.5t47.5 109.5q0 59 -27.5 99.5t-69 68t-90 45.5t-91.5 33q-72 24 -143 55.5t-127 80.5t-90.5 119.5t-34.5 172.5q0 103 36 181.5t100 131t152 79t193 26.5q145 0 274 -48.5t223 -136.5l-153 -198 q-79 60 -160 90.5t-172 30.5q-54 0 -89 -10.5t-55.5 -28.5t-29 -41.5t-8.5 -49.5q0 -42 17 -71.5t48 -51.5t74.5 -39.5t95.5 -35.5q47 -17 97.5 -37t99 -46.5t91.5 -61t75.5 -81t51.5 -107t19 -138.5q0 -112 -39 -195.5t-106.5 -138.5t-158 -82t-193.5 -27q-78 0 -153.5 15 t-144.5 43.5t-129 69t-108 90.5zM303 1827h147l174 -107l175 107h147l-246 -291h-151z" />
<glyph unicode="&#x161;" horiz-adv-x="942" d="M49 133l123 172q54 -49 121.5 -83t148.5 -34q31 0 57.5 6t45 20t29 36.5t10.5 56.5q0 28 -11.5 49.5t-31.5 38t-47 29.5t-58 25q-36 14 -75 28t-77 32t-72.5 42t-60.5 58.5t-41.5 80.5t-15.5 109q0 80 27 138.5t76.5 97t119.5 57t156 18.5q48 0 99 -8t101.5 -23.5 t98 -39.5t88.5 -56l-119 -172q-26 21 -56.5 37t-62 27t-62.5 16.5t-58 5.5q-72 0 -101.5 -24t-29.5 -66q0 -44 39 -71.5t96 -47.5q36 -13 76.5 -27t80 -33t75 -45t63 -63t43.5 -86t16 -115q0 -85 -33 -149.5t-89.5 -107.5t-132.5 -65t-161 -22q-127 0 -225.5 43.5 t-169.5 114.5zM150 1485h147l174 -107l174 107h148l-246 -291h-152z" />
<glyph unicode="&#x178;" horiz-adv-x="1315" d="M41 1448h311l303 -643h4l304 643h311l-471 -895v-553h-291v553zM363 1572v213h227v-213h-227zM728 1572v213h225v-213h-225z" />
<glyph unicode="&#x17d;" horiz-adv-x="1335" d="M70 137l749 1059h-657v252h1007v-223l-682 -967q61 25 140 25q48 0 84 -7.5t67.5 -16t63 -16t71.5 -7.5q20 0 42 5.5t43.5 18.5t41.5 34t35 52l178 -156q-18 -55 -45 -95.5t-66.5 -67t-93 -39.5t-124.5 -13q-72 0 -125 11.5t-99 25.5t-90 25.5t-98 11.5q-84 0 -146 -21 t-110 -63zM346 1864h148l174 -107l174 107h147l-246 -291h-151z" />
<glyph unicode="&#x17e;" horiz-adv-x="1102" d="M66 102l542 760h-471v223h811v-184l-491 -688q14 5 35.5 10.5t46.5 5.5t46 -5t41 -11t41.5 -11t47.5 -5q48 0 81 21.5t58 80.5l174 -119q-53 -105 -120.5 -155t-153.5 -50q-58 0 -105 8.5t-88.5 19t-80 19.5t-77.5 9q-49 0 -92 -11t-88 -53zM229 1485h148l174 -107 l174 107h147l-245 -291h-152z" />
<glyph unicode="&#x192;" horiz-adv-x="1229" d="M102 -395l31 229q17 -3 38 -4.5t40 -1.5q29 0 52 6t39.5 22t27.5 42t16 67l88 672h-131v227h162l35 264q12 94 42.5 169t82 127.5t125 81t172.5 28.5q71 0 124.5 -6t79.5 -12l-28 -218q-29 4 -61 6.5t-64 2.5q-51 0 -85 -14t-56.5 -39.5t-34 -60.5t-17.5 -77l-32 -252 h256v-227h-287l-86 -672q-13 -100 -40 -171t-72 -116.5t-111.5 -66.5t-157.5 -21q-47 0 -82 3.5t-66 11.5z" />
<glyph unicode="&#x2c6;" horiz-adv-x="725" d="M41 1198l246 291h151l246 -291h-147l-175 107l-174 -107h-147z" />
<glyph unicode="&#x2c7;" horiz-adv-x="725" d="M41 1485h147l174 -107l175 107h147l-246 -291h-151z" />
<glyph unicode="&#x2d8;" horiz-adv-x="643" d="M41 1462h139q1 -23 9.5 -43.5t25 -36.5t43 -25t64.5 -9q37 0 63.5 9t43 25t24.5 36.5t10 43.5h139q-5 -58 -29 -106t-62.5 -82t-87 -53t-101.5 -19t-102 19t-87.5 53t-63 82t-28.5 106z" />
<glyph unicode="&#x2d9;" horiz-adv-x="358" d="M61 1202v221h236v-221h-236z" />
<glyph unicode="&#x2da;" horiz-adv-x="512" d="M41 1403q0 51 15 92t43 70t68 45t89 16t89 -16t68 -45t43 -70t15 -92t-15 -92t-43 -70t-68 -45t-89 -16t-89 16t-68 45t-43 70t-15 92zM164 1403q0 -59 26 -88t66 -29t66 29t26 88t-26 88t-66 29t-66 -29t-26 -88z" />
<glyph unicode="&#x2db;" horiz-adv-x="377" d="M41 -262q0 51 18 89.5t55 62t92 31t130 -4.5v-109q-27 1 -50 -2t-39.5 -12t-26 -25t-9.5 -40q0 -28 11.5 -48t29.5 -33.5t40.5 -20t43.5 -7.5v-102q-68 0 -123 15t-93 43.5t-58.5 69.5t-20.5 93z" />
<glyph unicode="&#x2dc;" horiz-adv-x="735" d="M41 1225q28 123 75.5 176t121.5 53q34 0 68.5 -11.5t66.5 -25.5t59.5 -25.5t46.5 -11.5q32 0 52 19t38 65l127 -41q-26 -121 -73 -175t-121 -54q-35 0 -69.5 12t-67 26t-60 26t-47.5 12q-31 0 -52 -19.5t-38 -64.5z" />
<glyph unicode="&#x2dd;" horiz-adv-x="725" d="M41 1198l90 270h227l-190 -270h-127zM369 1198l88 270h227l-192 -270h-123z" />
<glyph unicode="&#xe01;" horiz-adv-x="1274" d="M33 936v12q24 73 75.5 142.5t126.5 124t171 87.5t208 33q122 0 220 -36t166.5 -105t105.5 -169t37 -228v-797h-289v793q0 145 -64 218.5t-186 73.5q-52 0 -97.5 -11.5t-82.5 -30t-65 -43t-46 -50.5v-4q15 -15 33.5 -37t36.5 -47.5t33 -52t24 -49.5v-760h-288v743 q-19 62 -52 113t-67 80z" />
<glyph unicode="&#xe02;" horiz-adv-x="1176" d="M90 1077v8l62 226h186q121 0 183.5 -61t62.5 -173q0 -63 -26.5 -118.5t-58.5 -107.5t-58.5 -103t-26.5 -105v-184q0 -68 13 -113.5t37 -73t57.5 -39.5t74.5 -12q37 0 67 12.5t51 41t32.5 74.5t11.5 114v848h286v-867q0 -128 -38 -217t-101.5 -145t-145.5 -81.5 t-169 -25.5q-89 0 -172.5 25t-148 80.5t-103.5 144t-39 215.5v178q0 41 13 80t33 75.5t43 70.5t43 65t33 59.5t13 53.5q0 29 -13.5 42t-45.5 13h-156z" />
<glyph unicode="&#xe03;" horiz-adv-x="1184" d="M45 1176v102l176 47h12v-80q0 -84 60 -84q29 0 48 22.5t19 65.5v62h250v-236q0 -47 -14 -89t-35 -81.5t-45 -76.5t-45 -74t-35 -74.5t-14 -77.5v-143q0 -68 13 -113.5t37 -73t57.5 -39.5t74.5 -12q38 0 68 12.5t51 41t32 74.5t11 114v848h287v-867q0 -128 -38.5 -217 t-102 -145t-145.5 -81.5t-169 -25.5q-89 0 -172.5 25t-148 80.5t-103.5 144t-39 215.5v172q0 46 16.5 88.5t41.5 81.5t54.5 74t54.5 66t41.5 58t16.5 50v21q-27 -28 -62 -41t-85 -13q-34 0 -64.5 11.5t-53.5 34t-36.5 56t-13.5 77.5z" />
<glyph unicode="&#xe04;" horiz-adv-x="1323" d="M131 0v803q0 135 40 235t111 166t168 98.5t212 32.5q114 0 211.5 -32.5t168 -98.5t110.5 -166t40 -235v-803h-289v799q0 75 -16.5 129t-48 89t-76 51.5t-100.5 16.5t-101 -16.5t-76.5 -51.5t-48 -89t-16.5 -129v-232h4q31 81 86.5 120.5t130.5 39.5h94v-258h-92 q-96 0 -146 -47.5t-61 -147.5l-33 -274h-272z" />
<glyph unicode="&#xe05;" horiz-adv-x="1335" d="M131 0v850q0 208 83.5 331t264.5 154q20 -22 44 -47.5t49.5 -49.5t50 -45t45.5 -34q21 13 45.5 34t49.5 45t49 49.5t44 47.5q181 -31 264.5 -154t83.5 -331v-850h-289v850q0 49 -4.5 84t-13.5 60.5t-22 43t-31 31.5q-38 -32 -84 -67t-92 -58q-47 23 -92.5 58t-83.5 67 q-18 -15 -31.5 -32.5t-22.5 -42.5t-13.5 -60t-4.5 -84v-283h4q31 81 86.5 120.5t130.5 39.5h102v-258h-100q-96 0 -146 -47.5t-61 -147.5l-33 -274h-272z" />
<glyph unicode="&#xe06;" horiz-adv-x="1303" d="M49 1176v102l176 47h13v-80q0 -84 59 -84q29 0 48.5 22.5t19.5 65.5v62h249v-236q0 -47 -14 -89t-34.5 -81.5t-44.5 -76.5t-44.5 -74t-34.5 -74.5t-14 -77.5v-123q0 -39 17 -83.5t49.5 -82.5t78.5 -63t105 -25q58 0 97.5 16.5t63.5 52.5t34 92.5t10 135.5v789h288v-819 q0 -129 -26.5 -226t-75 -161.5t-116.5 -97t-150 -32.5q-77 0 -138 20t-107.5 51.5t-78.5 70.5t-51 78l-4 -2l-8 -193h-277v612q0 46 16.5 88.5t42 81.5t54.5 74t54.5 66t42 58t16.5 50v21q-28 -28 -63 -41t-85 -13q-34 0 -64.5 11.5t-53.5 34t-36.5 56t-13.5 77.5z" />
<glyph unicode="&#xe07;" horiz-adv-x="1163" d="M20 858h304l241 -618q50 15 90.5 53.5t69 98t44 138.5t15.5 175q0 100 -18.5 170.5t-52 115.5t-81.5 65.5t-106 20.5h-116v6l61 228h92q118 0 213 -43t162 -121t103 -186.5t36 -239.5q0 -145 -34 -269t-98 -218.5t-154.5 -157t-204.5 -84.5h-189z" />
<glyph unicode="&#xe08;" horiz-adv-x="1225" d="M41 1114q97 106 233 163.5t295 57.5q129 0 234 -43.5t180 -123.5t115.5 -193t40.5 -252q0 -131 -39.5 -251t-106.5 -217t-156 -163.5t-188 -91.5h-178l-182 502h-133v8l59 219h264l160 -465q48 27 86 72t65 104t41.5 130.5t14.5 152.5q0 85 -19 152.5t-56.5 114t-92.5 71 t-127 24.5q-61 0 -111.5 -11.5t-93.5 -32t-79.5 -49t-69.5 -62.5z" />
<glyph unicode="&#xe09;" horiz-adv-x="1290" d="M49 1114q48 53 108 94t128.5 69.5t144 43t154.5 14.5q145 0 253 -41.5t179.5 -117.5t107 -181.5t35.5 -232.5v-762h-285l-8 197l-4 2q-21 -45 -51 -85.5t-71.5 -71t-94.5 -49t-119 -18.5q-84 0 -148.5 28t-108.5 78.5t-66.5 121t-22.5 155.5v142h-121v10l60 219h350v-334 q0 -53 11 -87t32.5 -54t53 -27.5t71.5 -7.5q56 0 98.5 32t71.5 83t44 113.5t15 123.5v179q0 77 -20 139t-58 105.5t-94.5 67t-128.5 23.5q-61 0 -112.5 -11.5t-95.5 -32t-81.5 -49t-70.5 -62.5z" />
<glyph unicode="&#xe0a;" horiz-adv-x="1184" d="M90 1077v8l62 226h186q121 0 183.5 -61t62.5 -173q0 -63 -26.5 -118.5t-58.5 -107.5t-58.5 -103t-26.5 -105v-184q0 -68 14 -113.5t38.5 -73t58.5 -39.5t75 -12q37 0 68 12.5t52.5 41t33.5 74.5t12 114v285q0 53 -9.5 88t-26 56t-39.5 29.5t-50 8.5h-14v180h26 q39 0 70 14.5t53.5 46.5t38.5 83.5t25 125.5l270 -75q-11 -67 -33 -117t-52.5 -84.5t-68 -54.5t-77.5 -27v-4q86 -23 130 -90t44 -183v-301q0 -128 -39 -217t-103 -145t-147 -81.5t-170 -25.5q-89 0 -173.5 25t-149.5 80.5t-104.5 144t-39.5 215.5v178q0 41 13 80t33 75.5 t43 70.5t43 65t33 59.5t13 53.5q0 29 -13.5 42t-45.5 13h-156z" />
<glyph unicode="&#xe0b;" horiz-adv-x="1192" d="M45 1176v102l176 47h12v-80q0 -84 60 -84q29 0 48 22.5t19 65.5v62h250v-236q0 -47 -14 -89t-35 -81.5t-45 -76.5t-45 -74t-35 -74.5t-14 -77.5v-143q0 -68 14 -113.5t38.5 -73t58.5 -39.5t75 -12q38 0 68.5 12.5t52.5 41t33.5 74.5t11.5 114v285q0 53 -9.5 88t-26 56 t-39.5 29.5t-50 8.5h-14v180h27q39 0 69.5 14.5t53 46.5t38.5 83.5t25 125.5l270 -75q-11 -67 -33 -117t-52.5 -84.5t-68 -54.5t-77.5 -27v-4q86 -23 130 -90t44 -183v-301q0 -128 -39 -217t-103 -145t-146.5 -81.5t-170.5 -25.5q-89 0 -173 25t-149.5 80.5t-105 144 t-39.5 215.5v172q0 46 16.5 88.5t41.5 81.5t54.5 74t54.5 66t41.5 58t16.5 50v21q-27 -28 -62 -41t-85 -13q-34 0 -64.5 11.5t-53.5 34t-36.5 56t-13.5 77.5z" />
<glyph unicode="&#xe0c;" horiz-adv-x="1917" d="M20 936v12q24 73 75 142.5t124.5 124t167 87.5t201.5 33q118 0 213 -36t162 -105t103 -169t36 -228v-256q0 -62 17 -119.5t47 -101t71.5 -69.5t91.5 -26q45 0 76.5 12.5t52 41t30 74t9.5 112.5v846h289v-877q0 -120 -25.5 -207t-71.5 -143t-109.5 -82.5t-139.5 -26.5 q-70 0 -125.5 20.5t-97 53t-70 71.5t-45.5 75l-4 -2l-8 -193h-277v793q0 145 -60 218.5t-175 73.5q-48 0 -91 -11.5t-78.5 -30t-62.5 -43t-45 -50.5v-4q15 -15 33.5 -37t36 -47.5t33 -52t24.5 -49.5v-522h180v-7l-69 -231h-400v743q-18 62 -51 113t-68 80z" />
<glyph unicode="&#xe0d;" horiz-adv-x="1917" d="M20 936v12q24 73 75 142.5t124.5 124t167 87.5t201.5 33q118 0 213 -36t162 -105t103 -169t36 -228v-308q0 -67 12 -112.5t36.5 -73.5t61.5 -40.5t86 -12.5t86.5 12.5t62.5 40.5t37.5 73.5t12.5 112.5v822h289v-852q0 -121 -40.5 -207.5t-108 -142.5t-155.5 -82.5 t-184 -26.5t-184 26.5t-154.5 82.5t-106.5 142.5t-40 207.5v334q0 145 -60 218.5t-175 73.5q-48 0 -91 -11.5t-78.5 -30t-62.5 -43t-45 -50.5v-4q15 -15 33.5 -37t36 -47.5t33 -52t24.5 -49.5v-522h180v-7l-69 -231h-400v743q-18 62 -51 113t-68 80zM821 -246 q69 79 145.5 118.5t166.5 39.5q41 0 84.5 -14t85.5 -30.5t80.5 -30t70.5 -13.5q54 0 100.5 30t81.5 95l146 -105q-53 -111 -129 -170t-176 -59q-50 0 -94 13.5t-84.5 30t-80.5 30.5t-83 14q-54 0 -99 -22.5t-92 -71.5z" />
<glyph unicode="&#xe0e;" horiz-adv-x="1327" d="M45 223v6h182v494q-9 31 -28.5 62.5t-43 60t-47 52t-40.5 38.5v12q24 73 76.5 142.5t128.5 124t173 87.5t209 33q122 0 222 -36t171 -105t109.5 -169t38.5 -228v-963q0 -125 -31.5 -209.5t-81.5 -137t-112.5 -75t-124.5 -22.5h-45l-211 155v-147l-228 -76h-4v481h211 l224 -163q114 0 114 213v940q0 145 -70 218.5t-192 73.5q-52 0 -98.5 -11.5t-84.5 -30t-67 -43t-47 -50.5v-4q15 -15 40 -40.5t50.5 -54.5t47 -59t30.5 -53v-739h-418z" />
<glyph unicode="&#xe0f;" horiz-adv-x="1327" d="M45 223v6h182v494q-9 31 -28.5 62.5t-43 60t-47 52t-40.5 38.5v12q24 73 76.5 142.5t128.5 124t173 87.5t209 33q122 0 222 -36t171 -105t109.5 -169t38.5 -228v-977q0 -118 -31.5 -200t-83 -133t-118 -74t-136.5 -23h-73l-160 186q-7 -51 -30 -87t-59.5 -59t-84.5 -33.5 t-105 -10.5h-129v198h111q77 0 109 39t32 105v84h217l162 -187q18 4 34 11t28.5 25t20 49.5t7.5 84.5v998q0 145 -70 218.5t-192 73.5q-52 0 -98.5 -11.5t-84.5 -30t-67 -43t-47 -50.5v-4q15 -15 40 -40.5t50.5 -54.5t47 -59t30.5 -53v-739h-418z" />
<glyph unicode="&#xe10;" horiz-adv-x="1229" d="M41 1114q97 106 233 163.5t295 57.5q89 0 166 -24q40 4 79.5 12t79 24t79 40.5t80.5 60.5l159 -209q-43 -28 -112.5 -48.5t-145.5 -25.5v-4q45 -38 79.5 -86t58 -104.5t35.5 -119t12 -128.5q0 -131 -39.5 -251t-106.5 -217t-156 -163.5t-188 -91.5h-178l-182 502h-133v8 l59 219h264l160 -465q48 27 86 72t65 104t41.5 130.5t14.5 152.5q0 85 -19 152.5t-56.5 114t-92.5 71t-127 24.5q-61 0 -111.5 -11.5t-93.5 -32t-79.5 -49t-69.5 -62.5zM109 -379h120q39 0 73.5 6t59 24.5t38 52t12.5 87.5h227q-2 -59 6 -95t22 -56.5t32.5 -27.5t39.5 -7 q27 0 44.5 12t27.5 32.5t14 48t4 58.5v47h234v-57q0 -90 -21 -155.5t-58 -107.5t-88 -62.5t-112 -20.5q-97 0 -164.5 40t-95.5 130q-11 -43 -34 -75t-55.5 -53t-71 -31.5t-78.5 -10.5h-176v221z" />
<glyph unicode="&#xe11;" horiz-adv-x="1323" d="M37 1176v102l176 47h12v-80q0 -84 60 -84q29 0 48 22.5t19 65.5v62h250v-121q26 28 58 54.5t71 46.5t85.5 32t101.5 12q141 0 207.5 -105t66.5 -300v-930h-289v895q0 94 -29 142t-94 48q-41 0 -81 -19t-76.5 -52t-68 -77t-54.5 -93.5t-36 -102t-13 -102.5v-639h-289v639 q0 60 15 110t41 93t60.5 81t73.5 74v54q-28 -28 -63 -41t-84 -13q-34 0 -64.5 11.5t-53.5 34t-36.5 56t-13.5 77.5z" />
<glyph unicode="&#xe12;" horiz-adv-x="2036" d="M86 659q0 119 25.5 232t77.5 205t132 155.5t189 83.5q18 -21 37.5 -43t39.5 -43t39.5 -39.5t37.5 -31.5q40 26 84.5 65.5t103.5 91.5q162 -40 245 -159t83 -312v-291q0 -74 17 -138t50 -110.5t81 -73t110 -26.5q97 0 137.5 71.5t40.5 205.5v809h289v-840 q0 -245 -101 -370.5t-282 -125.5q-72 0 -127 20t-96.5 51.5t-70.5 70.5t-48 78l-4 -2l-9 -193h-276v862q0 45 -4 77.5t-13 56t-22.5 39.5t-32.5 28q-28 -29 -64 -58t-98 -61q-55 31 -95.5 62.5t-72.5 62.5q-54 -34 -82 -136.5t-28 -264.5q0 -212 59.5 -321t188.5 -109h131 v-7l-68 -231h-125q-120 0 -209.5 48.5t-149.5 136t-90 208.5t-30 266z" />
<glyph unicode="&#xe13;" horiz-adv-x="1917" d="M20 936v12q24 73 75 142.5t124.5 124t167 87.5t201.5 33q118 0 213 -36t162 -105t103 -169t36 -228v-353q0 -60 9.5 -102t30 -68t52 -37.5t76.5 -11.5q50 0 91.5 26t71.5 69.5t47 101t17 119.5v770h289v-1311h-277l-8 193l-4 2q-17 -36 -45.5 -75t-70 -71.5t-97 -53 t-125.5 -20.5q-76 0 -139.5 24t-109.5 75t-71.5 131t-25.5 192v396q0 145 -60 218.5t-175 73.5q-48 0 -91 -11.5t-78.5 -30t-62.5 -43t-45 -50.5v-4q15 -15 33.5 -37t36 -47.5t33 -52t24.5 -49.5v-522h180v-7l-69 -231h-400v743q-18 62 -51 113t-68 80z" />
<glyph unicode="&#xe14;" horiz-adv-x="1331" d="M86 659q0 148 38 272t112 214t182.5 140t249.5 50q114 0 211 -33.5t168.5 -100t112 -167t40.5 -233.5v-801h-289v799q0 77 -17.5 131t-49.5 88.5t-76 50.5t-98 16q-77 0 -132 -31.5t-90.5 -87t-52 -132t-16.5 -166.5q0 -214 63 -322t191 -108h133v-7l-68 -231h-125 q-120 0 -211 47t-152.5 133t-92.5 207.5t-31 271.5z" />
<glyph unicode="&#xe15;" horiz-adv-x="1352" d="M86 659q0 119 28 232t83.5 205t137.5 155.5t191 83.5q18 -21 38.5 -43t42.5 -43t42.5 -39.5t38.5 -31.5q40 26 89 65.5t108 91.5q82 -24 145 -62t105.5 -94.5t64 -134t21.5 -180.5v-864h-289v862q0 52 -6 85.5t-17 56t-25.5 36.5t-31.5 27q-28 -29 -68 -58t-102 -61 q-56 31 -98 60.5t-74 60.5q-27 -17 -51 -51.5t-41.5 -85.5t-28 -117t-10.5 -147q0 -212 59.5 -321t188.5 -109h151v-7l-67 -231h-146q-120 0 -209.5 48.5t-149.5 136t-90 208.5t-30 266z" />
<glyph unicode="&#xe16;" horiz-adv-x="1286" d="M33 936v12q24 73 76.5 142.5t129 124t173.5 87.5t209 33q122 0 220.5 -36t168.5 -105t107.5 -169t37.5 -228v-797h-289v793q0 145 -67 218.5t-189 73.5q-52 0 -98.5 -11.5t-84.5 -30t-67 -43t-47 -50.5v-4q15 -15 33.5 -37t36.5 -47.5t33 -52t24 -49.5v-522h201v-7 l-70 -231h-419v743q-19 62 -52 113t-67 80z" />
<glyph unicode="&#xe17;" horiz-adv-x="1325" d="M131 0v1311h275l10 -234l4 -2q19 39 55 84.5t87 84.5t116 65t143 26q88 0 157 -28t117 -88t73.5 -154t25.5 -225v-840h-289v838q0 68 -9 115t-27.5 76.5t-47 42.5t-67.5 13q-71 0 -132 -35.5t-106 -92.5t-70.5 -129.5t-25.5 -147.5v-680h-289z" />
<glyph unicode="&#xe18;" horiz-adv-x="1208" d="M90 694v207q0 93 30.5 168.5t85.5 129.5t132 83t170 29h518v-234h-516q-38 0 -63.5 -10.5t-41 -30.5t-22 -50.5t-6.5 -70.5h332q189 0 289 -89t100 -273v-166q0 -101 -37 -177.5t-102.5 -129t-155.5 -79t-195 -26.5q-244 0 -374 96.5t-130 288.5v158l263 86h6v-151 q0 -76 15 -123.5t44 -74.5t70.5 -36.5t95.5 -9.5q109 0 162 42.5t53 141.5v144q0 43 -10 73t-32.5 49t-58.5 27t-89 8h-533z" />
<glyph unicode="&#xe19;" horiz-adv-x="1294" d="M131 457v854h289v-824q0 -77 12 -127.5t36.5 -80.5t61.5 -42t86 -12q58 0 105.5 26.5t81.5 73t52.5 110.5t18.5 138v738h289v-1311h-276l-8 193l-5 2q-19 -39 -50 -78t-73.5 -70.5t-96.5 -51.5t-119 -20q-92 0 -166.5 26.5t-127 84.5t-81.5 149.5t-29 221.5z" />
<glyph unicode="&#xe1a;" horiz-adv-x="1294" d="M131 518v793h289v-770q0 -87 17 -147.5t47.5 -98t72 -54t90.5 -16.5t90.5 16.5t72 54t47.5 98t17 147.5v770h289v-793q0 -142 -39.5 -244.5t-109 -169t-164 -98t-203.5 -31.5t-203.5 31.5t-164 98t-109 169t-39.5 244.5z" />
<glyph unicode="&#xe1b;" horiz-adv-x="1286" d="M131 518v793h289v-770q0 -87 16.5 -147.5t46 -98t70.5 -54t90 -16.5t90 16.5t70.5 54t46 98t16.5 147.5v1263l283 92h6v-1378q0 -142 -39 -244.5t-108 -169t-162.5 -98t-202.5 -31.5t-202.5 31.5t-162.5 98t-108 169t-39 244.5z" />
<glyph unicode="&#xe1c;" horiz-adv-x="1372" d="M131 0v1012q0 74 14 130t45.5 93.5t80.5 56.5t120 19h166l68 -230v-10h-123q-19 0 -35 -4.5t-28 -16t-18.5 -31t-6.5 -50.5v-381q0 -56 -0.5 -112t-3.5 -111h4q20 52 44 105.5t50 104.5l166 318h24l166 -318q26 -51 50 -104.5t44 -105.5h5q-4 55 -4.5 111t-0.5 112v723 h283v-1311h-283l-272 530l-272 -530h-283z" />
<glyph unicode="&#xe1d;" horiz-adv-x="1372" d="M131 0v1012q0 74 14 130t45.5 93.5t80.5 56.5t120 19h166l68 -230v-10h-123q-19 0 -35 -4.5t-28 -16t-18.5 -31t-6.5 -50.5v-381q0 -56 -0.5 -112t-3.5 -111h4q20 52 44 105.5t50 104.5l166 318h24l166 -318q26 -51 50 -104.5t44 -105.5h5q-4 55 -4.5 111t-0.5 112v1218 l277 90h6v-1896h-283l-272 530l-272 -530h-283z" />
<glyph unicode="&#xe1e;" horiz-adv-x="1434" d="M66 1311h280l70 -674l24 -318l60 318l131 483h172l131 -483l59 -318l25 318l69 674h281l-172 -1311h-293l-141 526l-45 248l-45 -248l-142 -526h-292z" />
<glyph unicode="&#xe1f;" horiz-adv-x="1417" d="M66 1311h280l53 -674l25 -318l59 318l131 483h172l132 -483l59 -318l24 318l109 1229h270l-200 -1866h-293l-142 526l-45 248l-45 -248l-141 -526h-293z" />
<glyph unicode="&#xe20;" horiz-adv-x="1327" d="M45 223v6h182v494q-9 31 -28.5 62.5t-43 60t-47 52t-40.5 38.5v12q24 73 76.5 142.5t128.5 124t173 87.5t209 33q122 0 222 -36t171 -105t109.5 -169t38.5 -228v-797h-289v793q0 145 -70 218.5t-192 73.5q-52 0 -98.5 -11.5t-84.5 -30t-67 -43t-47 -50.5v-4 q15 -15 40 -40.5t50.5 -54.5t47 -59t30.5 -53v-739h-418z" />
<glyph unicode="&#xe21;" horiz-adv-x="1294" d="M131 0v1311h289v-738q0 -74 18.5 -138t51.5 -110.5t78 -73t98 -26.5q57 0 96.5 16.5t64 52.5t36 92.5t11.5 135.5v789h289v-819q0 -132 -27.5 -229t-79 -161t-126.5 -95.5t-170 -31.5q-67 0 -121 20t-96.5 51.5t-73 70.5t-49.5 78l-4 -2l-8 -193h-277z" />
<glyph unicode="&#xe22;" horiz-adv-x="1262" d="M78 399q0 56 14 107t38.5 92.5t58 71.5t73.5 45v6q-81 31 -131.5 101t-50.5 173q0 71 27 129t75 99.5t114 64.5t144 23h187l65 -228v-6h-213q-54 0 -82 -25.5t-28 -90.5q0 -56 27.5 -91.5t70.5 -35.5h211v-220h-174q-60 0 -97.5 -45.5t-37.5 -132.5q0 -62 19.5 -102.5 t53 -64.5t77.5 -34t93 -10q56 0 99 18.5t72 53t44 82.5t15 108v824h288v-819q0 -129 -34 -226t-100 -161.5t-162 -97t-220 -32.5q-111 0 -208.5 25.5t-170 78t-115 132t-42.5 188.5z" />
<glyph unicode="&#xe23;" horiz-adv-x="1114" d="M41 176l158 189q34 -36 76.5 -63.5t90 -46t96.5 -28.5t95 -10q44 0 80.5 7t63 23.5t41 43t14.5 65.5q0 42 -23.5 72t-63 52.5t-91.5 40.5t-109 36q-69 21 -138.5 49.5t-126 73.5t-91.5 112t-35 166q0 92 33 162.5t92.5 118t141 72t179.5 24.5q68 0 135 -11.5t129.5 -33.5 t119 -54t104.5 -73l-148 -178q-68 56 -144 82.5t-169 26.5q-90 0 -137 -29.5t-47 -95.5q0 -45 22 -75t58 -51t82 -36.5t94 -30.5q46 -15 95.5 -32.5t96.5 -41t88.5 -54t72.5 -72.5t49.5 -96t18.5 -124q0 -66 -20 -120t-54 -96t-80 -73.5t-99 -51.5t-110 -30t-112 -10 q-152 0 -287 49t-241 152z" />
<glyph unicode="&#xe24;" horiz-adv-x="1286" d="M33 936v12q24 73 76.5 142.5t129 124t173.5 87.5t209 33q122 0 220.5 -36t168 -105t107 -169t36.5 -228v-1319l-283 -92h-6v1407q0 145 -66 218.5t-188 73.5q-52 0 -98.5 -11.5t-84.5 -30t-67 -43t-47 -50.5v-4q15 -15 33.5 -37t36.5 -47.5t33 -52t24 -49.5v-522h201v-7 l-70 -231h-419v743q-19 62 -52 113t-67 80z" />
<glyph unicode="&#xe25;" horiz-adv-x="1274" d="M74 412q0 116 39 202t101 143t140.5 85t157.5 28q66 0 118 -11.5t93.5 -31t74 -45t60.5 -53.5v119q0 121 -67 183.5t-181 62.5q-59 0 -109 -10t-93.5 -28t-81.5 -43.5t-72 -56.5l-145 172q48 48 102.5 86t117.5 65t136 41.5t158 14.5q108 0 202.5 -31.5t165 -92.5 t111.5 -150.5t41 -204.5v-856h-285v489q-24 34 -53.5 62t-64 48t-72 31t-76.5 11q-113 0 -171.5 -57.5t-58.5 -169.5q0 -55 12.5 -94.5t34.5 -65t51.5 -37.5t63.5 -12q48 0 81.5 8.5t64.5 28.5l88 -187q-54 -38 -116 -59t-140 -21q-101 0 -180.5 29.5t-134.5 86t-84 137.5 t-29 184z" />
<glyph unicode="&#xe26;" horiz-adv-x="1327" d="M45 223v6h182v494q-9 31 -28.5 62.5t-43 60t-47 52t-40.5 38.5v12q24 73 76.5 142.5t128.5 124t173 87.5t209 33q122 0 222 -36t171 -105t109.5 -169t38.5 -228v-1319l-283 -92h-6v1407q0 145 -70 218.5t-192 73.5q-52 0 -98.5 -11.5t-84.5 -30t-67 -43t-47 -50.5v-4 q15 -15 40 -40.5t50.5 -54.5t47 -59t30.5 -53v-739h-418z" />
<glyph unicode="&#xe27;" horiz-adv-x="1139" d="M33 1135q33 38 76.5 74t99 64t124 45t150.5 17q147 0 254 -52t177.5 -143t104.5 -215.5t34 -269.5q0 -152 -34 -277t-102.5 -214.5t-170 -139t-236.5 -49.5q-78 0 -145.5 15.5t-123 42t-99 60t-74.5 69.5l153 174q18 -21 44.5 -42t60 -37.5t73.5 -27t84 -10.5 q73 0 125.5 32.5t86 91t49.5 138t16 174.5q0 212 -79 324.5t-224 112.5q-48 0 -89 -13t-75 -33.5t-61.5 -45t-49.5 -46.5z" />
<glyph unicode="&#xe28;" horiz-adv-x="1327" d="M131 0v803q0 135 40 235t111 166t168 98.5t212 32.5q88 0 172 -24q40 4 80 12t80 24t80 40.5t81 60.5l160 -209q-23 -15 -53.5 -28t-65 -23.5t-70.5 -18t-69 -10.5v-4q71 -66 103 -152t32 -200v-803h-289v799q0 75 -16.5 129t-48 89t-76 51.5t-100.5 16.5t-101 -16.5 t-76.5 -51.5t-48 -89t-16.5 -129v-232h4q31 81 86.5 120.5t130.5 39.5h94v-258h-92q-96 0 -146 -47.5t-61 -147.5l-33 -274h-272z" />
<glyph unicode="&#xe29;" horiz-adv-x="1335" d="M131 518v793h289v-770q0 -87 17.5 -147.5t48.5 -98t73.5 -54t91.5 -16.5t91.5 16.5t73.5 54t49 98t18 147.5v116h-281v7l64 213h217v434h288v-434h136v-220h-136v-139q0 -142 -40.5 -244.5t-110.5 -169t-165 -98t-204 -31.5t-204 31.5t-165 98t-110.5 169t-40.5 244.5z " />
<glyph unicode="&#xe2a;" horiz-adv-x="1282" d="M74 412q0 116 39 202t101 143t140.5 85t157.5 28q66 0 118 -11.5t93.5 -31t74 -45t60.5 -53.5v119q0 121 -67 183.5t-181 62.5q-59 0 -109 -10t-93.5 -28t-81.5 -43.5t-72 -56.5l-145 172q48 48 102.5 86t117.5 65t136 41.5t158 14.5q86 0 163 -24q40 4 79.5 12t79.5 24 t80 40.5t81 60.5l160 -209q-22 -14 -50 -26.5t-60.5 -22.5t-68 -17t-71.5 -8v-4q57 -59 92 -135.5t35 -169.5v-856h-285v489q-24 34 -53.5 62t-64 48t-72 31t-76.5 11q-113 0 -171.5 -57.5t-58.5 -169.5q0 -55 12.5 -94.5t34.5 -65t51.5 -37.5t63.5 -12q48 0 81.5 8.5 t64.5 28.5l88 -187q-54 -38 -116 -59t-140 -21q-101 0 -180.5 29.5t-134.5 86t-84 137.5t-29 184z" />
<glyph unicode="&#xe2b;" horiz-adv-x="1290" d="M131 0v1305h289v-480q45 77 111.5 153t148 144t175.5 125t194 96l127 -208q-161 -61 -302 -156q71 -21 124.5 -60.5t89 -92t53.5 -115t18 -129.5v-582h-289v549q0 112 -45 182.5t-133 91.5q-62 -66 -112.5 -141.5t-86 -159t-54.5 -175t-19 -189.5v-158h-289z" />
<glyph unicode="&#xe2c;" horiz-adv-x="1372" d="M131 0v1311h283v-723q0 -56 -0.5 -112t-3.5 -111h4q20 52 44 105.5t50 104.5l166 318h24l166 -318q26 -51 50 -104.5t44 -105.5h5q-4 55 -4.5 111t-0.5 112v313q0 58 -8 99t-27 67t-49 37.5t-75 11.5h-43v195h94q45 0 82 15.5t66 49t48.5 86.5t28.5 127l268 -84 q-11 -67 -42 -119t-72 -89.5t-87.5 -60t-86.5 -30.5v-4q95 -28 140.5 -108.5t45.5 -194.5v-899h-283l-272 530l-272 -530h-283z" />
<glyph unicode="&#xe2d;" horiz-adv-x="1266" d="M78 1114q94 102 222.5 161.5t287.5 59.5q140 0 250 -49t186 -136t116 -207t40 -263q0 -171 -36.5 -302.5t-107.5 -221t-175 -135.5t-240 -46q-114 0 -211 31t-167.5 92.5t-110.5 152.5t-40 210v291h504v-220h-217v-61q0 -63 17 -109.5t48 -76.5t74.5 -45t97.5 -15 q70 0 122 34t86 94t50.5 141t16.5 176q0 98 -20.5 175t-60.5 130.5t-98 81.5t-134 28q-61 0 -110 -12t-90 -32.5t-76.5 -49t-68.5 -61.5z" />
<glyph unicode="&#xe2e;" horiz-adv-x="1262" d="M78 1114q94 102 222.5 161.5t287.5 59.5q45 0 86 -5.5t82 -16.5q39 4 78 12t78 24t78 40t79 59l160 -209q-21 -14 -48 -26t-58 -22t-64 -17t-64 -11v-4q88 -87 136.5 -210t48.5 -269q0 -171 -36.5 -302.5t-107.5 -221t-175 -135.5t-240 -46q-114 0 -211 31t-167.5 92.5 t-110.5 152.5t-40 210v291h504v-220h-217v-61q0 -63 17 -109.5t48 -76.5t74.5 -45t97.5 -15q70 0 122 34t86 94t50.5 141t16.5 176q0 98 -20.5 175t-60.5 130.5t-98 81.5t-134 28q-61 0 -110 -12t-90 -32.5t-76.5 -49t-68.5 -61.5z" />
<glyph unicode="&#xe2f;" horiz-adv-x="1040" d="M86 1124v187h260v-185q0 -48 8 -80t22.5 -51.5t34.5 -28t44 -8.5q30 0 57.5 12.5t49 39.5t34 69.5t12.5 102.5v145l289 -53v-1274h-289v903h-4q-15 -31 -38 -57.5t-53 -46t-66 -30.5t-78 -11q-60 0 -111.5 19.5t-90 63t-60 113t-21.5 170.5z" />
<glyph unicode="&#xe30;" horiz-adv-x="612" d="M61 371v110h226v-57q0 -38 15.5 -55t55.5 -17h213v-8l-61 -180h-238q-52 0 -91.5 15t-66 42.5t-40 65.5t-13.5 84zM61 997v111h226v-57q0 -39 15.5 -55.5t55.5 -16.5h213v-8l-61 -180h-238q-52 0 -91.5 15t-66 42t-40 65t-13.5 84z" />
<glyph unicode="&#xe31;" d="M-657 1755v107h243v-64q0 -49 21 -69.5t59 -20.5h512v-6l-74 -195h-493q-62 0 -111.5 16t-84 47.5t-53.5 78t-19 106.5z" />
<glyph unicode="&#xe32;" horiz-adv-x="1040" d="M20 1126q40 45 87.5 83t103 66t120 44t138.5 16q223 0 331.5 -130t108.5 -371v-834h-288v836q0 136 -45.5 195t-143.5 59q-91 0 -157.5 -37.5t-116.5 -94.5z" />
<glyph unicode="&#xe33;" horiz-adv-x="1040" d="M-561 1690q0 51 17.5 93.5t48 72.5t73 46.5t92.5 16.5t92.5 -16.5t73.5 -46.5t48.5 -72.5t17.5 -93.5q0 -52 -17.5 -94.5t-48.5 -72.5t-73.5 -46.5t-92.5 -16.5t-92.5 16.5t-73 46.5t-48 72.5t-17.5 94.5zM-414 1690q0 -45 22 -73t62 -28q41 0 62.5 28t21.5 73 t-21.5 72.5t-62.5 27.5q-40 0 -62 -27.5t-22 -72.5zM20 1126q40 45 87.5 83t103 66t120 44t138.5 16q223 0 331.5 -130t108.5 -371v-834h-288v836q0 136 -45.5 195t-143.5 59q-91 0 -157.5 -37.5t-116.5 -94.5z" />
<glyph unicode="&#xe34;" d="M-1079 1507v6l73 195h875v-201h-948z" />
<glyph unicode="&#xe35;" d="M-1079 1507v6l73 195h646v160l223 53h6v-414h-948z" />
<glyph unicode="&#xe36;" d="M-1079 1507v6l73 195h514v12q0 43 15.5 79.5t43.5 63t66 41.5t82 15q45 0 83.5 -15t66.5 -42t43.5 -65t15.5 -85q0 -46 -15.5 -84t-43.5 -65t-66.5 -41.5t-83.5 -14.5h-794zM-358 1712q0 -40 19 -64t54 -24q37 0 56.5 24t19.5 64q0 42 -19.5 66t-56.5 24q-35 0 -54 -24 t-19 -66z" />
<glyph unicode="&#xe37;" d="M-1079 1507v6l73 195h435v172l168 41h6v-213h92v172l168 41h6v-414h-948z" />
<glyph unicode="&#xe38;" d="M-506 -358l45 178h330v-385l-217 -76h-12v272h-146v11z" />
<glyph unicode="&#xe39;" d="M-803 -352l41 172h287v-248h41q52 0 78 22.5t26 79.5v146h199v-146q0 -84 -23.5 -137t-64.5 -83.5t-96 -42t-119 -11.5h-236v238h-133v10z" />
<glyph unicode="&#xe3a;" d="M-438 -328q0 33 12.5 62t34.5 51t51.5 34.5t63.5 12.5t63 -12.5t51 -34.5t34.5 -51t12.5 -62q0 -34 -12.5 -64t-34.5 -52.5t-51 -36t-63 -13.5t-63.5 13.5t-51.5 36t-34.5 52.5t-12.5 64z" />
<glyph unicode="&#xe3f;" horiz-adv-x="1229" d="M131 0v1376h408v226h157v-228q81 -3 153 -26t125.5 -67t84.5 -110t31 -155q0 -55 -15 -102.5t-39 -86t-54 -65.5t-60 -41v-4q233 -74 233 -316q0 -83 -23 -155.5t-76 -126.5t-141.5 -86t-218.5 -33v-229h-157v229h-408zM393 244h146v346h-146v-346zM393 829h146v304h-146 v-304zM696 244q40 2 75 11.5t60.5 29.5t40.5 52.5t15 80.5t-15 80.5t-41 52.5t-61 28.5t-74 10.5v-346zM696 834q22 5 44.5 16.5t40.5 30t29 45t11 61.5q0 60 -32.5 97t-92.5 46v-296z" />
<glyph unicode="&#xe40;" horiz-adv-x="639" d="M150 0v1311h284v-1086h164v-6l-68 -219h-380z" />
<glyph unicode="&#xe41;" horiz-adv-x="1188" d="M150 0v1311h284v-1086h164v-6l-68 -219h-380zM698 0v1311h285v-1086h164v-6l-68 -219h-381z" />
<glyph unicode="&#xe42;" horiz-adv-x="723" d="M-70 1872q28 55 75.5 104t111.5 85.5t144 57.5t175 21q47 0 102.5 -5.5t113 -17.5t114 -31t104.5 -46l-108 -207q-68 40 -138 59t-151 19q-59 0 -102.5 -11.5t-75.5 -29.5q42 -29 81 -71t69 -97.5t47.5 -125.5t17.5 -155v-1196h164v-6l-68 -219h-381v1425q0 99 -25 172.5 t-66.5 126.5t-94.5 89t-109 59z" />
<glyph unicode="&#xe43;" horiz-adv-x="737" d="M-55 1903q31 48 71 91.5t92 75.5t117 51t146 19q90 0 164.5 -26.5t128.5 -74.5t84 -116t30 -151q0 -55 -19 -102t-47 -90.5t-61 -84.5t-61 -85t-47 -92.5t-19 -105.5v-987h164v-6l-67 -219h-381v1227q0 58 19 108.5t47 95t61 84.5t61 78t47 75.5t19 76.5q0 30 -7.5 58 t-24 50t-41.5 35t-61 13q-38 0 -73 -12t-65 -33.5t-55 -51t-44 -63.5z" />
<glyph unicode="&#xe44;" horiz-adv-x="723" d="M-102 1952l133 194q48 -42 96.5 -62t105.5 -20q36 0 68 10.5t66.5 22.5t72.5 22.5t86 10.5q42 0 80 -8.5t72.5 -22.5t66 -31.5t60.5 -35.5v-136q-58 -34 -111 -86t-94 -116.5t-65.5 -138t-24.5 -150.5v-1180h164v-6l-68 -219h-381v1360q0 87 20.5 164.5t56 143.5 t82.5 119.5t101 92.5q-27 12 -57 12q-40 0 -77 -10t-73 -21.5t-72.5 -21.5t-74.5 -10q-71 0 -125 30.5t-108 92.5z" />
<glyph unicode="&#xe45;" horiz-adv-x="1040" d="M20 1126q40 45 87.5 83t103 66t120 44t138.5 16q223 0 331.5 -130t108.5 -371v-1356l-282 -92h-6v1450q0 136 -45.5 195t-143.5 59q-91 0 -157.5 -37.5t-116.5 -94.5z" />
<glyph unicode="&#xe46;" horiz-adv-x="1110" d="M82 758q0 65 20.5 123.5t58.5 104.5t91.5 76.5t120.5 39.5q28 -37 59.5 -68t65.5 -51q34 22 68.5 55t54.5 64q74 -9 137.5 -36.5t110 -72.5t72.5 -106t26 -135v-1121l-283 -92h-6v1249q0 51 -18 80t-46 37q-27 -28 -54 -50.5t-64 -41.5q-45 22 -76.5 43.5t-57.5 50.5 q-20 -17 -37.5 -51t-17.5 -84q0 -49 24 -78.5t66 -29.5q19 0 34 4t34 10l53 -152q-29 -23 -70 -40t-92 -17q-59 0 -109 19t-87 56t-57.5 91t-20.5 123z" />
<glyph unicode="&#xe47;" d="M-1029 1747q0 51 19 98t52 82t79 56t100 21h531v-168h-460q-29 0 -50.5 -8t-35.5 -20.5t-20.5 -29t-6.5 -34.5q0 -26 15 -50.5t50 -43.5l120 98h115q2 -18 11 -35t22 -29.5t30 -20t35 -7.5h175v-161h-202q-29 0 -52 13.5t-40 32.5t-29 40.5t-18 37.5l-142 -134 q-80 0 -136.5 21.5t-92.5 58t-52.5 84t-16.5 98.5z" />
<glyph unicode="&#xe48;" d="M-350 1987v378h213v-329l-207 -49h-6z" />
<glyph unicode="&#xe49;" d="M-629 2263v115l158 37q42 0 72 -9.5t49 -26.5t28 -40.5t9 -50.5q0 -25 -7.5 -53t-21.5 -56h367v-6l-58 -156h-590v15l95 110q15 19 21.5 36.5t6.5 33.5q0 23 -14.5 37t-40.5 14h-74z" />
<glyph unicode="&#xe4a;" d="M-809 2179q0 54 15 92t40.5 63t60 38t72.5 18q13 -16 30 -33t34 -33.5t33.5 -30.5t29.5 -24q12 10 27 24t29.5 30.5t28 33.5t22.5 33q34 -1 67.5 -14.5t59.5 -37.5t41 -57t14 -73q0 -9 -1.5 -22t-4.5 -26.5t-8 -27t-12 -23.5q29 18 49.5 46t33.5 62.5t19 73.5t6 79h168 q-6 -78 -31 -143t-65.5 -111.5t-95.5 -72.5t-121 -26h-121v45q23 11 38 38.5t15 56.5q0 31 -11 49.5t-30 29.5q-9 -11 -22 -23t-28.5 -24.5t-32 -24.5t-32.5 -22q-21 13 -50 35t-54 45q-11 -6 -22 -26.5t-11 -45.5q0 -16 6 -31t16 -27t22.5 -20.5t25.5 -11.5v-43h-98 q-34 0 -62 15t-48 38.5t-31 52t-11 56.5z" />
<glyph unicode="&#xe4b;" d="M-524 2163v139l178 -8l-4 153h186l-4 -153l176 8v-139l-178 8l6 -154h-186l4 152z" />
<glyph unicode="&#xe4c;" d="M-565 1835v109q0 52 16.5 92t45.5 67t69 40.5t88 13.5h250l69 -177v-6h-262q-25 0 -42 -18.5t-17 -50.5v-70h-217z" />
<glyph unicode="&#xe4d;" d="M-561 1690q0 51 17.5 93.5t48 72.5t73 46.5t92.5 16.5t92.5 -16.5t73.5 -46.5t48.5 -72.5t17.5 -93.5q0 -52 -17.5 -94.5t-48.5 -72.5t-73.5 -46.5t-92.5 -16.5t-92.5 16.5t-73 46.5t-48 72.5t-17.5 94.5zM-414 1690q0 -45 22 -73t62 -28q41 0 62.5 28t21.5 73 t-21.5 72.5t-62.5 27.5q-40 0 -62 -27.5t-22 -72.5z" />
<glyph unicode="&#xe4e;" horiz-adv-x="1700" d="M307 334v532q0 42 12 65t48 42l335 172q78 39 142 39q38 0 74.5 -11.5t78.5 -31.5l236 -117q49 -24 49 -74q0 -24 -16 -49.5t-52 -42.5l-303 -153q-38 -20 -50.5 -51t-12.5 -74v-523zM901 84v489q0 31 7 47.5t30 28.5l297 152q25 14 59 14q42 0 70.5 -27.5t28.5 -82.5 v-261q0 -59 -16.5 -91.5t-59.5 -55.5z" />
<glyph unicode="&#xe4f;" horiz-adv-x="1118" d="M123 438q0 91 34.5 170.5t93.5 138.5t138.5 93t169.5 34t169.5 -34t138.5 -93t93.5 -138.5t34.5 -170.5q0 -90 -34.5 -170t-93.5 -139.5t-138.5 -94t-169.5 -34.5t-169.5 34.5t-138.5 94t-93.5 139.5t-34.5 170zM190 438q0 -77 29 -144.5t79 -117.5t117 -79t144 -29 t144 29t117 79t79 117.5t29 144.5q0 76 -29 143t-79 117.5t-117 79.5t-144 29t-144 -29t-117 -79.5t-79 -117.5t-29 -143zM328 436q0 48 18 90.5t49.5 74t73 49.5t88.5 18q48 0 90.5 -18.5t73.5 -50t49 -73t18 -88.5q0 -48 -18 -90.5t-49.5 -73.5t-73 -49t-88.5 -18 q-48 0 -90.5 18t-73.5 49.5t-49 73t-18 88.5z" />
<glyph unicode="&#xe50;" horiz-adv-x="1217" d="M82 541q0 126 41.5 230.5t112.5 180t167 117t205 41.5t205 -41.5t167.5 -117t113 -180t41.5 -230.5q0 -125 -41.5 -229t-113 -179t-167.5 -116.5t-205 -41.5q-73 0 -140 19t-125.5 54t-106.5 85.5t-82 113.5t-53 137t-19 157zM344 543q0 -83 20 -148.5t55.5 -111 t83.5 -69.5t105 -24t105.5 24t83.5 69.5t55 111t20 148.5t-20 148.5t-55 110.5t-83.5 69t-105.5 24t-105 -24t-83.5 -69t-55.5 -110.5t-20 -148.5z" />
<glyph unicode="&#xe51;" horiz-adv-x="1212" d="M78 668q0 96 36.5 177t102.5 140t158 92t203 33q126 0 228 -40.5t174 -116.5t111 -184.5t39 -244.5q0 -135 -44 -247t-120 -192t-177 -124.5t-216 -44.5h-120l-72 193v6h129q94 0 162 30.5t111.5 85t64 131t20.5 168.5q0 86 -21 154t-58.5 115t-91 71.5t-117.5 24.5 q-55 0 -100 -15t-77 -43.5t-49.5 -70.5t-17.5 -96q0 -53 11.5 -90.5t31 -61.5t45 -35.5t53.5 -11.5h41l107 127h10l102 -149l-170 -170h-102q-42 0 -87.5 8t-88.5 26.5t-81.5 48t-67 72.5t-45.5 101t-17 133z" />
<glyph unicode="&#xe52;" horiz-adv-x="1378" d="M111 492v905l254 82h6v-985q0 -75 11 -127.5t34.5 -85.5t59 -48.5t83.5 -15.5h318q37 0 62.5 10t41.5 32.5t22.5 59.5t6.5 91v409q0 32 -8 55.5t-23 34.5q-50 -56 -111 -96q-40 20 -70 41.5t-59 52.5q-12 -12 -23 -49t-11 -96q0 -72 23.5 -114t74.5 -42h57v-174h-100 q-62 0 -114 22t-89 64.5t-57.5 106t-20.5 147.5q0 67 13.5 125.5t43.5 102.5t76.5 72.5t112.5 37.5q16 -18 34.5 -37t37.5 -37t37.5 -33t33.5 -26q32 23 67.5 58t65.5 75q61 -9 111.5 -32t85.5 -59t54.5 -85t19.5 -109v-434q0 -98 -31.5 -171.5t-85.5 -122.5t-126.5 -73 t-154.5 -24h-321q-103 0 -185 29t-139 89.5t-87.5 153t-30.5 220.5z" />
<glyph unicode="&#xe53;" horiz-adv-x="1282" d="M106 371v352q0 86 23.5 153t68.5 115t110 77.5t147 41.5q54 -20 104 -61.5t88 -92.5q34 53 80.5 93.5t95.5 60.5q178 -25 265.5 -119.5t87.5 -267.5v-723h-256v707q0 43 -5 74t-15 52t-25.5 34t-36.5 20q-34 -17 -58 -50.5t-24 -97.5v-348h-217v348q0 31 -7 55t-19 42 t-27 30t-31 21q-20 -8 -36.5 -20.5t-28.5 -33t-18.5 -51.5t-6.5 -75v-304q0 -53 9.5 -87.5t27 -54.5t42 -28t54.5 -8h125v-6l-68 -219h-117q-61 0 -120.5 19.5t-106.5 63.5t-76 115t-29 173z" />
<glyph unicode="&#xe54;" horiz-adv-x="1184" d="M82 541q0 133 34 235t98.5 170.5t158.5 103.5t213 35h231q56 0 76 31t20 103v139h7l243 -78v-102q-3 -162 -84.5 -239t-236.5 -77h-248q-124 0 -186 -80t-62 -229q0 -68 12.5 -123t33.5 -97t47.5 -71.5t54.5 -44.5l106 92q-12 79 5 147.5t58 119t102.5 79.5t137.5 29h144 v-188h-103q-22 0 -41 -10.5t-32.5 -29t-21 -43.5t-7.5 -53q0 -30 7 -58t20 -49.5t31.5 -34.5t41.5 -13h195v-205h-219q-88 0 -144.5 30t-99.5 89l-162 -142q-92 22 -171 69.5t-136.5 119t-90 165.5t-32.5 210z" />
<glyph unicode="&#xe55;" horiz-adv-x="1196" d="M82 541q0 198 69 324t203 182q-6 27 -6 57q0 49 16.5 89t45.5 68.5t68.5 44t86.5 15.5q48 0 87.5 -15.5t68.5 -44t45 -68.5t16 -89v-19h47q56 0 76.5 31t20.5 103v139h6l244 -78v-102q-4 -162 -85.5 -239t-236.5 -77h-260q-124 0 -186 -80t-62 -229q0 -68 13.5 -123 t35 -97t48.5 -71.5t55 -44.5l114 92q-12 79 5.5 147.5t58.5 119t102 79.5t137 29h144v-188h-103q-22 0 -41 -10.5t-32.5 -29t-21 -43.5t-7.5 -53q0 -30 7 -58t20 -49.5t31.5 -34.5t41.5 -13h195v-205h-219q-88 0 -144.5 30t-99.5 89l-170 -142q-92 22 -171.5 69.5t-138 119 t-91.5 165.5t-33 210zM494 1104q0 -38 18.5 -62t52.5 -24q35 0 54.5 24t19.5 62q0 40 -19.5 64t-54.5 24q-34 0 -52.5 -24t-18.5 -64z" />
<glyph unicode="&#xe56;" horiz-adv-x="1176" d="M4 1319l209 115h6l125 -455l205 127h26q102 0 195.5 -37t165.5 -107t115 -172.5t43 -232.5q0 -146 -39.5 -255t-109 -182t-164.5 -109t-206 -36q-110 0 -197.5 33t-148.5 90.5t-94 137t-33 172.5v55l242 112h6v-129q0 -65 17 -111.5t47 -76.5t72.5 -44.5t93.5 -14.5 q115 0 182 90.5t67 261.5q0 84 -24 146t-61 103.5t-81.5 63t-84.5 23.5l-293 -148l-127 33z" />
<glyph unicode="&#xe57;" horiz-adv-x="1591" d="M106 336v383q0 86 22.5 153t65.5 115.5t104 78.5t138 42q54 -28 93 -63t79 -84q41 51 81.5 86t94.5 61q74 -15 132 -45.5t98 -78.5t61 -113.5t21 -151.5v-252q0 -58 -8 -110t-24.5 -95t-41 -73.5t-57.5 -45.5q11 -5 31 -6.5t38 -1.5q97 0 147 82.5t50 267.5v748l244 78h6 v-826q0 -149 -31.5 -247t-90.5 -156.5t-145 -82.5t-194 -24q-66 0 -126 8.5t-108 22.5l-45 152q36 18 57.5 44.5t32.5 62.5t14 82.5t3 105.5v249q0 44 -3.5 75t-11 52.5t-20.5 34.5t-31 21q-31 -16 -53 -51.5t-22 -98.5v-221h-197v221q0 63 -15.5 98t-54.5 52 q-18 -8 -31.5 -21t-23.5 -34t-15 -52t-5 -76v-325q0 -87 33.5 -123.5t93.5 -36.5h79v-6l-65 -211h-74q-61 0 -119.5 19t-104.5 59.5t-74 104.5t-28 153z" />
<glyph unicode="&#xe58;" horiz-adv-x="1278" d="M82 526q0 139 34 244t98.5 175t158.5 105t213 35h252q55 0 75.5 31t20.5 103v139h6l244 -78v-102q-3 -162 -85 -239t-237 -77h-268q-248 0 -248 -336q0 -45 5.5 -87.5t16.5 -78.5t27 -64.5t37 -45.5l139 215h148q0 -58 12 -102.5t31 -76t43.5 -51t50.5 -26.5l53 53 q14 16 23.5 37.5t9.5 65.5v184h254v-207q0 -38 -5.5 -67.5t-16 -53.5t-26 -44.5t-36.5 -41.5l-139 -135h-94q-39 0 -81.5 19.5t-79.5 50.5t-65 69t-39 76l-129 -238q-196 44 -299.5 181.5t-103.5 367.5z" />
<glyph unicode="&#xe59;" horiz-adv-x="1241" d="M102 461v166q0 124 29.5 215t80.5 150.5t120 88.5t147 29q45 0 90.5 -12.5t88 -35t79.5 -52.5t64 -64l39 -186q3 44 14.5 77t26 62t30.5 57.5t29.5 63.5t22 79t8.5 105v154h6l244 -78v-152q0 -74 -19 -124.5t-48 -89t-62 -72.5t-62 -76.5t-48 -99t-19 -140.5 q0 -11 1.5 -26.5t4.5 -31.5t6.5 -31.5t7.5 -26.5l51 -144q14 -38 47 -53.5t90 -15.5v-205h-114q-55 0 -94.5 14.5t-68 40t-47.5 58.5t-32 71l-227 660q-13 17 -37 34t-53 17q-24 0 -48.5 -17t-44 -50.5t-31.5 -84t-12 -117.5v-137q0 -72 16.5 -121t43 -79t59.5 -43t66 -13 h125v-6l-68 -219h-117q-86 0 -157 28t-121.5 85t-78.5 143.5t-28 204.5z" />
<glyph unicode="&#xe5b;" horiz-adv-x="1700" d="M307 334v532q0 42 12 65t48 42l335 172q78 39 142 39q38 0 74.5 -11.5t78.5 -31.5l236 -117q49 -24 49 -74q0 -24 -16 -49.5t-52 -42.5l-303 -153q-38 -20 -50.5 -51t-12.5 -74v-523zM901 84v489q0 31 7 47.5t30 28.5l297 152q25 14 59 14q42 0 70.5 -27.5t28.5 -82.5 v-261q0 -59 -16.5 -91.5t-59.5 -55.5z" />
<glyph unicode="&#x2000;" horiz-adv-x="1223" />
<glyph unicode="&#x2001;" horiz-adv-x="2447" />
<glyph unicode="&#x2002;" horiz-adv-x="1223" />
<glyph unicode="&#x2003;" horiz-adv-x="2447" />
<glyph unicode="&#x2004;" horiz-adv-x="815" />
<glyph unicode="&#x2005;" horiz-adv-x="611" />
<glyph unicode="&#x2006;" horiz-adv-x="407" />
<glyph unicode="&#x2007;" horiz-adv-x="407" />
<glyph unicode="&#x2008;" horiz-adv-x="305" />
<glyph unicode="&#x2009;" horiz-adv-x="489" />
<glyph unicode="&#x200a;" horiz-adv-x="135" />
<glyph unicode="&#x2010;" horiz-adv-x="623" d="M49 569v209h524v-209h-524z" />
<glyph unicode="&#x2011;" horiz-adv-x="623" d="M49 569v209h524v-209h-524z" />
<glyph unicode="&#x2012;" horiz-adv-x="623" d="M49 569v209h524v-209h-524z" />
<glyph unicode="&#x2013;" horiz-adv-x="1012" d="M49 569v209h914v-209h-914z" />
<glyph unicode="&#x2014;" horiz-adv-x="1606" d="M49 569v209h1507v-209h-1507z" />
<glyph unicode="&#x2018;" horiz-adv-x="479" d="M82 983l178 526h158l-43 -526h-293z" />
<glyph unicode="&#x2019;" horiz-adv-x="479" d="M61 983l43 526h293l-178 -526h-158z" />
<glyph unicode="&#x201a;" horiz-adv-x="479" d="M61 -270l43 526h293l-178 -526h-158z" />
<glyph unicode="&#x201c;" horiz-adv-x="868" d="M82 983l178 526h158l-43 -526h-293zM471 983l178 526h158l-43 -526h-293z" />
<glyph unicode="&#x201d;" horiz-adv-x="868" d="M61 983l43 526h293l-178 -526h-158zM451 983l43 526h292l-178 -526h-157z" />
<glyph unicode="&#x201e;" horiz-adv-x="868" d="M61 -270l43 526h293l-178 -526h-158zM451 -270l43 526h292l-178 -526h-157z" />
<glyph unicode="&#x2020;" horiz-adv-x="705" d="M49 909v217h178v322h250v-322h178v-217h-178v-1040h-250v1040h-178z" />
<glyph unicode="&#x2021;" horiz-adv-x="625" d="M51 164v229h137v531h-137v229h137v295h250v-295h135v-229h-135v-531h135v-229h-135v-295h-250v295h-137z" />
<glyph unicode="&#x2022;" horiz-adv-x="696" d="M82 678q0 62 21 114.5t57 91t84.5 60t103.5 21.5t103.5 -21.5t84.5 -60t57 -91t21 -114.5t-21 -115t-57 -91t-84.5 -59.5t-103.5 -21.5t-103.5 21.5t-84.5 59.5t-57 91t-21 115z" />
<glyph unicode="&#x2026;" horiz-adv-x="1499" d="M102 0v319h295v-319h-295zM602 0v319h295v-319h-295zM1102 0v319h295v-319h-295z" />
<glyph unicode="&#x202f;" horiz-adv-x="489" />
<glyph unicode="&#x2030;" horiz-adv-x="7721" d="M102 0v1507l220 -159q19 -14 22.5 -36t3.5 -34v-592l357 356q18 19 28.5 23t24.5 4h332l-549 -520l549 -549h-275q-21 0 -38.5 6.5t-31.5 14.5q-16 10 -28 22l-318 317q-9 10 -16.5 13.5t-13.5 3.5q-10 0 -15.5 -8t-5.5 -21v-289q-1 -17 -7 -30q-5 -11 -15.5 -20 t-30.5 -9h-193zM1227 0v1069h225q13 -1 24 -7q9 -5 17 -16.5t8 -31.5v-82h6q42 83 120 123.5t202 40.5v-246q-75 0 -121 -14.5t-80 -34.5q-60 -37 -93.5 -104t-33.5 -177v-461q-1 -17 -7 -30q-5 -11 -16.5 -20t-31.5 -9h-219zM1995 356v713h207q13 -1 24 -7q9 -5 17 -16.5 t8 -31.5v-576q0 -51 9 -92t30.5 -69t56.5 -43t86 -15q72 0 118 27.5t72.5 69t36 89.5t9.5 89v575h215q13 -1 24 -7q9 -5 17 -16.5t8 -31.5v-955q-1 -17 -7 -30q-5 -11 -16.5 -20t-32.5 -9h-217v111h-8q-20 -21 -47.5 -45t-63 -45t-79 -34.5t-95.5 -13.5q-61 0 -127 17.5 t-120.5 61t-89.5 117.5t-35 187zM3178 0v1069h199q13 -1 24 -7q9 -5 17 -16.5t8 -31.5v-53h8q21 40 54 66.5t73 41.5t82.5 21t83.5 6q93 0 164.5 -24.5t120 -70.5t73.5 -112.5t25 -149.5v-680q-1 -17 -7 -30q-5 -11 -16.5 -20t-31.5 -9h-207v657q0 42 -6.5 77t-24.5 61 t-50.5 40.5t-84.5 14.5q-51 0 -96 -16t-78 -49.5t-52 -85.5t-19 -124v-516q-1 -17 -7 -30q-5 -11 -16.5 -20t-32.5 -9h-203zM4276 575q0 124 38 220.5t102 163.5t148.5 102t176.5 35q61 0 107.5 -9.5t81.5 -27.5t60.5 -43t45.5 -55h6v108h219q16 -1 28 -7q11 -5 19.5 -16.5 t8.5 -31.5v-973q0 -103 -42 -181t-113 -130.5t-164.5 -79.5t-196.5 -27q-81 0 -146.5 18.5t-117.5 49t-90 69.5t-63.5 81t-39.5 83.5t-17 75.5h252q20 -62 77 -99.5t140 -37.5q124 0 185 58t61 161v111q-31 -42 -66 -68.5t-73.5 -42t-79 -21.5t-82.5 -6q-92 0 -176.5 39 t-148.5 108t-102 164.5t-38 208.5zM4549 575q0 -41 11.5 -88.5t40 -89t76 -69t119.5 -27.5t120.5 27.5t77 69t40.5 89t12 88.5q0 42 -12 94t-40.5 98.5t-77 78t-120.5 31.5t-119.5 -31.5t-76 -78t-40 -98.5t-11.5 -94zM5476 168q0 4 4 10q2 2 5 4l159 162q31 -31 70 -57.5 t82.5 -46.5t89 -31.5t88.5 -11.5q42 0 77 8.5t61 25t40.5 41.5t14.5 58q0 31 -28.5 49t-74.5 30.5t-105 22.5t-121 24t-121 35.5t-105 57t-74.5 89t-28.5 130.5q0 82 38 143.5t102 102t148.5 60.5t176.5 20q82 0 148.5 -14t117.5 -37t87 -52t59 -59q12 -18 12 -31 q0 -10 -6 -18q-3 -4 -6 -6l-138 -138q-21 26 -47 51.5t-60 45t-76 32t-95 13.5q-94 0 -140 -25t-46 -65q0 -36 29.5 -57t77.5 -35t109.5 -24.5t125.5 -24t125.5 -34t109.5 -55.5t77.5 -87.5t29.5 -129.5q0 -92 -39 -160t-106.5 -112.5t-157.5 -66t-191 -21.5 q-165 0 -285.5 44.5t-203.5 125.5q-5 3 -7 7t-2 7zM6605 0v1069h225q13 -1 24 -7q9 -5 17 -16.5t8 -31.5v-82h6q42 83 120 123.5t202 40.5v-246q-75 0 -121 -14.5t-80 -34.5q-60 -37 -93.5 -104t-33.5 -177v-461q-1 -17 -7 -30q-5 -11 -16.5 -20t-31.5 -9h-219zM7344 0v1069 h225q14 -1 25 -7q9 -5 17 -16.5t8 -31.5v-955q-1 -17 -7 -30q-5 -11 -16.5 -20t-32.5 -9h-219zM7344 1317v190h225q14 -1 25 -7q9 -5 17 -16.5t8 -31.5v-190h-226q-14 1 -25 7q-9 5 -16.5 16t-7.5 32z" />
<glyph unicode="&#x2039;" horiz-adv-x="645" d="M41 532l260 414h262l-256 -414l256 -413h-262z" />
<glyph unicode="&#x203a;" horiz-adv-x="666" d="M82 119l256 413l-256 414h262l260 -414l-260 -413h-262z" />
<glyph unicode="&#x205f;" horiz-adv-x="611" />
<glyph unicode="&#x20ac;" horiz-adv-x="1229" d="M41 477v152h125v63v62h-125v151h143q22 115 68.5 208t116.5 159t163 101.5t207 35.5q67 0 126 -11.5t109.5 -31.5t91.5 -47t73 -57l-86 -211q-29 25 -58 45t-62 33.5t-72.5 20.5t-90.5 7q-124 0 -194.5 -64t-98.5 -188h498l-64 -151h-452v-62v-32.5t2 -30.5h399l-61 -152 h-320q28 -124 98.5 -187t194.5 -63q51 0 90.5 7t73 21t63 33.5t58.5 45.5l86 -211q-32 -31 -73.5 -58t-92 -47t-110 -31.5t-126.5 -11.5q-114 0 -207 35.5t-163.5 101t-117.5 158.5t-69 207h-143z" />
<glyph unicode="&#x2122;" horiz-adv-x="1176" d="M41 1329v119h461v-119h-158v-430h-145v430h-158zM565 899v549h140l126 -260l127 260h140v-549h-142v332l-108 -211h-33l-108 211v-332h-142z" />
<glyph unicode="&#x2212;" horiz-adv-x="983" d="M61 514v217h861v-217h-861z" />
<glyph unicode="&#x221a;" horiz-adv-x="1151" d="M41 705h285l163 -521l361 1381h280l-512 -1831h-210z" />
<glyph unicode="&#x221e;" horiz-adv-x="1260" d="M53 666q0 73 23 138.5t63.5 114t96 77t120.5 28.5q47 0 86 -15.5t72.5 -41t62 -58.5t54.5 -69q26 36 55.5 69t63.5 58t74 40t87 15q66 0 120.5 -25.5t93 -73t60 -114t21.5 -147.5q0 -74 -23 -139.5t-63.5 -114t-96 -77t-120.5 -28.5q-47 0 -86 15t-72.5 40.5t-62 59 t-53.5 69.5q-26 -36 -55.5 -69t-64 -58t-74.5 -40t-87 -15q-66 0 -120.5 26t-93 73t-60 114t-21.5 148zM289 666q0 -72 20 -115t64 -43q40 0 86 38t84 113q-35 81 -80 120.5t-88 39.5q-40 0 -63 -42.5t-23 -110.5zM717 668q35 -81 79.5 -120.5t88.5 -39.5q40 0 63 42.5 t23 111.5q0 71 -20.5 114t-63.5 43q-40 0 -86 -38t-84 -113z" />
<glyph unicode="&#x2248;" horiz-adv-x="983" d="M63 317q17 81 42.5 135t60 87t77.5 47t95 14q50 0 88 -15.5t74 -34.5t74.5 -34.5t89.5 -15.5q42 0 65 24t29 66h162q-9 -81 -29.5 -136.5t-52.5 -90t-74.5 -49.5t-95.5 -15q-50 0 -88.5 16.5t-75 37t-75 37t-89.5 16.5q-42 0 -70.5 -24t-44.5 -65h-162zM63 686 q17 81 42.5 135t60 87t77.5 47t95 14q50 0 88 -16t74 -34.5t74.5 -34.5t89.5 -16q42 0 65 24t29 66h162q-9 -81 -29.5 -136t-52.5 -89.5t-74.5 -49.5t-95.5 -15q-50 0 -88.5 16.5t-75 36.5t-75 36.5t-89.5 16.5q-42 0 -70.5 -24t-44.5 -64h-162z" />
<glyph unicode="&#x2260;" horiz-adv-x="983" d="M82 338v201h280l91 168h-371v200h479l162 299h168l-162 -299h172v-200h-280l-91 -168h371v-201h-479l-162 -299h-168l162 299h-172z" />
<glyph unicode="&#x2264;" horiz-adv-x="983" d="M37 0v135h868v-135h-868zM37 678v178l868 473v-285l-549 -274v-6l549 -275v-284z" />
<glyph unicode="&#x2265;" horiz-adv-x="983" d="M78 0v135h868v-135h-868zM78 205v284l549 275v6l-549 274v285l868 -473v-178z" />
<glyph unicode="&#x25fc;" horiz-adv-x="1070" d="M0 0v1070h1070v-1070h-1070z" />
<glyph unicode="&#xf700;" horiz-adv-x="1229" d="M41 1114q97 106 233 163.5t295 57.5q89 0 166 -24q40 4 79.5 12t79 24t79 40.5t80.5 60.5l159 -209q-43 -28 -112.5 -48.5t-145.5 -25.5v-4q45 -38 79.5 -86t58 -104.5t35.5 -119t12 -128.5q0 -131 -39.5 -251t-106.5 -217t-156 -163.5t-188 -91.5h-178l-182 502h-133v8 l59 219h264l160 -465q48 27 86 72t65 104t41.5 130.5t14.5 152.5q0 85 -19 152.5t-56.5 114t-92.5 71t-127 24.5q-61 0 -111.5 -11.5t-93.5 -32t-79.5 -49t-69.5 -62.5z" />
<glyph unicode="&#xf701;" d="M-1325 1507v6l74 195h731v-201h-805z" />
<glyph unicode="&#xf702;" d="M-1325 1507v6l74 195h501v160l224 53h6v-414h-805z" />
<glyph unicode="&#xf703;" d="M-1325 1507v6l74 195h370v12q0 43 15.5 79.5t43.5 63t65.5 41.5t82.5 15t83.5 -15t66.5 -42t43.5 -65t15.5 -85q0 -46 -15.5 -84t-43.5 -65t-66.5 -41.5t-83.5 -14.5h-651zM-748 1712q0 -40 19.5 -64t54.5 -24q37 0 56.5 24t19.5 64q0 42 -19.5 66t-56.5 24 q-35 0 -54.5 -24t-19.5 -66z" />
<glyph unicode="&#xf704;" d="M-1325 1507v6l74 195h290v172l168 41h7v-213h92v172l168 41h6v-414h-805z" />
<glyph unicode="&#xf705;" d="M-834 1477v487h238v-432l-231 -55h-7z" />
<glyph unicode="&#xf706;" d="M-1180 1808v134l185 40q48 0 82.5 -12t56.5 -33t32.5 -49.5t10.5 -60.5q0 -26 -9 -63.5t-26 -69.5h342v-6l-67 -181h-596v17l106 127q19 21 27 43.5t8 42.5q0 31 -17.5 51t-48.5 20h-86z" />
<glyph unicode="&#xf707;" d="M-1280 1686q0 59 17 100.5t45.5 69t66.5 42t80 19.5q14 -18 32 -36.5t37 -36t37 -33t33 -27.5q13 12 29 27.5t32.5 33t31 36t24.5 36.5q38 -1 75.5 -15.5t66.5 -41t46.5 -63t16.5 -81.5q0 -10 -2.5 -23.5t-6.5 -28.5t-10.5 -29.5t-13.5 -24.5q31 19 50.5 49.5t30 68 t14 80t3.5 86.5h205q-7 -86 -34.5 -157t-72.5 -122t-105 -79.5t-132 -28.5h-133v49q25 13 39 43t14 62q0 34 -9.5 50.5t-29.5 29.5q-21 -25 -56.5 -54t-70.5 -51q-12 7 -26.5 17t-29.5 22t-30 24.5t-28 24.5q-13 -6 -23 -28.5t-10 -48.5q0 -38 22 -61.5t51 -31.5v-47h-108 q-38 0 -68.5 16.5t-53 42.5t-34.5 57.5t-12 62.5z" />
<glyph unicode="&#xf708;" d="M-1110 1679v154l197 -8l-5 180h205l-4 -180l193 8v-154l-195 11l6 -183h-205l5 179z" />
<glyph unicode="&#xf709;" d="M-1053 1507v99q0 57 18.5 101t50.5 74t76.5 45t96.5 15h279l77 -194v-7h-293q-27 0 -46 -20t-19 -57v-56h-240z" />
<glyph unicode="&#xf70a;" d="M-403 1477v487h237v-432l-231 -55h-6z" />
<glyph unicode="&#xf70b;" d="M-729 1808v134l184 40q48 0 83 -12t57 -33t32.5 -49.5t10.5 -60.5q0 -26 -9 -63.5t-26 -69.5h383v-6l-68 -181h-637v17l107 127q18 21 26 43.5t8 42.5q0 31 -17 51t-48 20h-86z" />
<glyph unicode="&#xf70c;" d="M-932 1686q0 59 17 100.5t45.5 69t66.5 42t80 19.5q14 -18 32 -36.5t37 -36t37 -33t33 -27.5q13 12 29 27.5t32.5 33t31 36t24.5 36.5q38 -1 75.5 -15.5t66.5 -41t46.5 -63t16.5 -81.5q0 -10 -2 -23.5t-6.5 -28.5t-10.5 -29.5t-14 -24.5q31 19 50.5 49.5t30 68t14 80 t3.5 86.5h205q-7 -86 -34.5 -157t-72 -122t-105 -79.5t-132.5 -28.5h-133v49q25 13 39 43t14 62q0 34 -9.5 50.5t-29.5 29.5q-21 -25 -56.5 -54t-70.5 -51q-23 14 -55.5 39t-58.5 49q-13 -6 -23 -28.5t-10 -48.5q0 -38 22.5 -61.5t51.5 -31.5v-47h-109q-38 0 -68.5 16.5 t-53 42.5t-34.5 57.5t-12 62.5z" />
<glyph unicode="&#xf70d;" d="M-647 1679v154l205 -8l-4 180h213l-5 -180l201 8v-154l-203 11l7 -183h-213l4 179z" />
<glyph unicode="&#xf70e;" d="M-664 1507v99q0 57 18.5 101t50.5 74t76.5 45t96.5 15h299l78 -194v-7h-313q-28 0 -47 -20t-19 -57v-56h-240z" />
<glyph unicode="&#xf70f;" horiz-adv-x="1901" d="M20 936v12q24 73 75 142.5t124.5 124t167 87.5t201.5 33q118 0 213 -36t162 -105t103 -169t36 -228v-140q0 -67 12 -112.5t36 -73.5t59 -40.5t81 -12.5t81.5 12.5t60 40.5t37 73.5t12.5 112.5v654h288v-684q0 -92 -25 -160.5t-73 -118.5t-117 -85t-157 -60 q-48 -14 -94.5 -36.5t-84.5 -48.5t-65.5 -52t-38.5 -46q25 11 54 19t69 8t75 -7.5t68 -17t63.5 -17t61.5 -7.5q34 0 59 6t45 19.5t36.5 34.5t33.5 51l148 -113q-31 -53 -67 -88t-75.5 -56t-81 -29.5t-81.5 -8.5q-52 0 -96 11.5t-86 25t-83.5 25t-87.5 11.5q-18 0 -41 -5 t-49.5 -14.5t-54.5 -24t-55 -33.5l-133 153q18 28 48 62t67.5 68.5t80 66.5t84.5 57q-65 18 -120.5 51t-96 83.5t-63.5 119t-23 156.5v166q0 145 -60 218.5t-175 73.5q-48 0 -91 -11.5t-78.5 -30t-62.5 -43t-45 -50.5v-4q15 -15 33.5 -37t36 -47.5t33 -52t24.5 -49.5v-522 h180v-7l-69 -231h-400v743q-18 62 -51 113t-68 80z" />
<glyph unicode="&#xf710;" d="M-1210 1755v107h243v-64q0 -49 21 -69.5t59 -20.5h430v-6l-73 -195h-412q-62 0 -111.5 16t-84 47.5t-53.5 78t-19 106.5z" />
<glyph unicode="&#xf711;" d="M-1004 1690q0 51 17.5 93.5t48.5 72.5t73.5 46.5t92.5 16.5t92.5 -16.5t73 -46.5t48 -72.5t17.5 -93.5q0 -52 -17.5 -94.5t-48 -72.5t-73 -46.5t-92.5 -16.5t-92.5 16.5t-73.5 46.5t-48.5 72.5t-17.5 94.5zM-854 1690q0 -45 21 -73t61 -28t61 28t21 73t-21 72.5t-61 27.5 t-61 -27.5t-21 -72.5z" />
<glyph unicode="&#xf712;" d="M-1266 1747q0 51 19 98t52 82t79 56t100 21h531v-168h-460q-29 0 -50.5 -8t-35.5 -20.5t-20.5 -29t-6.5 -34.5q0 -26 15 -50.5t50 -43.5l120 98h115q2 -18 11 -35t22 -29.5t30 -20t35 -7.5h115v-161h-142q-29 0 -52 13.5t-40 32.5t-29 40.5t-18 37.5l-142 -134 q-80 0 -136.5 21.5t-92.5 58t-52.5 84t-16.5 98.5z" />
<glyph unicode="&#xf713;" d="M-739 1987v378h213v-329l-207 -49h-6z" />
<glyph unicode="&#xf714;" d="M-1038 2263v115l157 37q42 0 72 -9.5t49 -26.5t28 -40.5t9 -50.5q0 -25 -7.5 -53t-21.5 -56h367v-6l-57 -156h-590v15l94 110q29 36 29 70q0 23 -15 37t-41 14h-73z" />
<glyph unicode="&#xf715;" d="M-1219 2179q0 54 15 92t41 63t60 38t73 18q13 -16 29.5 -33t34 -33.5t34 -30.5t29.5 -24q12 10 27 24t29.5 30.5t27.5 33.5t22 33q34 -1 67.5 -14.5t60 -37.5t41.5 -57t14 -73q0 -9 -1.5 -22t-5 -26.5t-8.5 -27t-12 -23.5q29 18 50 46t34 62.5t19 73.5t6 79h167 q-6 -78 -31 -143t-65.5 -111.5t-95.5 -72.5t-121 -26h-121v45q23 11 38.5 38.5t15.5 56.5q0 31 -11.5 49.5t-29.5 29.5q-19 -21 -51 -47.5t-64 -46.5q-22 13 -51 35t-54 45q-11 -6 -21.5 -26.5t-10.5 -45.5q0 -16 6 -31t15.5 -27t22 -20.5t25.5 -11.5v-43h-98q-34 0 -62 15 t-48 38.5t-31 52t-11 56.5z" />
<glyph unicode="&#xf716;" d="M-913 2163v139l178 -8l-4 153h186l-4 -153l176 8v-139l-178 8l6 -154h-186l4 152z" />
<glyph unicode="&#xf717;" d="M-954 1835v109q0 52 16.5 92t45.5 67t69 40.5t88 13.5h270l70 -177v-6h-283q-25 0 -42 -18.5t-17 -50.5v-70h-217z" />
<glyph unicode="&#xf718;" d="M-506 -768l45 178h330v-364l-217 -76h-12v252h-146v10z" />
<glyph unicode="&#xf719;" d="M-803 -762l41 172h287v-227h41q52 0 78 22.5t26 79.5v125h199v-125q0 -84 -23.5 -137t-64.5 -83.5t-96 -42t-119 -11.5h-236v217h-133v10z" />
<glyph unicode="&#xf71a;" d="M-438 -737q0 33 12.5 62t34.5 50.5t51.5 34t63.5 12.5t63 -12.5t51 -34t34.5 -50.5t12.5 -62q0 -34 -12.5 -64t-34.5 -52.5t-51 -36t-63 -13.5t-63.5 13.5t-51.5 36t-34.5 52.5t-12.5 64z" />
<glyph unicode="&#xf71b;" horiz-adv-x="1327" d="M45 264v6h182v453q-9 31 -28.5 62.5t-43 60t-47 52t-40.5 38.5v12q24 73 76.5 142.5t128.5 124t173 87.5t209 33q122 0 222 -36t171 -105t109.5 -169t38.5 -228v-860q0 -125 -31.5 -210t-81.5 -137t-112.5 -75t-124.5 -23h-45l-211 156v-148l-228 -75h-4v481h211 l224 -164q114 0 114 213v838q0 145 -70 218.5t-192 73.5q-52 0 -98.5 -11.5t-84.5 -30t-67 -43t-47 -50.5v-4q15 -15 40 -40.5t50.5 -54.5t47 -59t30.5 -53v-698h-418z" />
<glyph unicode="&#xf71c;" horiz-adv-x="1327" d="M45 264v6h182v453q-9 31 -28.5 62.5t-43 60t-47 52t-40.5 38.5v12q24 73 76.5 142.5t128.5 124t173 87.5t209 33q122 0 222 -36t171 -105t109.5 -169t38.5 -228v-875q0 -117 -31.5 -199t-83 -133.5t-118 -74.5t-136.5 -23h-73l-160 186q-7 -51 -30 -87t-59.5 -59 t-84.5 -33.5t-105 -10.5h-129v199h111q77 0 109 38.5t32 104.5v84h217l162 -186q18 4 34 11t28.5 24.5t20 49.5t7.5 85v895q0 145 -70 218.5t-192 73.5q-52 0 -98.5 -11.5t-84.5 -30t-67 -43t-47 -50.5v-4q15 -15 40 -40.5t50.5 -54.5t47 -59t30.5 -53v-698h-418z" />
<glyph unicode="&#xf71d;" horiz-adv-x="1372" d="M131 0v1311h283v-723q0 -56 -0.5 -112t-3.5 -111h4q20 52 44 105.5t50 104.5l166 318h24l166 -318q26 -51 50 -104.5t44 -105.5h5q-4 55 -4.5 111t-0.5 112v170q0 58 -8 99t-27 66.5t-49 37.5t-75 12h-43v194h94q36 0 71.5 11.5t64.5 39t48 74t21 117.5h268 q-11 -78 -39 -139t-65.5 -104.5t-80.5 -69.5t-83 -33v-4q48 -14 83 -42t58 -67t34 -88t11 -106v-756h-283l-272 530l-272 -530h-283z" />
<glyph horiz-adv-x="1040" d="M-1004 1690q0 51 17.5 93.5t48.5 72.5t73.5 46.5t92.5 16.5t92.5 -16.5t73 -46.5t48 -72.5t17.5 -93.5q0 -52 -17.5 -94.5t-48 -72.5t-73 -46.5t-92.5 -16.5t-92.5 16.5t-73.5 46.5t-48.5 72.5t-17.5 94.5zM-854 1690q0 -45 21 -73t61 -28t61 28t21 73t-21 72.5t-61 27.5 t-61 -27.5t-21 -72.5zM20 1126q40 45 87.5 83t103 66t120 44t138.5 16q223 0 331.5 -130t108.5 -371v-834h-288v836q0 136 -45.5 195t-143.5 59q-91 0 -157.5 -37.5t-116.5 -94.5z" />
<glyph horiz-adv-x="1315" d="M98 727q0 100 15.5 195t46.5 178.5t78 153t109 119.5t139.5 78t170.5 28t171 -28t140 -78t109 -119.5t78 -153t46.5 -178.5t15.5 -195t-15.5 -195t-46.5 -178.5t-78 -153t-109 -119.5t-140 -78t-171 -28t-170.5 28t-139.5 78t-109 119.5t-78 153t-46.5 178.5t-15.5 195z M397 727q0 -107 17.5 -198.5t50.5 -158.5t81.5 -105t110.5 -38t110.5 38t82 105t51 158.5t17.5 198.5t-17.5 198.5t-51 158.5t-82 105t-110.5 38t-110.5 -38t-81.5 -105t-50.5 -158.5t-17.5 -198.5z" />
<glyph horiz-adv-x="811" d="M37 1339l338 127h211v-1466h-285v1182l-199 -39z" />
<glyph horiz-adv-x="1130" d="M70 1217q186 262 479 262q110 0 196 -35t145.5 -96t90.5 -144t31 -178q0 -80 -17 -148.5t-52 -132.5t-87.5 -126.5t-124.5 -131.5l-235 -227h553v-260h-963v217l449 440q54 52 88.5 97.5t54.5 88t27.5 84.5t7.5 89q0 94 -44.5 149.5t-133.5 55.5q-78 0 -148.5 -45.5 t-126.5 -122.5z" />
<glyph horiz-adv-x="1147" d="M45 217l191 164q55 -74 129 -111t163 -37q48 0 87 13.5t67 39t43.5 63t15.5 85.5q0 112 -53.5 158.5t-165.5 46.5h-106v213h106q50 0 86 10.5t59.5 33.5t34.5 60.5t11 90.5q0 42 -13 74.5t-37 54.5t-57.5 33.5t-73.5 11.5q-77 0 -152.5 -37t-131.5 -111l-191 164 q87 125 214 183.5t276 58.5q90 0 173 -25t146 -76t100.5 -129t37.5 -184q0 -51 -13.5 -98.5t-36 -87t-51 -69.5t-59.5 -48q-1 -1 -1 -3q0 -1 1 -1q38 -13 74 -41t64 -68.5t45 -93.5t17 -117q0 -112 -39.5 -198.5t-107.5 -145t-159.5 -89t-194.5 -30.5q-74 0 -145 14.5 t-135 44.5t-119.5 75.5t-98.5 107.5z" />
<glyph horiz-adv-x="1257" d="M45 492l715 972h237v-913h179v-236h-179v-315h-290v315h-598zM381 555h328v467z" />
<glyph horiz-adv-x="1143" d="M49 223l191 164q25 -37 53 -65.5t61.5 -48t73.5 -30t90 -10.5q49 0 89.5 16.5t69 47t44.5 73.5t16 97q0 50 -13 92.5t-38.5 74t-62 49t-84.5 17.5q-70 0 -117.5 -24t-81.5 -55l-184 96l37 731h776v-260h-539l-10 -303l2 -2q37 20 89 33.5t126 13.5q76 0 148 -28.5 t127.5 -86.5t89.5 -145.5t34 -204.5q0 -111 -36.5 -201.5t-102 -154.5t-156 -99t-198.5 -35q-167 0 -287 61.5t-207 186.5z" />
<glyph horiz-adv-x="1184" d="M98 684q0 167 34.5 312t105 252.5t178 169t252.5 61.5q106 0 200 -38t168 -100l-143 -202q-47 37 -97 58.5t-110 21.5q-75 0 -128 -32t-86.5 -87.5t-50.5 -130t-20 -158.5h5q45 59 116.5 94t173.5 35q76 0 147 -31.5t126 -91t88 -144.5t33 -192q0 -117 -35.5 -210.5 t-99.5 -159t-152.5 -101t-194.5 -35.5q-107 0 -200 41.5t-162 128.5t-108.5 221t-39.5 318zM414 465q0 -52 14 -96.5t39 -77.5t60 -51.5t77 -18.5q48 0 85 18t62.5 50.5t38.5 78t13 99.5q0 53 -14 96.5t-39.5 75t-62.5 49t-83 17.5q-45 0 -80 -19t-59.5 -52t-37.5 -76.5 t-13 -92.5z" />
<glyph horiz-adv-x="1044" d="M74 1188v260h889v-219l-514 -1229h-336l499 1188h-538z" />
<glyph horiz-adv-x="1225" d="M102 397q0 67 20 123.5t51.5 102t71.5 79.5t79 56q-35 24 -67.5 54t-58 69t-40.5 88t-15 112q0 73 30.5 144.5t90 127.5t147.5 91t203 35q88 0 171.5 -23t148.5 -71.5t105 -123.5t40 -180q0 -60 -18.5 -110.5t-45.5 -90.5t-57 -70t-53 -50q35 -18 73.5 -49.5t70.5 -73.5 t52.5 -95t20.5 -114q0 -85 -21.5 -152t-58.5 -117.5t-87 -85.5t-106.5 -56.5t-117.5 -31.5t-119 -10q-91 0 -182 21.5t-164 71t-118.5 130.5t-45.5 199zM403 420q0 -96 56 -146.5t153 -50.5t153 51t56 148q0 51 -20 92.5t-53.5 70.5t-77.5 44.5t-92 15.5q-59 -22 -94 -51.5 t-53 -61t-23 -61t-5 -51.5zM442 1053q0 -39 14 -67t35.5 -49t48 -35t51 -23.5t45 -15.5t30.5 -11q61 38 86.5 84t25.5 117q0 40 -12 73.5t-34 58t-52.5 38.5t-67.5 14q-43 0 -75 -14t-53 -38.5t-31.5 -58t-10.5 -73.5z" />
<glyph horiz-adv-x="1184" d="M94 969q0 117 35.5 210.5t99 159t152 101t194.5 35.5q107 0 200 -41.5t162 -128.5t108.5 -221t39.5 -318q0 -168 -34.5 -313t-105 -252t-177.5 -168.5t-252 -61.5q-106 0 -200 38t-169 100l144 202q46 -37 96.5 -58.5t110.5 -21.5q75 0 127.5 32t86.5 87.5t50.5 130 t19.5 158.5h-4q-45 -59 -116.5 -94t-174.5 -35q-76 0 -147 31.5t-125.5 91t-87.5 144.5t-33 192zM381 983q0 -53 14 -96.5t39.5 -75t62.5 -49t83 -17.5q44 0 79.5 19t60 52t37.5 76.5t13 92.5q0 52 -14 96.5t-39 77.5t-60 51.5t-77 18.5q-48 0 -85 -18t-62.5 -50.5 t-38.5 -78t-13 -99.5z" />
</font>
</defs>
</svg>
